<svg width="87" height="330" viewBox="0 0 87 330" fill="none" xmlns="http://www.w3.org/2000/svg">
<g clip-path="url(#clip0_8_15140)">
<path d="M0 -0.0441895H90.115H177.214H270.911H280.807V94.8289V193.431V290H183.701H89.7024H0V283.271V193.654V102.195V97.2547V89.0846V-0.0441895Z" fill="#743E79"/>
<path d="M0 97.255L60.1148 97.2644L78.4781 97.2606C81.2313 97.2594 86.1609 97.1249 88.7616 97.3981C90.4313 98.5986 95.7327 104.236 97.5329 106.054L117.074 125.793L160.471 169.616C168.147 177.366 176.096 185.227 183.659 193.063C181.039 193.211 177.841 193.141 175.189 193.141H161.189L114.611 193.137L99.2605 193.139C96.3593 193.139 93.0648 193.079 90.179 193.202L88.9271 191.953C88.8451 191.987 88.604 192.008 88.5035 192.023C87.885 191.831 87.6596 191.309 87.2309 190.898C87.1241 190.796 86.4453 190.87 86.146 190.548L86.3025 190.265L86.1547 190.104L85.8061 190.218C85.2461 189.669 84.2784 188.03 83.7173 187.346C82.9047 186.353 82.0394 185.502 81.1354 184.597L22.7776 125.734C17.9284 120.898 13.1142 116.027 8.33524 111.12C7.1762 109.927 5.79991 108.662 4.62571 107.466C4.4926 107.331 4.44459 106.791 4.42204 106.573C2.97601 105.085 1.50171 103.626 0 102.195V97.255Z" fill="#5A305E"/>
<path d="M4.42188 106.573C9.13212 111.129 13.9392 116.137 18.5675 120.811L44.734 147.233L55.1179 157.721C56.6073 159.233 59.3414 162.184 60.8509 163.405L61.2099 163.273C61.7623 163.883 61.968 164.279 62.6787 164.618C63.201 166.06 63.8492 166.588 64.9215 167.653C65.9479 168.672 66.9473 169.755 68.0571 170.681C68.6992 171.219 69.7792 171.578 70.3239 172.236C70.0053 172.267 70.0906 172.253 69.7621 172.177L69.7048 172.32C70.2725 173.184 73.399 176.192 74.3322 177.127L83.8631 186.739C85.1594 188.047 87.8226 190.594 88.927 191.953C88.8449 191.987 88.6038 192.008 88.5034 192.023C87.8848 191.831 87.6594 191.309 87.2308 190.898C87.1239 190.796 86.4452 190.87 86.1458 190.548L86.3024 190.265L86.1545 190.104L85.806 190.218C85.2459 189.669 84.2782 188.03 83.7172 187.346C82.9045 186.353 82.0392 185.502 81.1352 184.597L22.7775 125.734C17.9283 120.898 13.114 116.027 8.33508 111.12C7.17604 109.927 5.79975 108.662 4.62555 107.466C4.49244 107.331 4.44443 106.791 4.42188 106.573Z" fill="#5A305E"/>
<path d="M0 193.654L59.5492 193.676L78.2352 193.669C81.5297 193.669 85.5736 193.566 88.8144 193.742C84.9498 197.204 80.0207 202.497 76.2333 206.323L52.9816 229.81L16.5957 266.56C11.2119 271.997 5.21832 277.789 0 283.271V193.654Z" fill="#5A305E"/>
<path d="M0 -0.0441895H90.115L89.0694 0.118972C88.3459 0.227817 87.8849 0.442344 87.3474 0.963085C84.4673 3.75331 81.6322 6.69521 78.8122 9.54431L61.829 26.6951L21.7851 67.1326C14.6056 74.384 7.27869 81.9675 0 89.0846V-0.0441895Z" fill="#5A305E"/>
</g>
<defs>
<clipPath id="clip0_8_15140">
<rect width="87" height="330" fill="white"/>
</clipPath>
</defs>
</svg>
