<svg width="87" height="330" viewBox="0 0 87 330" fill="none" xmlns="http://www.w3.org/2000/svg">
<g clip-path="url(#clip0_8_15122)">
<path d="M0 0H29.6351H133.561H165V30.1493V135.483V165H132.951H30.305H0V133.722V103.258V100.902V62.2508V59.896V31.9438V0Z" fill="#9A1356"/>
<path d="M29.6328 0H133.558C133.08 0.617349 132.066 1.57163 131.484 2.14295C131.928 3.10983 130.518 3.21115 130.167 3.52713C129.472 4.15314 128.841 4.86477 128.137 5.50566L127.725 5.94813L127.607 6.11908L127.641 6.17524C127.378 6.6454 126.926 7.55979 126.402 7.76886C125.741 8.03311 126.155 7.50015 125.463 8.1538C124.419 9.37414 115.701 17.7605 115.608 18.1237L115.716 18.2084C115.266 18.7971 114.695 19.3987 114.217 19.9924C113.939 20.3375 113.254 19.9637 113.007 20.7879C112.764 21.5962 112.666 22.0032 111.797 21.8552C109.04 24.5079 106.407 27.3721 103.627 29.9997C102.563 31.2156 101.131 32.2871 100.211 33.6067C99.9379 33.9993 100.099 34.239 99.5334 34.4897C99.3949 34.3922 99.4198 34.4321 99.3288 34.3004L98.3942 35.2384C98.1356 35.5146 97.8714 35.7858 97.6015 36.0521L97.8254 36.3632C97.7835 36.5403 96.111 37.7785 96.0046 38.1934C96.0441 38.0411 95.3617 38.8069 95.3263 38.8539C95.1152 38.8662 95.1708 38.8925 94.9967 38.8204L94.9589 38.6798C91.4639 42.3542 87.6604 45.8514 84.1308 49.506C83.2937 50.3729 82.459 51.1357 81.6606 52.0523C78.5532 49.0912 75.3555 45.804 72.3165 42.7509C72.2953 42.2985 72.5092 42.1024 72.07 41.8364C71.6648 41.8703 71.4106 41.8843 71.1019 41.5693C70.2876 40.7385 69.4749 39.907 68.654 39.0826L63.5737 34.0089L49.4654 19.8833L34.6989 5.12898C33.0483 3.45409 31.1993 1.73725 29.6328 0Z" fill="#781041"/>
<path d="M97.9507 129.942C97.9612 129.394 97.9209 127.42 97.9677 127.054L97.9918 127.455C98.1264 125.684 98.0506 122.999 98.0498 121.166L98.0515 110.35L98.0523 104.121C98.0523 103.679 98.0796 101.615 97.9983 101.321L97.9387 102.408C97.9056 102.139 97.7751 101.116 97.9024 100.946L98.153 100.994C98.1989 101.696 98.128 102.607 98.128 103.328C98.1288 104.62 98.1296 105.913 98.1296 107.204L98.1312 122.854C98.1304 124.653 98.1505 126.445 98.0684 128.241C98.0474 128.71 98.0692 129.228 98.0917 129.699L97.9032 129.874C97.9822 130.082 103.793 135.82 104.522 136.55L132.95 165H30.3047C31.1797 163.947 33.0828 162.154 34.1075 161.134L40.9668 154.284L63.2047 132.052L76.4356 118.652L79.5115 115.581C80.1338 114.956 80.9988 114.021 81.6836 113.51C82.6463 114.597 83.9249 115.796 84.9731 116.846L91.4611 123.333C93.4366 125.315 95.86 128.138 97.9507 129.942Z" fill="#781041"/>
<path d="M0 31.9441C2.5574 34.2195 5.77247 37.6654 8.28553 40.1731L25.1921 57.0787L43.2716 75.1591L48.2453 80.1117C49.0682 80.9293 50.1504 81.9444 50.9028 82.796C49.8682 83.7781 40.6682 92.7637 40.6556 93.1464C40.6488 93.3534 40.6817 93.6539 40.514 93.8038L38.9726 95.1549C38.7542 95.1186 38.7644 95.1074 38.5468 95.1436C36.9063 96.6446 35.2001 98.4291 33.623 100.016L26.8389 106.802L22.2263 111.411C21.6223 112.013 20.4026 113.153 19.9057 113.74L20.0245 113.888C19.5686 114.738 19.4571 114.72 18.7223 115.349C18.5656 115.285 18.636 115.334 18.5392 115.162C18.0576 115.434 15.691 117.944 15.1495 118.484L4.4003 129.419C3.2267 130.59 1.15929 132.759 0 133.722V103.258V100.902V62.2511V59.8963V31.9441Z" fill="#781041"/>
<path d="M0 59.8958C0.449637 60.2422 0.794243 60.6345 1.16489 61.0631C0.785821 61.4678 0.39742 61.8638 0 62.2505V59.8958Z" fill="#9A1356"/>
<path d="M0 100.902C0.303838 101.124 0.916532 101.722 1.18503 102.024C0.779101 102.435 0.388592 102.83 0 103.258V100.902Z" fill="#9A1356"/>
</g>
<g clip-path="url(#clip1_8_15122)">
<path d="M0 165H29.6351H133.561H165V195.149V300.483V330H132.951H30.305H0V298.722V268.258V265.902V227.251V224.896V196.944V165Z" fill="#9A1356"/>
<path d="M29.6328 165H133.558C133.08 165.617 132.066 166.572 131.484 167.143C131.928 168.11 130.518 168.211 130.167 168.527C129.472 169.153 128.841 169.865 128.137 170.506L127.725 170.948L127.607 171.119L127.641 171.175C127.378 171.645 126.926 172.56 126.402 172.769C125.741 173.033 126.155 172.5 125.463 173.154C124.419 174.374 115.701 182.761 115.608 183.124L115.716 183.208C115.266 183.797 114.695 184.399 114.217 184.992C113.939 185.337 113.254 184.964 113.007 185.788C112.764 186.596 112.666 187.003 111.797 186.855C109.04 189.508 106.407 192.372 103.627 195C102.563 196.216 101.131 197.287 100.211 198.607C99.9379 198.999 100.099 199.239 99.5334 199.49C99.3949 199.392 99.4198 199.432 99.3288 199.3L98.3942 200.238C98.1356 200.515 97.8714 200.786 97.6015 201.052L97.8254 201.363C97.7835 201.54 96.111 202.778 96.0046 203.193C96.0441 203.041 95.3617 203.807 95.3263 203.854C95.1152 203.866 95.1708 203.893 94.9967 203.82L94.9589 203.68C91.4639 207.354 87.6604 210.851 84.1308 214.506C83.2937 215.373 82.459 216.136 81.6606 217.052C78.5532 214.091 75.3555 210.804 72.3165 207.751C72.2953 207.298 72.5092 207.102 72.07 206.836C71.6648 206.87 71.4106 206.884 71.1019 206.569C70.2876 205.738 69.4749 204.907 68.654 204.083L63.5737 199.009L49.4654 184.883L34.6989 170.129C33.0483 168.454 31.1993 166.737 29.6328 165Z" fill="#781041"/>
<path d="M97.9507 294.942C97.9612 294.394 97.9209 292.42 97.9677 292.054L97.9918 292.455C98.1264 290.684 98.0506 287.999 98.0498 286.166L98.0515 275.35L98.0523 269.121C98.0523 268.679 98.0796 266.615 97.9983 266.321L97.9387 267.408C97.9056 267.139 97.7751 266.116 97.9024 265.946L98.153 265.994C98.1989 266.696 98.128 267.607 98.128 268.328C98.1288 269.62 98.1296 270.913 98.1296 272.204L98.1312 287.854C98.1304 289.653 98.1505 291.445 98.0684 293.241C98.0474 293.71 98.0692 294.228 98.0917 294.699L97.9032 294.874C97.9822 295.082 103.793 300.82 104.522 301.55L132.95 330H30.3047C31.1797 328.947 33.0828 327.154 34.1075 326.134L40.9668 319.284L63.2047 297.052L76.4356 283.652L79.5115 280.581C80.1338 279.956 80.9988 279.021 81.6836 278.51C82.6463 279.597 83.9249 280.796 84.9731 281.846L91.4611 288.333C93.4366 290.315 95.86 293.138 97.9507 294.942Z" fill="#781041"/>
<path d="M0 196.944C2.5574 199.22 5.77247 202.665 8.28553 205.173L25.1921 222.079L43.2716 240.159L48.2453 245.112C49.0682 245.929 50.1504 246.944 50.9028 247.796C49.8682 248.778 40.6682 257.764 40.6556 258.146C40.6488 258.353 40.6817 258.654 40.514 258.804L38.9726 260.155C38.7542 260.119 38.7644 260.107 38.5468 260.144C36.9063 261.645 35.2001 263.429 33.623 265.016L26.8389 271.802L22.2263 276.411C21.6223 277.013 20.4026 278.153 19.9057 278.74L20.0245 278.888C19.5686 279.738 19.4571 279.72 18.7223 280.349C18.5656 280.285 18.636 280.334 18.5392 280.162C18.0576 280.434 15.691 282.944 15.1495 283.484L4.4003 294.419C3.2267 295.59 1.15929 297.759 0 298.722V268.258V265.902V227.251V224.896V196.944Z" fill="#781041"/>
<path d="M0 224.896C0.449637 225.242 0.794243 225.635 1.16489 226.063C0.785821 226.468 0.39742 226.864 0 227.251V224.896Z" fill="#9A1356"/>
<path d="M0 265.902C0.303838 266.124 0.916532 266.723 1.18503 267.024C0.779101 267.436 0.388592 267.83 0 268.258V265.902Z" fill="#9A1356"/>
</g>
<defs>
<clipPath id="clip0_8_15122">
<rect width="165" height="165" fill="white"/>
</clipPath>
<clipPath id="clip1_8_15122">
<rect width="165" height="165" fill="white" transform="translate(0 165)"/>
</clipPath>
</defs>
</svg>
