<svg width="87" height="329" viewBox="0 0 87 329" fill="none" xmlns="http://www.w3.org/2000/svg">
<g clip-path="url(#clip0_8_15179)">
<path d="M0 0.227783H327.321V229.509V232.093V232.277V329.145H231.709H160.184H64.0595H0V241.452V232.123V11.6913V0.227783Z" fill="#294920"/>
<path d="M0 0C5.24968 4.98534 10.5897 10.4909 15.7263 15.6301L42.3205 42.2266L122.31 122.221L150.014 149.932C151.264 151.184 159.066 158.705 159.563 159.691L159.505 159.875C157.857 160.02 157.128 160.228 155.277 160.319L155.219 160.693C153.932 160.99 144.025 160.899 142.168 160.896L113.075 160.888L38.0581 160.89L13.1894 160.888C8.91071 160.888 4.25476 160.973 0 160.866V0Z" fill="#203A1D"/>
<path d="M0 159.819C5.24968 164.804 10.5897 170.31 15.7263 175.449L42.3205 202.046L122.31 282.04L150.014 309.751C151.264 311.003 159.066 318.524 159.563 319.51L159.505 319.694C157.857 319.839 157.128 320.047 155.277 320.138L155.219 320.512C153.932 320.809 144.025 320.718 142.168 320.715L113.075 320.707L38.0581 320.709L13.1894 320.707C8.91071 320.707 4.25476 320.792 0 320.685V159.819Z" fill="#203A1D"/>
</g>
<defs>
<clipPath id="clip0_8_15179">
<rect width="87" height="329" fill="white"/>
</clipPath>
</defs>
</svg>
