<svg width="87" height="330" viewBox="0 0 87 330" fill="none" xmlns="http://www.w3.org/2000/svg">
<g clip-path="url(#clip0_8_15155)">
<path d="M0 0H8.64987H98.4379H118.52H326.922V1.14656V330H312.36H232.186H203.889H0V328.646V0Z" fill="#013A57"/>
<path d="M163.472 282.807C166.282 298.023 173.556 310.89 186.428 319.808C191.776 323.51 197.718 326.263 203.999 327.952C206.425 328.592 209.293 329.061 211.605 329.734C210.126 329.742 205.154 329.678 203.889 330H0V328.646C3.19931 328.742 13.7308 329.136 16.239 327.815C15.8709 327.278 15.8656 326.474 16.0123 325.859L16.3097 325.525C17.3575 325.591 17.4149 326.718 17.6722 327.354C31.5594 322.809 43.0632 312.918 49.6387 299.868C51.9088 295.424 53.6617 289.797 54.5959 284.888C59.0444 304.974 70.1191 318.345 88.7674 326.516C88.7967 326.529 89.1326 327.43 89.1723 327.539C89.5885 327.599 89.4216 327.606 89.8395 327.435C89.8911 327.457 89.9426 327.48 89.9942 327.501C99.4878 329.652 109.702 328.347 119.407 328.7C122.8 328.824 127.465 327.095 130.561 325.765C144.159 319.968 154.852 308.94 160.228 295.168C161.671 291.526 162.992 286.696 163.472 282.807Z" fill="#0A2D41"/>
<path d="M8.65132 0H98.4394C99.1984 0.150997 99.2477 0.0341883 99.7363 0.471478C99.493 1.10952 97.2187 1.44652 96.5284 1.60074C78.5764 5.61182 63.5101 18.9652 57.19 36.2193C56.085 39.236 55.376 42.3679 54.543 45.4854C54.4165 43.3431 52.6899 37.8393 51.8977 35.7805C46.5204 21.5233 35.4663 10.1383 21.3742 4.34372C19.7898 3.68048 8.51177 0.333706 8.55481 0.382225L8.65132 0Z" fill="#0A2D41"/>
<path d="M54.5149 175.268C54.7928 175.588 56.1313 180.812 56.4606 181.845C58.0968 186.973 60.2404 191.489 63.3065 195.931C70.6462 206.695 81.5247 214.546 94.0515 218.121C96.9442 218.946 100.244 219.41 103.224 219.958C95.4217 220.748 87.8799 223.203 81.1082 227.159C70.5643 233.295 62.3964 242.807 57.9234 254.157C56.3367 258.161 55.7684 260.655 54.6823 264.677C54.481 264.556 53.6011 260.779 53.4468 260.259C51.7938 254.669 49.0023 248.151 45.6963 243.382C38.2401 232.644 27.224 224.894 14.5997 221.502C11.6193 220.686 8.84782 220.359 5.83203 219.808C29.7593 217.702 50.3121 198.937 54.5149 175.268Z" fill="#0A2D41"/>
<path d="M54.5983 64.9946C57.9192 80.4614 65.5847 92.8991 79.0303 101.595C84.4981 105.158 90.5731 107.688 96.954 109.059C99.0987 109.528 101.61 109.821 103.636 110.334C100.452 110.341 98.2362 110.837 95.1764 111.623C85.6736 114.042 77.0066 118.998 70.1015 125.96C65.1431 130.941 61.3699 136.252 58.5101 142.729C57.4096 145.221 56.6708 147.844 55.7141 150.339L55.9192 150.977C56.2253 150.911 56.0911 150.982 56.3204 150.762C56.265 151.903 56.0673 153.322 55.5971 154.364L55.3815 154.495C55.284 153.858 55.3991 153.828 55.0246 153.519C54.8767 154.077 54.9033 154.403 54.549 154.714C54.3384 154.303 54.2694 153.199 54.1304 152.615C52.5336 146.888 51.2216 142.817 48.2255 137.568C42.052 126.836 32.4507 118.491 20.9641 113.873C18.1855 112.759 15.482 112.023 12.6057 111.233L12.2414 111.72C11.5056 111.796 11.0701 111.476 10.3167 111.517L10.0994 111.907C9.4932 112.071 9.02168 111.528 8.4641 111.592C7.78251 111.67 6.72868 112.367 6.19531 111.628C6.73107 111.247 6.66586 111.366 7.41815 111.282L7.48563 111.144C7.20225 110.752 6.98323 110.53 6.9018 110.054C7.26283 109.735 7.41023 109.853 8.04098 109.836C25.4258 107.864 42.2083 95.5314 49.6933 79.8757C51.7114 75.6545 54.054 69.638 54.5983 64.9946Z" fill="#0A2D41"/>
<path d="M12.6057 111.233L12.2414 111.72C11.5056 111.796 11.0701 111.476 10.3167 111.517L10.0994 111.907C9.4932 112.071 9.02168 111.528 8.4641 111.592C7.78251 111.67 6.72868 112.367 6.19531 111.628C6.73107 111.247 6.66586 111.366 7.41815 111.282L7.48563 111.143C7.20225 110.752 6.98323 110.53 6.9018 110.054C7.26283 109.735 7.41023 109.853 8.04098 109.836C8.88257 109.897 8.96542 109.764 9.54724 110.172L9.55222 110.377L8.98875 110.568C10.1407 110.895 11.3587 110.931 12.6057 111.233Z" fill="#0A2D41"/>
<path d="M54.1289 152.615C54.3993 152.646 54.5876 152.696 54.8449 152.774C55.4938 152.188 55.5155 151.284 55.7126 150.339L55.9177 150.977C56.2238 150.911 56.0896 150.981 56.3189 150.762C56.2635 151.903 56.0658 153.322 55.5956 154.364L55.38 154.495C55.2826 153.858 55.3976 153.828 55.0231 153.519C54.8752 154.077 54.9018 154.403 54.5475 154.713C54.3369 154.303 54.268 153.199 54.1289 152.615Z" fill="#0A2D41"/>
</g>
<defs>
<clipPath id="clip0_8_15155">
<rect width="87" height="330" fill="white"/>
</clipPath>
</defs>
</svg>
