<svg width="124" height="350" viewBox="0 0 124 350" fill="none" xmlns="http://www.w3.org/2000/svg">
<g clip-path="url(#clip0_6_547)">
<path d="M-0.453125 0H7.5874H91.0503H109.718H303.439V1.05974V305.01H289.902H215.376H189.073H-0.453125V303.759V0Z" fill="#013A57"/>
<path d="M151.503 261.391C154.115 275.455 160.876 287.347 172.842 295.59C177.813 299.011 183.336 301.556 189.175 303.117C191.43 303.708 194.096 304.142 196.245 304.764C194.871 304.772 190.248 304.712 189.073 305.01H-0.453125V303.759C2.52081 303.847 12.3104 304.212 14.6419 302.99C14.2997 302.494 14.2948 301.751 14.4312 301.182L14.7076 300.874C15.6816 300.935 15.7349 301.976 15.9741 302.564C28.883 298.363 39.5764 289.222 45.6887 277.16C47.7989 273.052 49.4283 267.852 50.2967 263.314C54.4318 281.88 64.7264 294.238 82.061 301.79C82.0882 301.802 82.4005 302.634 82.4373 302.736C82.8242 302.791 82.6691 302.797 83.0576 302.639C83.1055 302.66 83.1534 302.681 83.2013 302.7C92.0262 304.688 101.52 303.482 110.542 303.808C113.696 303.923 118.033 302.325 120.91 301.096C133.551 295.737 143.49 285.545 148.488 272.816C149.829 269.45 151.057 264.985 151.503 261.391Z" fill="#0A2D41"/>
<path d="M109.713 0H303.434V1.05974C300.039 0.961651 295.166 0.715939 291.822 1.15693C286.996 1.79314 280.959 4.60793 276.768 7.06304C268.179 12.0959 261.031 20.0237 256.784 28.9761C254.939 32.8659 253.743 37.1574 252.695 41.3135C251.548 36.7434 250.4 32.4862 248.215 28.2725C246.223 24.4301 244.001 20.7821 241.125 17.5174C235.469 10.9727 228.226 5.97123 220.083 2.98612C214.128 0.791536 212.156 1.1381 205.916 0.722877C206.433 0.667815 206.353 0.7408 206.738 0.467203C205.998 0.51607 205.372 0.356546 204.586 0.36683C201.895 0.402025 199.091 0.217373 196.426 0.571749L197.123 0.594801C194.884 0.958591 192.277 0.77306 190.196 1.23802C170.097 5.72757 153.854 23.6435 151.494 43.9456C148.87 23.1769 132.498 6.13739 112.321 1.44672C111.549 1.26732 109.32 1.00955 108.863 0.498295C109.097 0.101682 109.146 0.199533 109.713 0Z" fill="#0A2D41"/>
<path d="M7.58983 0H91.0527C91.7583 0.139562 91.8041 0.0315993 92.2582 0.435774C92.0321 1.0255 89.918 1.33698 89.2764 1.47952C72.589 5.18685 58.584 17.529 52.7091 33.4765C51.682 36.2648 51.023 39.1595 50.2486 42.0409C50.1311 40.0609 48.5261 34.9738 47.7896 33.0709C42.7912 19.8934 32.5158 9.37055 19.4164 4.01478C17.9437 3.40177 7.46011 0.308435 7.50011 0.35328L7.58983 0Z" fill="#0A2D41"/>
<path d="M152.27 163.346C153.167 167.2 155.41 173.75 157.617 177.092C158.036 177.838 158.261 178.368 158.921 178.918L159.303 179.019C159.857 178.531 159.758 175.756 159.784 174.91C159.764 175.926 159.823 179.71 159.695 180.44C162.27 184.147 165.489 188.158 169.104 190.941C169.417 191.182 171.138 192.617 171.436 192.573C172.369 192.436 173.241 192.885 173.088 193.924C179.701 198.857 189.27 202.108 197.467 202.809C182.504 204.795 168.914 211.491 160.293 224.255C160.516 225.025 160.557 226.105 160.205 226.829L159.86 227.011C159.862 226.522 159.953 226.354 159.728 226.025C159.122 226.13 159.496 226.518 158.941 226.601C156.299 230.137 153.37 237.793 152.464 242.079C151.867 241.938 152.057 242.102 151.789 241.677L151.834 241.499L151.871 241.646L151.506 242.187C151.214 242.23 150.982 242.276 150.704 242.382C150.351 241.655 149.398 238.158 148.99 237.038C147.467 232.871 145.528 229.061 143.18 225.289C142.857 225.462 143.029 225.413 142.644 225.366C141.344 224.589 140.862 222.203 139.918 221.009C133.204 213.176 124.269 207.539 114.281 204.838C110.895 203.941 109.022 203.841 105.848 203.219C124.185 201.329 140.353 189.803 147.719 172.913C148.981 170.021 149.795 167.328 150.68 164.303C151.047 164.461 151.36 164.363 151.769 164.303C152.282 163.94 152.121 164.129 152.27 163.346Z" fill="#0A2D41"/>
<path d="M151.4 58.1035C151.801 59.9263 152.198 61.7227 152.671 63.5176C157.055 80.1503 169.662 93.6732 186.137 98.9953C188.98 99.9137 191.452 100.402 194.364 101.052C194.926 101.112 195.854 101.159 196.332 101.381C195.956 101.626 195.595 101.612 195.14 101.659C175.867 103.964 158.282 119.073 153.08 137.761C152.448 140.032 151.75 142.83 151.58 145.164C150.904 142.001 150.239 138.801 149.174 135.744C145.433 125.165 138.305 116.099 128.883 109.937C124.438 107.05 119.579 104.85 114.47 103.411C113.44 103.123 109.154 102.339 108.585 102.029C107.896 102.04 107.491 102.075 106.805 101.928C107.154 101.677 108.009 101.577 108.471 101.491C109.511 101.12 113.423 100.448 114.935 100.005C121.838 97.9828 127.493 95.1122 133.063 90.6355C142.541 83.018 150.326 70.355 151.4 58.1035Z" fill="#0A2D41"/>
<path d="M50.2221 161.995C50.4804 162.291 51.7246 167.12 52.0307 168.074C53.5517 172.813 55.5443 176.988 58.3944 181.094C65.217 191.043 75.3292 198.298 86.9735 201.603C89.6624 202.366 92.7297 202.795 95.4999 203.301C88.2472 204.031 81.2367 206.3 74.942 209.957C65.1409 215.628 57.5484 224.419 53.3905 234.91C51.9156 238.611 51.3873 240.916 50.3777 244.634C50.1906 244.522 49.3727 241.031 49.2292 240.55C47.6927 235.384 45.0978 229.359 42.0248 224.951C35.0938 215.026 24.8538 207.863 13.1187 204.728C10.3483 203.974 7.77209 203.672 4.96875 203.163C27.2105 201.216 46.3154 183.872 50.2221 161.995Z" fill="#0A2D41"/>
<path d="M50.2979 60.0728C53.3849 74.3683 60.5104 85.8641 73.0087 93.9012C78.0913 97.1946 83.7384 99.533 89.6698 100.8C91.6634 101.233 93.9978 101.505 95.8808 101.979C92.9218 101.985 90.8617 102.444 88.0175 103.17C79.1841 105.406 71.1276 109.986 64.709 116.422C60.0998 121.025 56.5924 125.934 53.9341 131.92C52.9111 134.224 52.2244 136.648 51.335 138.954L51.5257 139.544C51.8103 139.483 51.6855 139.548 51.8986 139.345C51.8471 140.4 51.6634 141.711 51.2263 142.674L51.0259 142.796C50.9353 142.207 51.0422 142.179 50.6942 141.894C50.5567 142.41 50.5814 142.71 50.252 142.997C50.0563 142.618 49.9922 141.598 49.8629 141.058C48.3787 135.765 47.159 132.002 44.374 127.15C38.6354 117.231 29.7105 109.518 19.0331 105.25C16.4502 104.22 13.9371 103.54 11.2635 102.81L10.9249 103.26C10.2409 103.33 9.83605 103.035 9.13572 103.072L8.93372 103.432C8.37025 103.584 7.93195 103.083 7.41364 103.142C6.78007 103.214 5.80049 103.857 5.30469 103.175C5.8027 102.822 5.74209 102.932 6.44138 102.855L6.50411 102.727C6.24069 102.365 6.0371 102.16 5.9614 101.72C6.297 101.425 6.43402 101.534 7.02034 101.518C23.1805 99.6957 38.7807 88.297 45.7384 73.8269C47.6144 69.9254 49.7919 64.3645 50.2979 60.0728Z" fill="#0A2D41"/>
<path d="M11.2635 102.81L10.9249 103.26C10.2409 103.33 9.83605 103.035 9.13572 103.072L8.93372 103.432C8.37025 103.584 7.93195 103.083 7.41364 103.142C6.78007 103.214 5.80049 103.857 5.30469 103.175C5.8027 102.822 5.74209 102.932 6.44138 102.855L6.50411 102.727C6.24069 102.365 6.0371 102.16 5.9614 101.72C6.297 101.425 6.43402 101.534 7.02034 101.518C7.80264 101.575 7.87965 101.452 8.42049 101.829L8.42511 102.018L7.90134 102.195C8.97216 102.498 10.1043 102.531 11.2635 102.81Z" fill="#0A2D41"/>
<path d="M49.8594 141.058C50.1107 141.087 50.2858 141.132 50.525 141.204C51.1281 140.663 51.1483 139.828 51.3315 138.954L51.5222 139.544C51.8067 139.483 51.682 139.548 51.8951 139.345C51.8436 140.4 51.6598 141.711 51.2228 142.674L51.0224 142.796C50.9318 142.207 51.0387 142.179 50.6906 141.894C50.5531 142.409 50.5778 142.71 50.2485 142.997C50.0527 142.618 49.9886 141.598 49.8594 141.058Z" fill="#0A2D41"/>
</g>
<defs>
<clipPath id="clip0_6_547">
<rect width="124" height="350" fill="white"/>
</clipPath>
</defs>
</svg>
