<svg width="107" height="87" viewBox="0 0 107 87" fill="none" xmlns="http://www.w3.org/2000/svg">
<path d="M62.1826 78.6035C70.7508 74.1235 77.5437 68.9216 82.5244 62.9805C87.7241 56.7781 90.7166 49.268 91.5234 40.4932L91.624 39.4014H83.8906C79.0597 39.4013 75.2014 38.8296 72.2734 37.7305C69.3146 36.6197 66.9661 35.0897 65.1934 33.1592V33.1582C63.4708 31.2785 62.2867 29.2201 61.6221 26.9805L61.6182 26.9658L61.6133 26.9521C60.8571 24.6587 60.4785 22.2856 60.4785 19.8291C60.4785 14.8359 62.4047 10.462 66.335 6.66797L66.3418 6.66113C70.1887 2.87485 74.719 1 79.9805 1C88.4104 1.00005 94.7731 3.90859 99.2168 9.6582C103.698 15.4565 106 23.558 106 34.0811C106 43.7097 102.129 53.4936 94.25 63.4482C86.4798 73.1674 77.1956 80.5833 66.3936 85.71L62.1826 78.6035ZM2.7041 78.6035C11.2723 74.1235 18.0651 68.9216 23.0459 62.9805C28.2456 56.7781 31.2381 49.268 32.0449 40.4932L32.1455 39.4014H24.4121C19.5811 39.4013 15.7229 38.8296 12.7949 37.7305C9.83607 36.6197 7.48759 35.0898 5.71484 33.1592V33.1582C3.99229 31.2785 2.8082 29.2201 2.14355 26.9805L2.13965 26.9658L2.13477 26.9521C1.37855 24.6587 1 22.2856 1 19.8291C1 14.8359 2.92617 10.462 6.85645 6.66797H6.85742L6.86426 6.66113C10.711 2.87507 15.2407 1 20.502 1C28.9319 1.00003 35.2946 3.9086 39.7383 9.6582C44.2195 15.4565 46.5215 23.558 46.5215 34.0811C46.5215 43.7097 42.651 53.4936 34.7715 63.4482C27.0015 73.1672 17.7177 80.5833 6.91602 85.71L2.7041 78.6035Z" fill="#EDEDED" stroke="#EDEDED" stroke-width="2"/>
</svg>
