<svg width="281" height="245" viewBox="0 0 281 245" fill="none" xmlns="http://www.w3.org/2000/svg">
<path d="M111.188 21.2207C89.7828 32.2957 72.9489 45.1727 60.7207 59.8691C48.3206 74.7723 41.1634 92.8314 39.2305 114.013L39.1504 114.886H56.1523C68.0007 114.886 77.5902 116.297 84.9541 119.082C92.1121 121.79 97.9058 125.515 102.36 130.244L102.787 130.705C107.127 135.477 110.135 140.732 111.826 146.474L111.829 146.485L111.833 146.497C113.726 152.281 114.673 158.266 114.673 164.453C114.673 177.165 109.782 188.291 99.9414 197.862L99.9355 197.868C90.2903 207.433 78.8764 212.2 65.6553 212.2C44.7487 212.2 28.7783 204.904 17.625 190.363C6.44126 175.783 0.799805 155.547 0.799805 129.56C0.799874 105.513 10.4011 81.2075 29.7109 56.6299C49.0615 32.2428 72.2617 13.7149 99.3145 1.0332L111.188 21.2207ZM255.715 21.2207C234.309 32.2956 217.476 45.1728 205.248 59.8691C192.848 74.7724 185.69 92.8313 183.757 114.013L183.678 114.886H200.68C212.528 114.886 222.117 116.297 229.48 119.082C236.869 121.877 242.804 125.755 247.313 130.704V130.705C251.654 135.477 254.661 140.732 256.353 146.474L256.36 146.497C258.253 152.281 259.2 158.266 259.2 164.453C259.2 177.165 254.309 188.291 244.468 197.862L244.463 197.868C234.818 207.433 223.404 212.2 210.183 212.2C189.276 212.2 173.305 204.904 162.151 190.363C150.968 175.783 145.327 155.547 145.327 129.56C145.327 105.513 154.928 81.2076 174.238 56.6299C193.589 32.2428 216.789 13.7149 243.842 1.0332L255.715 21.2207Z" fill="#EDEDED" stroke="#EDEDED" stroke-width="1.6"/>
</svg>
