<svg width="448" height="363" viewBox="0 0 448 363" fill="none" xmlns="http://www.w3.org/2000/svg">
<g clip-path="url(#clip0_1736_33091)">
<path d="M183.371 357.352C186.604 343.445 176.937 312.625 179.854 306.669L182.011 306.853C182.839 305.523 183.374 304.531 184.097 303.16L186.623 302.85C192.548 295.325 180.43 289.978 179.008 282.441C182.218 281.762 180.746 284.153 184.97 283.362C187.655 278.387 183.488 264.026 181.89 258.336C179.497 249.817 177.489 246.273 172.662 239.235C175.595 240.872 178.185 242.786 181.406 242.794L181.969 241.779C179.416 236.829 170.477 229.868 169.525 225.281C167.423 215.151 159.233 166.002 161.04 158.906C175.759 152.965 179.448 155.696 190.509 138.16L192.327 139.718C193.378 140.936 193.482 140.842 194.977 141.517C197.404 139.759 197.273 138.752 198.606 135.734C200.414 135.638 201.713 136.112 203.461 136.568C206.829 134.137 211.13 130.391 214.428 127.688C215.081 121.171 214.403 110.914 214.915 103.032C218.508 112.725 217.379 117.752 218.128 127.856C220.936 128.376 226.9 133.26 227.116 136.307C228.894 136.589 230.961 135.845 232.836 135.386C234.948 134.137 235.452 133.906 237.756 133.077C242.024 128.502 246.413 127.191 247.135 121.186C247.234 120.353 247.318 119.517 247.382 118.685C249.352 118.574 248.725 118.605 250.725 119.214C252.733 119.296 251.808 119.574 253.482 118.089C254.12 116.124 254.437 114.142 255.975 112.936C260.826 114.135 262.847 114.228 267.899 114.488C269.587 110.783 270.698 107.578 272.043 103.751L276.947 103.874C278.75 102.606 279.633 94.8476 283.255 91.4497C285.2 91.8313 285.663 93.37 287.127 95.4227L288.536 95.3341C293.659 91.8203 301.117 81.8866 303.693 75.961C303.776 75.53 304.332 74.4027 304.536 73.9473C307.064 72.0603 307.906 72.0966 311.078 71.6465C313.373 66.4951 313.729 65.8061 314.836 60.4611C315.747 56.0495 313.908 47.7703 315.097 46.1052C324.59 55.9716 316.304 64.6002 317.281 74.9943C320.862 67.1293 322.131 62.6386 324.215 54.1883L327.848 53.9932C333.731 50.905 332.264 42.1315 331.224 36.5011C329.93 34.4012 328.33 32.0078 328.501 29.5483C330.66 31.9707 332.794 33.6243 335.277 35.6713L338.214 36.1427C337.328 28.9873 335.1 24.5727 331.944 18.0729C334.52 18.0633 335.587 19.0503 337.915 20.4215C339.398 23.2589 338.879 23.52 341.052 24.2134C344.029 20.2749 342.05 10.349 340.529 5.96224C341.022 2.20704 340.433 2.96372 343.999 0.735948L344.076 0.0111359C343.32 -2.32255 342.394 -5.50639 341.494 -7.70674L346 -7.97747C355.511 -8.40285 357.04 -8.74041 364.514 -2.86416C362.565 -13.9081 358.945 -24.3719 357.314 -34.7909L374.562 -26.7439C382.763 -13.3681 385.636 -8.15601 391.522 6.19927C392.104 -6.54707 391.684 -12.2355 387.688 -24.634C390.591 -24.3737 398.782 -22.9153 400.482 -23.8117L401.207 -25.3709C409.554 -24.8473 407.514 -18.9008 419.539 -20.5193C417.102 -37.9612 416.919 -49.3329 437.531 -36.1668C428.951 -95.2597 433.29 -85.4942 398.36 -133.265L398.915 -133.688C401.042 -133.899 402.16 -132.42 404.327 -130.835L414.414 -120.011C418.868 -130.036 419.268 -132.567 420.592 -143.387L422.96 -148.732C423.855 -151.364 424.81 -153.976 425.457 -156.669L424.664 -156.77C422.3 -158.663 422.092 -159.108 420.625 -161.782L420.597 -163.782C427.14 -172.779 425.512 -178.379 422.915 -188.951L422.738 -189.658L432.138 -188.672C439.807 -203.488 441.192 -206.747 440.992 -223.537L441.964 -223.796L446.084 -221.299C448.317 -223.78 451.892 -240.109 451.56 -243.917C451.363 -246.201 450.793 -248.536 450.157 -250.809C453.022 -251.074 452 -250.442 453.593 -252.294C464.702 -295.133 447.606 -300.327 423.96 -331.552C415.673 -342.502 408.469 -359.918 401.081 -371.894C397.736 -377.851 393.203 -383.553 389.869 -389.489C376.013 -414.172 360.288 -438.209 350.797 -465.013C347.25 -475.031 343.896 -481.604 346.904 -492.33C348.857 -499.291 351.331 -506.575 352.156 -513.72C352.751 -519.235 351.088 -532.715 352.378 -536.771C359.352 -558.728 374.256 -563.184 366.821 -589.737C391.815 -617.544 387.026 -647.4 379.935 -681.381C378.006 -690.613 374.915 -698.35 373.487 -707.933C373.168 -710.663 372.464 -715.398 372.517 -717.98C373.64 -721.923 374.81 -725.302 374.946 -729.415C374.605 -731.084 374.515 -730.927 374.597 -732.587C380.157 -737.446 389.304 -747.304 390.436 -755.265C390.64 -756.703 389.382 -758.516 388.622 -760.041C391.315 -761.509 392.739 -758.562 393.779 -760.642C388.738 -769.886 377.683 -767.149 368.915 -766.741C366.261 -766.616 357.072 -765.116 354.716 -763.894C327.667 -749.847 319.596 -775.213 292.974 -754.831C290.693 -736.424 280.401 -735.951 275.504 -718.862C273.038 -710.268 273.403 -702.607 273.529 -693.837C256.651 -686.659 254.019 -666.457 256.829 -650.246C257.465 -646.562 258.248 -643.179 258.081 -639.424C246.429 -627.435 231.118 -621.566 214.483 -620.513C212.957 -620.461 203.689 -620.213 202.844 -619.973C200.935 -620.057 196.35 -620.398 194.703 -620.044C192.424 -620.369 190.06 -620.756 187.776 -620.966C185 -627.644 183.174 -631.362 179.658 -637.69C176.513 -643.786 168.78 -652.404 168.516 -656.047C170.203 -658.557 170.727 -658.995 172.945 -661.115C170.655 -664.312 167.991 -664.709 165.659 -667.418L164.712 -670.161L162.599 -670.665L161.764 -672.713L157.957 -672.998C156.738 -680.086 155.338 -685.811 152.464 -692.401C150.664 -693.833 148.008 -696.114 146.068 -697.132C145.867 -700.561 147.706 -702.749 149.523 -706.087C148.512 -708.255 145.403 -714.031 144.926 -715.336C138.436 -733.135 140.272 -740.334 124.489 -752.287C114.475 -742.06 108.036 -740.078 95.056 -735.782C73.0766 -728.51 62.4429 -716.934 48.623 -699.354C45.8522 -695.838 34.3542 -690.863 30.4372 -687.931C23.6204 -683.42 15.4268 -676.635 9.74321 -670.749C14.9695 -672.925 23.907 -677.204 29.3687 -675.942C29.5908 -674.802 29.9358 -674.443 28.9623 -673.417C17.9174 -661.721 4.06468 -655.192 -5.65189 -641.325L-4.58954 -641.88C4.81725 -646.859 14.7186 -659.179 23.1169 -660.278L24.0113 -659.524C15.428 -650.295 19.2036 -652.387 13.4351 -641.276C5.20009 -636.705 0.920541 -634.65 -5.38253 -627.264C-2.15812 -626.472 -2.57314 -624.937 -2.2905 -622.292L-0.630124 -622.347C0.235509 -619.246 -5.37037 -617.064 -6.083 -607.804C-10.5558 -602.709 -16.8774 -595.852 -20.0349 -590.145L-19.5682 -589.704C-15.4269 -592.198 -11.6055 -595.981 -8.01066 -599.273C-5.09211 -599.15 -4.77902 -598.903 -2.45938 -597.091C-2.40872 -596.813 -2.36423 -596.54 -2.31974 -596.267C-8.5408 -588.277 -34.7181 -561.705 -34.3225 -552.416C-30.2029 -553.647 -23.8173 -564.968 -17.2467 -569.829L-16.3882 -569.533C-17.3722 -565.194 -21.1725 -560.411 -23.756 -556.564C-13.8973 -563.708 -5.7257 -572.605 5.15798 -579.974C5.54533 -574.676 5.31684 -572.159 4.82602 -566.821C-3.10299 -557.696 -16.8295 -542.301 -20.3769 -530.925L-19.735 -530.013C-15.0234 -531.775 -5.5381 -546.459 -1.92573 -551.435C0.0178275 -544.144 2.92018 -537.701 3.71833 -530.034C4.89228 -518.755 -3.00489 -516.118 -6.6095 -506.35C-9.19325 -499.352 -9.25899 -494.25 -9.82838 -486.833C-22.4421 -472.377 -32.7297 -465.706 -46.8625 -453.211C-54.9199 -446.085 -62.8453 -435.814 -69.3888 -427.309C-71.623 -425.32 -73.1947 -423.257 -75.7589 -422.683C-75.9476 -423.912 -75.9437 -423.716 -75.9062 -424.998C-71.7729 -430.896 -65.0508 -441.16 -60.8329 -446.419C-56.5416 -449.351 -54.5396 -451.656 -51.6464 -455.815C-48.0338 -460.054 -46.878 -461.106 -42.4403 -464.522C-51.4895 -481.315 -67.3041 -488.543 -77.9876 -505.536C-83.7466 -514.689 -125.083 -584.31 -129.685 -586.065L-130.938 -582.874C-138.359 -579.968 -160.202 -614.362 -162.097 -621.546C-168.232 -644.798 -175.784 -670.031 -179.477 -693.726C-182.574 -713.644 -165.213 -725.89 -167.296 -748.444C-165.726 -749.88 -162.465 -752.72 -161.363 -754.384C-151.825 -768.842 -160.008 -787.949 -168.471 -800.663C-169.827 -800.69 -169.82 -800.897 -170.969 -800.042C-171.681 -799.508 -172.241 -799.154 -173.108 -798.902L-176.203 -800.532C-177.442 -799.883 -177.9 -799.334 -178.672 -798.168C-179.303 -801.869 -180.921 -804.715 -182.714 -807.967C-190.286 -801.185 -195.384 -793.571 -202.187 -786.676C-216.631 -772.065 -229.263 -757.027 -243.644 -742.266C-253.472 -732.169 -257.267 -725.405 -269.275 -715.783C-267.26 -708.538 -266.576 -688.098 -264.481 -684.823C-254.469 -669.183 -246.669 -653.778 -240.025 -635.998C-235.933 -625.045 -230.453 -614.529 -227.043 -603.24C-224.78 -595.762 -227.585 -589.317 -227.646 -581.807C-227.65 -577.89 -221.325 -580.814 -220.934 -573.27C-219.546 -563.817 -226.758 -543.591 -223.771 -535.184C-220.834 -526.906 -212.901 -516.621 -209.055 -506.818C-211.722 -504.399 -213.073 -503.055 -215.454 -500.358L-215.274 -498.805L-213.791 -498.253C-211.818 -499.173 -210.498 -500.042 -208.361 -499.966C-207.338 -497.8 -207.769 -494.633 -207.871 -492.114C-215.126 -485.339 -222.482 -478.81 -221.641 -467.891C-219.35 -467.834 -215.303 -475.706 -210.322 -478.37C-204.176 -477.997 -205.517 -466.252 -205.412 -461.324C-216.709 -447.333 -220.62 -433.257 -219.189 -415.478C-215.065 -425.453 -208.967 -434.499 -204.019 -444.326C-199.423 -431.275 -193.633 -415.57 -191.414 -402.064C-203.663 -400.999 -210.465 -404.144 -221.187 -409.315C-213.024 -395.811 -204.599 -392.678 -188.967 -392.325C-186.909 -383.944 -186.514 -375.467 -184.621 -368.018C-180.935 -365.966 -180.155 -365.503 -179.97 -361.382C-191.038 -349.685 -198.597 -341.354 -215.099 -340.027C-213.302 -337.904 -210.926 -334.57 -208.574 -333.509L-207.024 -334.384C-205.998 -335.922 -204.435 -336.326 -202.675 -337.097L-201.744 -335.361C-171.08 -349.553 -173.195 -370.97 -144.822 -378.758C-141.423 -380.809 -136.705 -380.215 -133.005 -379.53L-134.41 -381.425C-132.164 -380.189 -132.951 -381.043 -131.821 -378.902C-128.116 -378.661 -124.805 -381.609 -121.157 -381.727L-121.568 -379.333C-152.064 -374.375 -159.363 -357.235 -179.383 -338.59C-179.965 -336.823 -180.9 -335.091 -181.731 -333.419L-182.01 -332.867L-181.294 -332.042C-152.464 -333.276 -142.158 -384.225 -93.4833 -371.144C-105.13 -369.971 -120.294 -368.547 -129.593 -360.944C-143.828 -349.317 -154.349 -339.31 -170.94 -330.39C-164.307 -331.598 -158.193 -334.938 -152.164 -335.327C-142.46 -334.252 -137.617 -337.93 -129.428 -342.572L-129.276 -340.263L-127.504 -339.047C-124.461 -338.732 -121.977 -339.524 -119.104 -340.422C-105.818 -344.551 -93.9381 -341.296 -82.5773 -333.646L-73.5557 -325.378C-76.6632 -326.155 -77.5162 -327.6 -79.7406 -328.294C-86.3096 -332.543 -93.2856 -335.483 -101.182 -335.472L-102.763 -334.635L-103.767 -332.523C-114.792 -336.704 -118.495 -333.034 -129.541 -330.738C-132.443 -330.132 -135.614 -329.884 -138.142 -329.29C-142.092 -330.958 -152.058 -328.838 -155.65 -326.462L-156.034 -325.412C-159.128 -327.556 -160.542 -327.952 -164.121 -326.74L-164.811 -325.258C-163.474 -322.085 -151.275 -313.452 -148.733 -309.463C-147.88 -308.135 -146.015 -306.391 -144.804 -305.282L-144.336 -304.817C-148.136 -305.385 -157.463 -315.59 -162.404 -317.56L-174.753 -325.329L-177.001 -325.425L-177.513 -324.164L-174.414 -320.35C-177.847 -320.572 -176.969 -322.599 -179.529 -322.63C-182.683 -322.666 -183.919 -322.933 -186.877 -324.211L-189.698 -324.936C-189.426 -323.442 -189.658 -323.908 -188.908 -322.647L-189.688 -320.772C-192.351 -320.207 -191.372 -320.278 -194.303 -321.587C-197.181 -324.646 -197.634 -325.066 -201.509 -326.584C-203.519 -326.721 -205.381 -326.668 -207.247 -327.323C-217.504 -329.437 -219.955 -330.496 -229.113 -335.622C-230.64 -337.024 -232.275 -338.699 -233.975 -339.811C-237.601 -342.921 -257.946 -358.988 -258.797 -360.655C-269.006 -380.629 -280.359 -396.614 -297.065 -412.188C-311.759 -425.891 -325.294 -427.133 -343.163 -434.184C-370.753 -446.277 -403.667 -485.521 -405.217 -516.462C-406.174 -535.608 -403.717 -540.045 -410.054 -560.297L-414.374 -555.243L-415.187 -554.293L-450.436 -513.057L-454.535 -508.262L-494.268 -461.782L-611.852 -324.229L-639.093 -292.362L-643.508 -287.197L-645.206 -285.211L-661.134 -266.578L-669.787 -256.456L-765.852 -144.077L-769.045 -140.342L-772.039 -136.839L-776.638 -131.46L-782.243 -124.902L-786.42 -120.016L-788.237 -117.891L-791.534 -114.034L-796.73 -107.956L-800.881 -103.1L-803.139 -100.458L-806.178 -96.9025L-820.134 -80.5773C-814.64 -75.9145 -809.206 -71.2823 -803.279 -67.1655C-791.271 -71.3734 -783.74 -80.6833 -775.764 -90.1016C-774.635 -91.4845 -773.482 -93.0954 -772.086 -94.2042C-770.403 -95.5479 -769.757 -95.0656 -767.786 -94.7585C-774.31 -80.7632 -787.173 -69.942 -799.561 -61.2377C-778.15 -65.9577 -769.327 -82.7928 -758.243 -100.059C-751.388 -110.741 -748.072 -122.958 -740.285 -133.206L-738.46 -133.603L-737.122 -132.268C-735.17 -134.677 -730.419 -136.434 -727.641 -138.12L-725.127 -137.161C-721.806 -141.634 -718.413 -145.565 -714.133 -149.147C-711.353 -152.187 -707.4 -152.798 -703.542 -153.448L-704.57 -150.895L-702.958 -151.281L-699.202 -151.336L-699.027 -149.942C-698.691 -147.859 -698.599 -147.717 -699.569 -145.869C-699.24 -143.354 -700.771 -141.338 -701.951 -139.207C-697.231 -144.253 -692.564 -147.988 -686.554 -151.431L-685.887 -150.598C-685.882 -148.366 -687.379 -146.99 -688.653 -145.212C-695.508 -139.331 -699.649 -130.911 -701.962 -122.405C-702.815 -119.295 -707.275 -109.889 -706.81 -107.47L-705.266 -108.988C-703.357 -111.584 -702.091 -113.253 -699.039 -114.272L-697.936 -113.662L-697.669 -111.475C-701.739 -106.439 -712.138 -94.0112 -715.238 -89.1593C-725.262 -73.4454 -726.944 -68.4391 -740.566 -54.9174C-686.963 -83.6062 -702.033 -112.645 -666.368 -144.703L-660.3 -148.464C-658.162 -149.365 -656.882 -150.199 -654.624 -149.828C-655.16 -148.263 -666.446 -138.898 -668.958 -135.748C-684.309 -116.478 -688.981 -91.6595 -704.567 -72.0641C-706.983 -69.0252 -709.969 -66.869 -712.433 -63.6743C-703.786 -59.6751 -688.011 -87.2939 -685.785 -93.8849C-683.981 -99.2463 -681.763 -104.416 -679.481 -109.611C-677.602 -111.134 -676.601 -111.605 -674.449 -112.76C-678.963 -102.192 -681.176 -89.7632 -687.207 -79.92C-684.331 -83.3219 -683.841 -83.6573 -679.987 -85.816C-669.179 -101.36 -662.998 -123.33 -654.217 -137.003C-647.57 -139.84 -650.873 -145.028 -641.637 -146.806C-643.727 -143.898 -647.361 -145.061 -650.391 -138.165L-649.519 -136.71C-654.885 -125.37 -656.821 -121.08 -659.435 -108.783C-653.01 -121.724 -646.564 -131.716 -635.012 -140.779C-634.24 -140.094 -634.167 -139.78 -633.59 -138.879C-634.385 -136.449 -635.703 -136.008 -637.954 -134.162L-637.554 -132.929C-645.823 -122.019 -651.048 -115.282 -656.703 -102.478C-634.03 -125.001 -628.791 -143.531 -592.496 -136.183C-601.941 -135.473 -615.075 -134.41 -622.706 -128.434C-636.025 -117.992 -650.377 -100.252 -660.528 -86.6894C-635.421 -106.433 -616.329 -127.98 -580.804 -129.195L-580.88 -126.219C-596.938 -125.236 -605.304 -120.3 -618.186 -110.781C-628.853 -102.903 -639.311 -96.2946 -648.854 -86.9436C-628.177 -96.1681 -593.965 -118.925 -571.329 -111.651L-569.889 -108.648C-590.245 -110.313 -603.912 -103.013 -622.448 -94.9693C-601.696 -95.4171 -599.3 -105.196 -575.681 -100.771C-581.439 -99.1618 -588.695 -98.7999 -595.385 -97.1119C-636.088 -86.8384 -667.475 -71.3115 -704.675 -52.485C-687.786 -56.1525 -663.117 -60.2573 -647.49 -67.2489C-611.02 -83.5718 -592.694 -105.222 -550.032 -90.4339C-561.014 -91.6016 -565.801 -91.9516 -576.693 -90.6116L-577.29 -88.2001C-580.187 -88.2241 -582.27 -87.9258 -584.751 -89.3111C-587.815 -89.8146 -586.736 -90.09 -589.075 -88.6911C-590.007 -86.7511 -590.805 -85.0676 -591.604 -83.07L-594.287 -80.9432C-612.254 -77.0401 -621.796 -72.8909 -638.059 -64.2555C-643.052 -61.6025 -649.972 -60.8585 -653.886 -55.8665L-653.629 -54.5549C-639.51 -49.0931 -593.065 -75.8478 -575.035 -76.0995C-569.183 -76.182 -536.328 -78.7364 -535.583 -69.3064C-538.859 -68.0499 -544.118 -69.5106 -548.026 -69.5152C-555.041 -69.5216 -562.211 -68.9475 -569.209 -68.475L-569.028 -66.2746C-559.897 -65.7793 -553.726 -64.8978 -544.976 -62.8067C-543.836 -62.1773 -542.885 -61.577 -541.785 -60.8893L-541.637 -58.9487C-564.936 -65.7348 -594.459 -62.4283 -616.943 -53.7783L-616.302 -52.2644C-594.985 -57.0617 -571.622 -60.5642 -550.873 -53.0333C-550.313 -52.1007 -549.805 -50.6191 -549.397 -49.5715C-565.918 -54.8229 -605.309 -49.1219 -622.723 -45.2413C-599.853 -40.9278 -567.205 -42.9288 -544.737 -33.2942C-538.05 -30.4289 -525.562 -19.4091 -523.304 -13.0996C-527.839 -15.0072 -535.928 -21.7213 -540.534 -24.8843C-551.53 -32.4362 -578.427 -34.4635 -591.625 -34.5143L-592.78 -34.5136C-578.392 -27.5285 -564.337 -30.4561 -549.942 -23.2183C-548.334 -22.4606 -547.188 -22.1133 -546.088 -20.7258L-547.426 -19.5974C-559.966 -24.1312 -570.342 -23.257 -582.87 -25.9785C-590.892 -27.9835 -598.18 -32.1342 -606.032 -34.6621C-616.786 -38.1221 -628.288 -38.9312 -639.472 -39.9368C-630.332 -34.5642 -607.176 -23.4478 -597.433 -21.3564C-578.941 -17.3847 -550.468 -17.9773 -533.99 -7.49952C-533.861 -5.98723 -533.813 -4.50608 -533.756 -2.99741C-542.731 -6.27531 -580.102 -15.352 -586.201 -12.7309C-585.054 -10.3839 -581.455 -8.26912 -579.125 -7.63176C-558.132 -1.90993 -546.736 -5.36511 -527.07 5.39567C-539.761 2.48932 -552.691 1.5888 -565.594 -0.319554C-575.224 -1.74294 -582.655 -4.12695 -591.863 -6.45642C-592.98 -6.47594 -594.669 -6.5625 -595.729 -6.48441C-648.074 -41.7635 -677.297 -49.895 -738.894 -39.6587C-712.777 -33.4805 -694.033 -43.0566 -668.457 -35.0956C-674.902 -34.6951 -682.105 -35.4823 -688.903 -35.0052C-700.47 -34.2006 -712.403 -32.4804 -723.955 -33.0565C-738.12 -33.7628 -747.02 -37.4158 -761.431 -35.8468C-757.579 -33.5397 -749.806 -28.6055 -745.831 -28.1805C-700.715 -23.401 -673.53 -40.8131 -629.798 -17.4118C-639.46 -18.861 -655.371 -25.3256 -664.117 -24.5584C-672.578 -23.8111 -733.022 -23.2249 -737.009 -19.1729C-733.749 -16.3105 -727.127 -16.1317 -722.921 -15.3883C-677.818 -7.43004 -636.873 -27.1131 -597.253 3.87418C-600.62 2.79988 -605.275 0.781738 -608.604 -0.561597C-636.383 -11.7588 -664.661 -7.46995 -693.689 -6.76617C-704.202 -6.50682 -715.548 -8.67426 -726.485 -8.09386C-700.237 -1.74391 -674.062 0.739905 -647.263 2.00582C-626.123 3.00463 -605.911 6.05147 -586.13 13.7523C-564.432 22.1988 -543.849 32.6496 -533.435 54.4224C-538.728 49.35 -546.201 42.0642 -552.242 38.0807C-575.029 23.0561 -602.564 13.6129 -629.637 10.7412C-647.3 8.86363 -664.06 8.61645 -681.504 5.72021C-660.407 14.8696 -633.403 14.0961 -611.177 19C-594.293 22.7268 -573.559 30.1384 -559.634 40.3021L-560.549 43.4227C-571.456 38.5041 -601.097 25.0975 -612.554 26.9989C-607.628 33.0381 -592.974 33.8728 -589.928 38.1855L-589.096 41.6756C-579.191 41.9152 -575.662 42.5996 -566.256 45.735C-564.867 47.2233 -564.648 47.5547 -563.568 49.1794L-564.174 51.3889C-570.69 48.6226 -579.603 46.1094 -586.497 44.5106C-581.1 48.1481 -574.215 49.9458 -567.859 54.0861C-563.098 58.8688 -560.705 58.9075 -555.801 62.7965C-555.062 63.3822 -555.5 64.1819 -555.698 65.4639L-553.85 69.4651C-556.53 70.0743 -556.915 70.3504 -559.392 69.4855L-562.599 62.3347C-573.341 57.3987 -580.35 54.134 -591.791 50.8163C-610.859 45.2814 -627.195 46.3519 -646.596 45.6563C-655.965 45.315 -667.232 43.7567 -676.661 42.4725C-664.399 48.4558 -652.265 52.7009 -638.537 53.7196C-608.441 55.9541 -593.334 50.6958 -566.937 69.2472C-576.232 66.1821 -585.02 62.6109 -594.768 61.2991C-614.776 58.6143 -629.057 60.9685 -649.657 57.7891C-638.407 65.4438 -626.602 69.5481 -613.036 70.9555C-592.965 73.0422 -560.486 71.8649 -546.824 88.9867C-550.464 88.357 -552.253 87.3739 -555.546 85.863C-568.868 81.8827 -579.901 79.7877 -593.926 79.4553C-583.693 84.3612 -569.328 92.8593 -559.625 98.9863L-561.164 101.337C-567.31 98.088 -573.618 95.4655 -579.682 92.3702C-595.922 84.0776 -602.252 76.8426 -621.356 76.5629C-614.415 82.233 -608.592 87.1096 -602.059 93.2188L-605.897 91.2079C-596.102 99.927 -585.364 109.281 -574.134 115.972C-569.977 118.447 -565.293 120.032 -564.027 123.676C-582.306 118.631 -600.085 99.8609 -614.676 89.5022C-630.586 78.2094 -648.123 67.4703 -664.587 56.977C-670.571 53.1629 -676.113 47.9949 -681.881 44.0654C-674.245 53.848 -665.567 66.2122 -656.223 74.0956C-642.507 85.6665 -613.109 97.0197 -603.435 111.418C-620.641 98.7049 -632.156 93.3102 -650.918 84.0922C-666.528 76.4243 -681.17 56.8366 -691.932 42.8471C-682.057 65.1992 -675.696 86.3992 -650.879 94.9976C-640.399 98.6276 -630.344 102.429 -620.527 107.648C-631.626 105.817 -651.696 99.0039 -658.665 98.4052C-649.066 104.429 -630.333 112.293 -619.273 114.357C-613.534 116.956 -614.416 120.964 -609.595 123.325C-603.35 126.384 -598.095 128.65 -591.209 129.708C-592.603 131.352 -593.223 131.738 -594.903 132.992L-597.463 129.836L-598.763 130.269C-607.77 129.879 -621.804 125.231 -630.918 122.467C-611.65 136.768 -609.058 134.299 -592.505 153.69C-607.586 142.903 -618.917 136.218 -634.647 127.103C-644.632 121.319 -662.459 105.844 -671.068 97.8754C-663.579 115.805 -657.119 119.837 -642.435 132.626C-641.081 135.917 -635.994 138.43 -632.7 143.941C-629.673 144.238 -627.65 145.334 -624.844 146.527L-619.871 151.786L-616.599 154.196C-613.532 156.884 -612.754 157.075 -611.44 160.763L-612.318 161.341C-618.972 158.898 -618.674 157.061 -623.058 155.102L-625.599 153.398C-628.715 152.169 -629.868 151.392 -633.159 152.278C-639.743 145.492 -647.812 138.428 -654.865 131.99C-651.205 139.36 -649.595 141.489 -645.11 148.106C-643.818 150.496 -643.12 151.779 -641.494 153.954C-640.478 157.04 -639.545 161.375 -638.76 164.619C-643.772 162.681 -638.7 161.912 -644.563 160.519C-647.706 155.195 -652.537 146.544 -656.024 141.846C-653.635 150.603 -649.589 156.935 -647.66 163.804C-645.935 168.275 -640.701 177.854 -643.083 181.753C-643.951 184.043 -644.478 186.335 -646.368 187.784L-648.358 187.437C-649.302 186.053 -649.335 185.891 -650.483 184.671C-652.278 180.033 -656.956 169.016 -660.384 165.325C-664.169 164.689 -668.428 159.845 -673.016 157.024L-675.116 155.342L-679.934 153.716C-680.803 152.407 -681.441 151.703 -681.694 150.136L-683.294 148.67L-685.35 149.5L-688.364 147.238C-690.423 144.533 -693.03 140.894 -695.18 138.384C-696.291 135.545 -701.603 132.296 -704.385 130.149L-709.291 120.749C-706.908 141.815 -701.432 155.749 -690.1 173.421C-689.338 176.368 -689.114 177.48 -687.703 180.155C-689.822 178.284 -691.058 176.867 -693.731 175.969C-697.475 170.185 -702.754 161.108 -706.655 155.996C-705.75 160.088 -704.662 166.153 -702.907 169.738L-702.064 169.727C-695.252 178.598 -695.93 194.993 -682.858 200.054L-681.068 198.285L-680.323 198.389C-680.938 200.57 -682.516 205.104 -682.181 207.076L-680.466 206.456L-679.378 207.497C-676.074 206.657 -667.003 211.172 -661.555 206.7C-658.805 204.445 -654.404 208.149 -651.105 209.702C-646.7 211.775 -642.621 212.454 -637.741 213.409C-640.266 216.162 -642.428 218.117 -643.963 221.513L-643.439 222.712C-638.683 222.473 -630.645 216.397 -627.442 216.35C-614.164 216.156 -599.101 216.125 -585.9 216.134C-592.796 220.513 -608.263 225.08 -610.202 230.024C-603.418 235.165 -570.206 216.903 -562.708 213.794C-556.243 211.119 -541.634 208.649 -534.511 208.543L-535.037 208.946C-547.173 218.05 -562.086 225.407 -576.191 230.905C-562.35 230.339 -540.298 222.095 -529.522 213.23C-511.688 198.56 -499.762 195.974 -476.809 192.212C-480.57 203.427 -500.742 237.602 -507.656 248.888C-515.786 252.802 -522.834 257.884 -528.59 264.867L-528.464 265.745C-526.411 265.597 -526.966 265.447 -525.066 265.929C-534.007 276.018 -543.194 285.826 -551.176 296.68C-553.207 299.44 -556.201 302.24 -558.72 304.556C-556.087 306.505 -553.655 307.49 -553.585 310.867C-557.97 317.446 -569.799 316.709 -572.711 330.163C-570.522 332.038 -556.216 313.008 -549.962 319.849C-548.947 328.425 -560.239 340.443 -563.63 348.49C-561.93 350.455 -562.021 350.361 -559.679 351.516C-556.323 348.056 -547.645 328.582 -541.92 321.295C-540.797 328.519 -541.293 340.047 -538.875 346.245C-536.332 337.927 -536.413 334.505 -536.619 325.689L-532.431 324.773C-526.269 318.889 -531.886 306.537 -529.254 302.638C-526.545 304.057 -526.253 305.536 -524.381 308.411C-518.807 299.189 -515.264 292.856 -511.469 282.561C-509.489 277.187 -509.285 269.562 -507.775 267.143C-505.703 266.734 -506.271 266.905 -503.958 267.8C-502.671 264.088 -504.439 256.011 -503.271 253.385C-494.734 234.188 -480.798 212.104 -470.805 193.157C-470.499 192.576 -467.614 192.576 -466.563 192.556L-465.942 191.266C-464.58 191.152 -464.318 191.144 -463.011 191.364L-461.978 191.545L-461.732 190.378L-456.629 192.512L-455.939 194.156L-446.616 195.564C-449.559 196.361 -454.701 197.321 -456.08 200.2C-450.148 204.542 -431.802 198.947 -424.379 198.398C-419.686 198.051 -416.344 198.11 -411.651 198.254C-424.711 204.384 -456.837 207.231 -462.68 215.613L-462.116 216.295C-453.67 216.254 -413.892 209.272 -405.6 206.827L-402.684 209.856C-399.649 208.33 -396.593 206.845 -393.519 205.398C-390.936 206.491 -391.687 205.599 -390.792 207.783L-392.729 211.795C-382.528 207.562 -367.332 196.081 -355.369 198.561C-352.219 201.068 -353.322 202.02 -353.958 205.63C-351.764 204.124 -351.259 203.448 -348.765 203.533C-347.17 208.199 -360.807 220.769 -355.707 226.07L-354.227 225.442C-347.007 213.723 -333.984 206.467 -319.961 206.341C-313.037 206.279 -308.142 207.444 -300.78 206.878C-306.526 213.172 -319.398 232.027 -313.381 240.225C-311.659 239.462 -306.462 228.943 -304.238 226.4C-292.846 213.373 -280.34 205.093 -262.498 206.834C-267.916 208.739 -278.637 211.652 -281.432 216.971L-280.394 217.857C-272.713 218.322 -261.754 213.786 -253.752 211.599C-243.096 215.144 -239.413 216.545 -228.358 215.063C-228.79 224.768 -231.98 241.119 -236.39 249.953C-238.357 253.894 -250.042 261.95 -249.352 266.509L-247.275 266.577C-245.408 269.538 -262.73 302.152 -262.03 305.739C-259.854 305.174 -258.428 304.327 -256.867 305.188C-257.186 307.753 -261.304 312.404 -263.23 315.498C-261.015 313.137 -257.46 308.45 -254.986 307.753C-253.168 309.488 -253.739 308.866 -253.35 312.003L-252.009 312.412C-249.445 319.991 -258.422 340.912 -256.471 349.462L-255.156 350.233C-251.847 348.024 -249.486 316.402 -245.095 313.086L-243.664 314.364L-241.796 313.563C-239.222 314.102 -239.434 314.828 -237.514 317.443C-235.354 301.823 -238.246 307.105 -238.976 295.549C-234.836 296.157 -236.594 299.245 -233.608 297.366C-228.642 282.201 -230.706 278.435 -230.191 264.71C-228.553 264.969 -228.499 265.531 -227.026 266.937C-225.997 261.265 -230.979 253.528 -230.556 249.79C-229.07 236.636 -225.063 225.862 -223.447 212.325L-218.072 211.904L-214.381 212.453C-206.871 213.124 -201.006 211.015 -193.891 208.912L-191.05 211.04C-180.932 211.308 -176.401 212 -166.61 209.195C-166.479 235.025 -166.775 260.854 -167.497 286.674C-180.889 298.883 -177.48 305.97 -180.179 322.64C-181.025 327.875 -184.854 338.759 -183.841 342.925C-181.729 351.615 -187.658 354.308 -187.636 361.004L-186.746 361.602C-184.871 361.074 -183.205 360.64 -181.306 360.201C-181.656 365.835 -191.606 380.014 -189.732 388.436C-187.716 390.541 -188.496 390.303 -186.018 391.009C-183.768 384.625 -181.582 365.996 -171.148 368.049C-169.897 379.551 -172.871 407.843 -170.034 415.367L-168.626 415.993C-163.317 411.308 -169.038 377.439 -164.922 370.151L-163.408 369.852C-158.369 373.019 -153.227 385.181 -147.936 391.799C-148.715 387.206 -157.768 364.596 -157.409 363.745L-153.273 365.926C-151.538 359.564 -160.104 348.844 -162.345 344.646L-161.806 344.263C-159.062 345.696 -157.389 347.022 -154.57 345.751C-151.932 339.804 -154.986 316.226 -156.046 308.705L-153.93 306.026C-148.644 299.876 -162.977 291.104 -162.648 284.736C-161.409 260.735 -162.938 234.601 -161.116 210.8C-154.197 210.552 -148.645 209.847 -142.011 207.637L-140.8 209.801L-139.507 211.047C-135.79 211.309 -127.925 208.94 -123.428 208.095C-126.873 216.033 -127.429 218.504 -127.694 227.178C-112.123 207.849 -101.442 202.403 -76.9315 195.255C-74.7073 194.606 -61.5867 194.661 -59.8497 195.824C-62.1606 197.459 -64.8651 198.96 -65.6433 201.425C-66.7944 205.073 -70.3045 210.345 -68.801 213.985C-64.7088 213.277 -56.9697 201.623 -52.5695 199.3C-40.6161 192.989 -25.6751 187.973 -12.9218 183.448L-12.3851 186.996C-12.9364 189.788 -15.2375 192.018 -17.1283 194.33L-14.0936 194.129C-12.5565 198.218 -13.4031 203.345 -13.7732 207.799C-10.2311 204.341 -6.60179 200.182 -3.23699 196.49C4.53345 194.439 11.6177 192.811 18.9809 189.557C16.4921 192.931 14.2378 195.669 13.4414 199.895L14.5684 200.611C20.2587 198.66 31.2151 185.206 35.3048 180.499C43.6928 180.876 48.0788 181.327 56.1255 179.206C60.9335 174.155 62.4976 171.664 68.8759 169.042L69.9138 169.672C68.7328 175.133 62.1506 179.757 58.0671 183.303C64.4487 180.891 67.444 179.14 73.2711 175.806C77.4695 182.405 83.4547 189.867 82.7333 198.605C81.6057 212.277 92.928 227.92 97.0765 241.04C98.9404 246.935 98.9 246.186 99.1018 252.707L105.954 249.477C105.839 256.517 105.587 267.754 111.83 272.262C113.267 268.523 107.767 255.876 113.136 251.046C115.873 252.167 131.236 278.264 136.247 284.225C131.096 268.725 123.116 260.137 117.462 245.407C124.946 249.933 131.869 254.303 140.372 256.654C136.84 253.286 132.779 250.756 129.604 247.725C124.294 242.652 118.612 236.218 113.668 230.703C114.616 229.663 115.43 228.875 116.437 227.903C116.538 221.128 98.0473 205.538 97.1301 200.293L100.291 200.177L100.597 199.23C94.874 195.023 78.8658 186.232 79.2944 177.771C80.9966 175.507 81.315 176.056 84.6357 175.3C85.9433 176.365 86.6152 177.218 87.701 178.473C87.7368 181.752 87.2388 180.655 89.2771 182.669L91.1705 182.457C98.0469 178.264 111.071 161.269 115.782 154.239L117.994 152.44C122.301 152.051 118.081 152.603 121.544 154.94C126.767 152.69 121.35 149.921 130.799 149.406L132.118 149.666C136.151 146.487 135.129 146.261 139.596 147.926L141.422 147.605C143.884 148.01 144.822 148.048 147.329 148.082C149.976 148.323 150.237 148.259 152.555 149.427C155.398 156.289 163.833 218.268 164.266 227.525C154.142 242.708 157.269 242.045 159.363 257.342C161.243 271.074 153.54 274.781 159.452 291.702C156.917 296.346 156.138 298.401 154.388 303.441L163.582 303.126C159.356 314.375 157.124 322.255 158.685 334.154C161.177 328.339 165.824 308.628 172.694 308.136C175.519 311.09 175.554 317.026 176.106 321.031C177.832 333.557 178.449 345.552 183.371 357.352Z" fill="#1A1917"/>
<path d="M-72.2489 -1.88159L-72.1504 -4.52959C-89.272 -6.49948 -111.089 0.853863 -130.122 2.65652C-138.614 -0.588765 -140.719 3.76733 -145.853 1.26015C-154.442 1.57393 -161.337 1.79424 -169.171 -2.04381C-190.736 -12.6104 -215.583 -40.5554 -223.535 -62.9664C-214.285 -53.0735 -207.581 -41.1672 -198.078 -31.3471C-182.89 -15.6528 -166.102 -3.65333 -143.749 -3.31305L-155.305 -7.15399C-159.378 -8.52631 -163.59 -10.3733 -167.55 -11.8282C-172.898 -13.7946 -197.457 -32.1956 -195.262 -37.7527C-192.196 -36.2281 -179.166 -25.6445 -175.511 -22.7391C-156.247 -7.42438 -141.306 -12.335 -118.674 -15.8139L-118.77 -18.2544C-124.366 -17.1764 -129.444 -17.066 -135.106 -17.1804C-117.239 -26.4432 -105.784 -24.2941 -87.6645 -25.3534C-102.208 -29.4077 -114.468 -29.4914 -128.355 -23.1884C-148.488 -14.0502 -153.827 -17.0736 -171.864 -28.4101C-148.922 -27.989 -133.665 -31.7395 -111.319 -36.1684C-104.055 -37.6085 -86.7725 -36.6482 -78.9571 -36.5296C-79.1519 -37.7182 -79.7691 -39.6941 -78.8305 -40.7107C-71.9278 -41.8261 -67.061 -42.0673 -60.1264 -42.4111L-57.6929 -43.629C-58.7899 -45.4298 -59.9623 -45.4034 -62.0306 -46.7144C-74.6539 -45.059 -82.9841 -42.2427 -95.1045 -39.5166C-101.282 -38.1272 -115.657 -41.1884 -121.994 -40.6073C-151.842 -37.8692 -171.476 -31.4343 -197.671 -51.5191C-212.705 -63.0472 -231.328 -90.0161 -236.886 -108.512C-232.497 -101.926 -228.355 -93.9723 -223.25 -87.9718C-208.182 -70.258 -188.026 -56.329 -165.216 -51.3692C-159.351 -50.0935 -106.534 -46.8826 -105.158 -47.6407C-109.737 -52.0235 -157.425 -55.1078 -170.911 -61.3619C-192.848 -71.5338 -201.43 -77.474 -219.945 -95.2991C-209.508 -90.0697 -194.965 -81.7951 -185.049 -77.2929C-156.803 -64.4687 -109.638 -56.8244 -78.3018 -56.8575L-79.7625 -59.8268C-109.46 -61.1346 -155.498 -68.4578 -180.857 -85.4664C-157.165 -78.4022 -135.79 -74.3991 -110.9 -72.3063C-93.8692 -70.8742 -76.2507 -72.4623 -58.8689 -69.408C-52.5172 -68.2923 -29.6528 -59.0198 -27.9779 -59.8278C-33.8053 -67.5552 -49.9517 -72.0985 -59.2894 -74.138C-67.6766 -75.9705 -81.751 -74.8091 -90.4975 -76.0238C-118.975 -79.9777 -158.621 -85.9153 -184.905 -95.9135C-200.406 -101.811 -231.332 -124.009 -240.347 -137.714C-242.317 -140.71 -245.209 -144.409 -247.353 -147.477C-240.358 -143.833 -229.748 -132.44 -221.056 -126.885C-220.627 -126.529 -220.191 -126.181 -219.749 -125.842C-207.881 -116.65 -174.584 -99.7203 -159.965 -94.828C-149.009 -91.1609 -130.038 -89.1048 -118.286 -89.0363C-112.619 -88.328 -103.157 -89.6349 -97.8369 -88.0781C-82.5395 -83.5993 -66.9311 -81.1606 -51.4633 -77.6449C-45.9159 -76.3846 -30.4102 -69.7615 -26.6604 -70.2527L-26.9657 -71.7269L-24.9402 -71.5549C-24.1721 -74.7401 -28.8911 -78.0745 -31.2629 -80.0731C-35.2932 -82.9693 -53.3621 -86.8875 -58.8654 -87.9969C-57.81 -89.3578 -56.7405 -90.709 -55.6586 -92.0496C-52.1992 -93.3486 -52.3631 -92.7218 -48.2023 -91.941C-39.3139 -91.9838 -24.4665 -85.5933 -19.025 -86.1219L-19.3594 -87.1234C-18.0432 -95.8778 -18.1049 -92.8439 -23.9156 -98.4518L-29.0602 -100.948L-30.6794 -105.056C-54.57 -111.679 -62.3171 -108.935 -84.8277 -108.96C-86.1504 -111.375 -85.8368 -110.361 -85.4324 -113.476L-85.0747 -114.488C-86.3109 -117.172 -85.9625 -116.345 -89.0561 -118.133C-105.513 -110.202 -133.323 -103.539 -151.526 -104.871C-177.178 -106.747 -218.623 -133.808 -235.179 -152.717C-219.315 -146.599 -204.536 -136.639 -189.309 -129.616C-158.342 -115.335 -119.6 -114.234 -87.5338 -124.395C-99.667 -125.637 -110.065 -120.237 -121.282 -120.247C-143.172 -120.265 -168.539 -123.898 -187.824 -134.578C-199.78 -141.199 -211.286 -147.712 -222.951 -154.406C-206.303 -150.897 -196.278 -143.632 -180.29 -138.589C-164.847 -134.659 -138.491 -127.636 -122.725 -128.684C-105.815 -129.809 -83.6655 -129.641 -67.254 -131.504C-90.2283 -138.188 -107.464 -129.481 -127.419 -134.001C-103.172 -135.799 -77.9781 -144.784 -53.1197 -141.723C-42.4553 -140.414 -31.7544 -137.483 -21.4839 -134.428C-17.1129 -133.127 -13.4964 -128.935 -9.2978 -131.156C-10.3322 -134.455 -13.8235 -135.88 -16.7184 -137.19C-16.3277 -139.996 -15.3735 -142.075 -17.8951 -144.177C-19.7798 -145.233 -26.6006 -148.895 -27.8269 -150.04C-28.9945 -153.537 -32.2426 -155.224 -34.932 -158.004C-45.4076 -165.752 -83.0901 -177.479 -96.1036 -179.353C-105.327 -180.637 -114.686 -180.638 -123.909 -179.368C-166.227 -173.146 -211.388 -152.332 -252.505 -177.242C-263.404 -183.845 -267.491 -183.678 -275.058 -195.478L-275.04 -196.936C-266.833 -199.086 -241.937 -180.667 -234.81 -178.178C-217.674 -172.189 -191.577 -170.537 -174.034 -174.63L-175.132 -174.768C-188.973 -176.43 -217.751 -173.772 -229.604 -182.592C-244.653 -193.791 -250.529 -197.856 -267.689 -205.436C-257.594 -204.243 -250.862 -203.405 -240.609 -203.81C-224.781 -188.647 -218.364 -180.302 -194.848 -181.04C-176.041 -181.63 -157.232 -185.859 -138.578 -188.533C-129.995 -189.762 -121.953 -190.321 -113.424 -191.5C-126.68 -195.494 -129.759 -193.918 -143.632 -192.715C-174.043 -190.087 -195.929 -183.435 -224.06 -199.554L-222.957 -199.495C-210.294 -198.705 -199.994 -194.454 -186.506 -194.452C-161.894 -194.448 -137.05 -200.578 -112.853 -198.371C-131.25 -205.093 -158.916 -196.936 -179.584 -198.163C-193.412 -198.985 -202.837 -200.591 -216.163 -204.242C-188.831 -206.461 -156.893 -211.175 -130.102 -209.677C-109.013 -208.492 -77.1237 -185.302 -56.8746 -176.046C-54.7569 -175.506 -52.1555 -174.286 -50.0968 -173.413L-49.6246 -174.259L-51.3015 -177.231C-64.299 -182.178 -89.5061 -198.119 -103.441 -205.117C-82.8987 -202.372 -51.1491 -185.196 -33.2576 -174.943C-35.0568 -180.102 -49.8582 -186.56 -54.7641 -190.358C-106.393 -213.559 -131.505 -223.201 -189.994 -216.577C-208.205 -214.513 -235.249 -212.931 -253.132 -214.901C-239.191 -217.121 -229.461 -222.603 -214.424 -224.091C-201.734 -225.346 -190.408 -222.532 -178.718 -224.117C-204.735 -231.9 -228.311 -228.373 -253.514 -220.005C-257.019 -218.843 -267.181 -214.881 -269.673 -217.816L-269.264 -219.083C-258.796 -223.477 -247.959 -230.779 -237.21 -233.652C-198.352 -244.03 -158.8 -231.442 -120.15 -226.536C-100.653 -224.064 -65.8087 -204.873 -49.1065 -194.633L-48.5805 -194.536C-45.4444 -193.916 -43.3361 -192.851 -40.3588 -191.737C-43.0727 -194.997 -49.3633 -199.947 -53.0003 -202.148C-68.0891 -211.479 -82.9702 -217.375 -99.0632 -224.179C-77.5313 -223.289 -62.0618 -213.013 -44.2018 -202.808C-41.4118 -202.26 -36.1411 -197.894 -32.8526 -196.257C-37.0857 -199.844 -43.6336 -204.704 -46.533 -208.977C-55.6172 -213.934 -65.6434 -219.567 -75.2609 -223.431C-82.8934 -226.495 -92.9897 -227.382 -100.601 -229.488C-118.476 -234.429 -145.934 -238.409 -162.464 -244.294C-117.852 -242.28 -109.402 -238.923 -68.1319 -225.422C-63.2489 -225.338 -59.8593 -222.313 -56.5069 -222.737C-59.4281 -225.255 -66.453 -225.621 -70.135 -229.356C-63.302 -227.274 -55.7516 -224.75 -48.8229 -223.271C-65.8497 -234.205 -96.0978 -241.424 -115.264 -246.657C-112.984 -249.494 -114.222 -249.27 -113.257 -250.827C-105.302 -253.138 -84.5363 -247.028 -76.4642 -244.176C-74.0303 -244.018 -73.1422 -243.44 -70.5389 -243.597L-70.7852 -245.399L-70.8474 -246.381L-73.0158 -248.416C-74.1821 -251.165 -74.5658 -251.525 -76.6042 -253.737C-89.6193 -259.159 -109.674 -268.581 -123.281 -271.625C-125.684 -273.423 -124.389 -274.623 -126.681 -277.266C-115.422 -277.232 -109.847 -276.6 -98.993 -274.093L-98.4229 -277.227C-103.106 -287.521 -140.376 -283.622 -150.28 -281.087C-155.379 -279.774 -169.209 -273.909 -173.384 -275.801L-174.57 -280.052C-177.402 -278.713 -177.073 -278.336 -179.751 -278.542C-179.453 -280.178 -179.348 -280.601 -178.797 -282.17C-185.521 -279.843 -191.322 -271.868 -197.308 -267.917C-206.179 -262.064 -217.571 -258.152 -226.47 -252.729C-252.548 -236.85 -268.069 -219.618 -298.583 -239.191C-270.379 -238.619 -253.875 -245.499 -229.692 -259.937C-213.384 -269.675 -214.935 -272.849 -195.027 -276.648C-212.42 -279.329 -217.651 -273.91 -232.207 -266.434C-258.118 -253.111 -280.72 -241.249 -310.188 -251.894C-281.583 -255.091 -275.465 -259.985 -250.295 -273.127C-243.301 -276.783 -224.773 -282.53 -216.611 -285.603C-199.38 -292.096 -178.04 -291.157 -161.449 -294.138C-176.363 -297.082 -191.711 -297.054 -206.612 -294.038C-226.897 -290.06 -246.767 -281.743 -266.129 -274.669C-274.335 -271.671 -303.309 -259.342 -310.278 -263.241L-309.257 -264.36L-311.453 -267.104C-318.29 -265.695 -320.288 -264.382 -326.476 -266.745L-327.47 -268.095C-324.733 -270.708 -298.754 -271.446 -294.475 -280.727L-295.089 -281.784C-297.994 -281.874 -302.942 -278.636 -307.231 -277.518C-328.343 -271.987 -341.561 -279.202 -358.952 -289.224C-361.947 -298.259 -364.679 -307.378 -367.151 -316.575C-366.981 -318.249 -366.62 -320.184 -367.048 -321.758C-370.495 -337.479 -383.449 -341.977 -392.673 -353.927C-398.779 -361.836 -401.42 -371.961 -408.432 -379.098C-414.514 -385.572 -430.616 -395.564 -434.285 -401.96C-431.227 -401.225 -429.433 -400.223 -426.848 -401.072C-427.434 -405.65 -448.971 -428.987 -453.032 -431.3C-477.009 -444.956 -483.524 -428.896 -494.265 -461.774L-611.85 -324.221C-612.245 -320.545 -613.101 -317.794 -614.78 -314.554C-609.37 -320.696 -592.724 -344.307 -588.426 -346.597C-579.322 -346.258 -573.86 -312.905 -573.676 -305.632C-573.46 -297.108 -573.474 -288.641 -572.34 -280.154C-561.58 -270.326 -560.162 -266.471 -564.506 -252.551C-572.489 -245.875 -594.126 -232.102 -603.573 -227.214L-603.367 -225.668C-592.689 -219.831 -581.887 -219.717 -570.11 -220.305C-573.849 -207.416 -575.101 -202.952 -575.301 -189.579C-576.447 -187.776 -576.135 -186.453 -576.053 -184.286L-575.659 -182.06C-577.396 -179.164 -577.687 -179.712 -577.561 -176.921L-573.971 -175.395C-575.553 -171.682 -576.952 -173.533 -577.93 -169.338C-578.602 -159.726 -585.28 -150.777 -582.82 -140.965C-581.539 -141.477 -582.147 -141.14 -581.251 -142.776L-579.571 -143.216C-578.18 -149.619 -576.925 -155.525 -573.253 -161.058C-572.066 -163.635 -571.643 -163.804 -569.438 -165.733C-566.657 -166.462 -567.533 -166.849 -565.345 -165.321C-563.544 -159.414 -566.446 -155.031 -570.137 -150.827L-569.117 -148.481C-566.102 -148.396 -564.655 -148.901 -561.726 -148.69C-560.372 -146.223 -561.259 -144.185 -561.653 -140.848L-558.712 -140.001C-552.321 -137.127 -555.567 -116.064 -552.986 -109.157C-550.969 -103.754 -546.237 -93.9243 -543.074 -89.4732C-542.213 -93.4806 -549.556 -107.806 -550.184 -113.01C-550.732 -117.594 -550.429 -120.137 -550.064 -124.801C-548.677 -121.424 -547.906 -118.263 -546.278 -114.542C-543.848 -108.996 -540.709 -105.054 -539.248 -99.3495C-537.88 -97.5491 -537.517 -96.8114 -536.477 -94.7901C-525.607 -78.3526 -528.587 -61.5395 -523.515 -42.2953L-521.185 -44.4457C-522.884 -49.7718 -526.578 -64.6153 -523.003 -69.4345C-521.786 -67.3332 -519.384 -59.8542 -518.451 -57.1455C-515.547 -56.042 -514.738 -56.0625 -511.609 -55.8607C-511.208 -55.267 -506.812 -43.1698 -505.652 -40.5381C-504.279 -40.9193 -503.862 -41.2952 -502.627 -42.0147L-499.506 -40.5278C-497.164 -37.8288 -496.953 -34.7632 -496.196 -31.1607L-492.693 -31.9205C-493.249 -34.5825 -493.782 -37.2469 -494.291 -39.9143C-491.35 -38.0166 -490.963 -37.8199 -487.501 -37.356C-491.196 -42.4856 -490.703 -43.0873 -492.984 -46.8192L-497.626 -51.9405C-499.771 -56.7566 -501.612 -64.0421 -502.773 -66.5095L-503.479 -69.7963C-507.441 -77.7129 -519.444 -104.065 -520.117 -112.503L-517.102 -113.83C-513.219 -113.485 -507.621 -108.719 -504.265 -106.282L-502.071 -106.71L-501.43 -106.248C-497.266 -103.305 -492.345 -101.061 -487.7 -98.069L-488.83 -98.6599L-486.315 -98.0012L-487.069 -98.5818C-489.506 -100.482 -490.365 -101.014 -491.263 -104.077C-499.381 -103.569 -506.228 -110.836 -510.52 -116.967L-512.655 -118.945L-512.14 -119.634C-507.973 -117.108 -503.648 -113.355 -499.819 -110.232C-495.113 -109.4 -495.645 -106.427 -491.757 -108.462C-494.056 -111.562 -496.403 -110.928 -499.534 -114.879L-499.188 -115.584C-499.614 -116.398 -499.491 -116.392 -499.617 -117.357C-497.637 -117.635 -496.055 -116.386 -494.185 -115.36C-488.634 -118.128 -492.08 -122.811 -494.114 -127.82C-487.538 -128.625 -484.398 -133.385 -475.968 -132.695L-473.309 -132.669L-470.79 -133.852L-471.043 -135.019L-473.95 -136.532L-474.556 -136.886L-473.564 -138.221L-474.757 -140.038L-474.592 -142.931L-473.345 -143.69L-473.746 -144.759C-477.526 -146.075 -483.747 -146.699 -485.442 -147.391C-487.171 -150.319 -487.034 -149.567 -490.719 -150.957C-506.008 -148.986 -525.813 -146.982 -539.879 -153.518L-538.711 -154.76L-544.03 -159.451L-543.167 -162.262L-543.33 -163.495L-541.263 -166.477C-548.459 -168.747 -553.691 -171.415 -560.298 -175.051C-539.341 -171.188 -530.608 -173.965 -509.495 -175.624C-505.372 -175.946 -500.908 -175.055 -496.874 -174.998C-513.26 -181.608 -530.331 -179.09 -547.56 -178.376C-550.896 -178.235 -552.812 -177.394 -555.368 -180.055L-555.266 -184.475C-558.493 -185.363 -559.085 -184.983 -561.222 -187.183C-562.614 -196.506 -562.371 -216.981 -551.773 -220.84C-544.776 -223.387 -534.976 -223.6 -527.335 -224.738C-512.707 -226.91 -502.404 -230.111 -489.059 -236.222C-485.647 -236.388 -484.472 -236.35 -482.127 -233.93C-480.141 -232.453 -480.235 -232.443 -478.863 -230.322C-478.055 -227.354 -477.304 -223.545 -476.614 -220.477C-473.419 -220.764 -473.28 -221.801 -470.863 -220.716L-470.878 -217.911L-470.641 -217.275C-462.399 -213.44 -463.289 -211.448 -461.515 -204.261C-460.508 -204.126 -457.572 -203.685 -457.177 -202.546C-454.491 -194.838 -452.336 -187.794 -447.716 -180.923C-447.773 -181.006 -448.106 -171.565 -441.645 -171.685C-440.609 -178.372 -447.763 -183.456 -448.117 -189.255L-449.486 -191.203C-454.248 -199.91 -448.763 -202.201 -456.55 -209.619L-459.918 -212.204C-465.381 -216.34 -463.092 -220.767 -469.498 -226.4L-471.933 -228.24C-473.387 -230.815 -474.921 -233.721 -476.589 -236.133L-476.949 -237.149C-478.111 -239.178 -478.505 -239.818 -479.257 -242.001C-475.343 -247.954 -426.989 -264.814 -418.917 -267.481L-414.136 -268.436C-413.064 -269.09 -411.586 -269.657 -410.401 -270.168C-389.777 -275.542 -384.094 -272.964 -364.924 -265.973C-354.924 -240.891 -365.394 -234.595 -377.616 -213.895C-371.359 -219.353 -359.524 -231.097 -356.353 -238.67C-355.652 -240.327 -354.574 -249.552 -354.278 -252.023L-353.142 -252.353C-344.848 -246.59 -355.324 -228.947 -360.847 -223.374C-362.028 -221.592 -362.77 -218.187 -363.343 -216.04C-366.781 -213.282 -380.942 -203.092 -382.399 -201.462C-384.871 -197.783 -388.39 -195.529 -389.702 -191.869L-388.994 -190.597L-385.412 -190.924C-390.403 -186.736 -396.763 -181.671 -401.364 -177.264C-401.858 -174.673 -401.398 -174.286 -399.77 -172.528C-393.32 -178.722 -378.725 -190.121 -371.298 -194.896C-350.159 -208.498 -339.54 -209.907 -329.178 -233.968C-328.375 -231.756 -327.615 -229.533 -326.89 -227.293C-315.722 -192.351 -350.069 -190.814 -372.338 -179.265C-388.296 -170.999 -396.454 -164.68 -404.489 -149.18C-398.911 -153.892 -395.445 -158.535 -389.103 -163.191C-374.605 -173.837 -360.83 -176.725 -344.296 -181.69C-339.513 -183.122 -337.003 -184.871 -330.687 -186.534C-337.517 -180.969 -345.515 -174.839 -353.351 -170.81C-364.909 -164.865 -377.824 -160.196 -388.571 -152.686L-387.398 -148.445C-366.388 -161.297 -338.252 -162.745 -324.156 -185.161C-317.893 -195.124 -316.343 -206.076 -314.865 -217.457C-310.904 -199.374 -312.746 -194.32 -322.051 -178.635C-314.527 -179.785 -310.038 -194.875 -304.981 -199.29L-304.434 -197.867C-307.25 -173.609 -345.459 -152.076 -367.075 -145.704C-371.46 -144.412 -377.685 -146.282 -379.577 -144.581C-378.742 -142.933 -378.029 -142.003 -378.231 -140.192C-380.608 -140.011 -387.426 -139.825 -387.949 -138.412C-390.402 -131.755 -391.409 -132.54 -397.514 -129.098C-401.859 -121.79 -406.657 -115.127 -411.504 -108.157C-412.139 -107.239 -411.718 -104.631 -411.575 -103.499L-411.487 -102.863C-412.875 -98.8021 -414.492 -98.9105 -417.26 -95.7099C-410.559 -87.2097 -420.533 -87.2061 -420.196 -81.5992C-418.052 -79.6439 -417.239 -79.2074 -416.178 -76.6227C-416.85 -71.2869 -423.07 -67.7854 -421.594 -62.4489L-418.053 -60.9654C-417.118 -57.1832 -421.248 -49.8268 -420.542 -43.7523L-419.686 -43.2661C-418.237 -44.6859 -417.374 -45.8833 -415.441 -46.3687C-414.178 -44.1085 -415.567 -38.3453 -415.566 -35.2092C-415.56 -30.0402 -413.06 -29.1892 -410.204 -24.9544C-407.753 -21.321 -404.035 -9.29357 -399.219 -9.61317L-399.283 -11.5643C-396.138 -11.2307 -397.401 -11.0025 -394.535 -12.5306C-394.194 -14.0288 -394.217 -14.853 -393.374 -16.0384L-392.722 -15.6884C-391.971 -13.655 -391.795 -13.2857 -392.795 -11.1151L-391.524 -12.5517C-391.656 -13.5356 -391.622 -13.0631 -390.73 -14.2811C-390.942 -16.3208 -390.992 -17.9123 -391.042 -19.9664C-388.018 -13.7783 -384.639 -7.62943 -381.385 -1.54801C-378.822 2.97978 -375.927 6.70703 -373.235 11.7224C-370.409 17.3275 -367.062 22.7393 -363.841 28.1357L-361.048 28.4639C-358.024 27.3036 -356.404 25.1286 -354.12 22.741C-353.217 27.1627 -352.624 30.9634 -350.824 35.117C-348.72 36.9446 -348.42 37.1482 -345.793 38.0665C-346.6 35.4143 -347.329 31.9559 -347.995 29.2004C-331.622 43.9055 -308.674 58.865 -286.363 61.2338C-306.733 49.593 -315.043 53.19 -333.016 34.3827C-333.503 33.1086 -333.831 32.3157 -334.169 30.9856C-342.708 27.2089 -346.065 22.788 -350.763 14.8521C-339.896 18.388 -337.725 18.9795 -328.306 25.9649C-338.83 12.8301 -343.126 15.1505 -356.001 5.18898C-358.828 3.00237 -363.037 -2.70627 -365.226 -5.71155L-365.779 -7.22696L-362.787 -8.16474C-362.719 -10.8817 -365.388 -12.9723 -367.442 -15.2077C-369.193 -17.0226 -370.36 -18.4579 -370.584 -20.7467C-367.417 -21.1883 -358.986 -16.8993 -355.512 -15.3368L-352.603 -18.6031C-375.393 -31.8976 -380.854 -42.2737 -374.701 -67.5863C-371.226 -59.9503 -370.415 -52.7849 -367.753 -44.6109C-365.377 -56.7167 -370.91 -64.6201 -368.146 -74.5542C-363.971 -89.577 -329.293 -105.454 -314.59 -113.327C-317.331 -110.021 -320.704 -105.975 -323.758 -103.065C-347.845 -80.1512 -379.489 -63.7479 -346.931 -29.5766C-351.957 -39.7988 -360.605 -54.7981 -353.269 -65.6427C-350.495 -69.7497 -341.193 -79.3186 -336.363 -80.2557C-336.2 -76.7463 -352.501 -58.6272 -347.047 -51.0308C-346.226 -51.7532 -346.136 -51.8092 -345.783 -52.8838C-338.761 -74.2254 -319.798 -91.1836 -305.533 -107.959C-300.9 -113.403 -273.379 -150.223 -267.554 -146.448C-265.705 -141.036 -267.639 -134.685 -268.913 -129.144C-275.23 -125.28 -272.268 -126.794 -275.65 -121.263C-276.063 -120.592 -283.325 -118.698 -285.227 -117.673C-294.112 -112.856 -300.78 -104.167 -306.844 -96.3983C-302.083 -99.555 -282.406 -114.898 -277.486 -112.252C-277.905 -108.949 -280.019 -107.301 -281.874 -104.768C-298.679 -81.8838 -340.476 -82.9577 -337.733 -46.5865C-327.708 -68.8782 -325.885 -67.8356 -305.038 -80.8466C-309.662 -74.7366 -319.117 -66.2639 -321.802 -59.4354C-326.275 -48.0767 -328.593 -38.3203 -336.657 -28.379C-337.123 -27.8041 -336.737 -27.4339 -336.458 -26.6632C-334.567 -27.3129 -333.48 -27.8313 -331.672 -28.7009L-330.777 -27.9598C-329.048 -17.0369 -329.949 -13.2787 -335.097 -3.9979C-337.456 0.253568 -337.062 4.42523 -335.473 8.90279C-332.995 7.81337 -334.406 -3.94469 -328.924 -7.98293L-327.864 -7.32207C-324.213 -1.05319 -327.25 6.88621 -326.001 13.9303C-325.447 14.0962 -322.427 15.1233 -322.297 15.491C-316.639 31.4693 -312.26 35.9631 -297.528 44.1787C-299.381 40.0384 -301.442 39.5667 -303.707 36.3381C-305.845 34.3484 -309.094 31.8336 -310.05 29.2857C-307.426 29.9773 -287.28 41.5422 -283.169 43.7329C-282.966 44.6594 -282.749 45.5825 -282.516 46.502C-281.397 50.9045 -278.822 58.3965 -274.796 60.7845L-274.352 59.993C-274.404 55.9145 -277.061 50.2951 -278.656 46.3093C-271.055 52.1123 -263.503 57.9796 -256 63.9094C-266.644 48.385 -274.331 42.5432 -290.443 33.9567L-291.486 29.5633L-293.07 28.533C-296.09 27.2675 -297.871 25.1854 -300.002 25.0365C-301.621 22.7776 -302.266 22.1581 -303.051 19.5582L-306.545 15.1417C-320.052 -2.11319 -323.535 -18.4189 -319.095 -39.6214L-317.023 -39.8561C-324.442 -0.0642285 -279.885 27.0389 -247.313 36.6834L-246.448 34.403C-270.022 26.1881 -296.541 9.38572 -306.028 -14.4642C-311.072 -27.1428 -309.591 -36.5857 -307.59 -49.3926C-295.664 4.63691 -275.597 14.7369 -225.885 32.8664C-224.674 39.1705 -217.431 57.1396 -210.786 58.1565L-209.471 57.1306C-213.883 50.4569 -216.853 46.0363 -220.293 38.7148L-220.226 37.8768C-219.818 33.1421 -219.387 34.098 -223.466 30.7235C-241.02 22.7815 -263.315 10.8278 -278.011 -1.26858C-263.557 1.02049 -240.145 3.02289 -229.185 12.1851L-228.061 9.78601C-247.506 -9.15244 -263.643 -2.29739 -282.705 -17.2448C-296.384 -27.9697 -296.907 -48.4821 -293.715 -64.6558C-288.449 -41.086 -290.919 -31.3719 -266.164 -14.4584C-265.338 -13.8927 -264.044 -13.3865 -263.058 -13.0475L-262.065 -13.3635C-262.713 -15.3197 -270.015 -21.4748 -272.05 -23.4807C-293.619 -44.7527 -288.016 -75.2771 -273.37 -98.9602L-273.61 -97.9917C-275.729 -89.632 -279.794 -82.28 -281.517 -73.6821C-286.168 -50.4865 -279.791 -36.518 -260.407 -24.2844C-261.79 -27.2338 -262.913 -28.0182 -265.237 -30.2573C-268.301 -32.8764 -270.908 -35.9867 -272.949 -39.462C-286.818 -62.5561 -268.079 -88.0489 -258.165 -108.052C-256.442 -111.528 -254.678 -119.291 -253.705 -123.361C-241.627 -81.3343 -274.055 -84.8689 -265.045 -46.1647C-264.053 -62.7157 -263.123 -64.9222 -255.435 -79.8043C-254.175 -65.34 -258.871 -49.8486 -250.763 -35.1079C-250.502 -34.6312 -247.145 -34.0872 -246.259 -32.2659C-244.518 -28.6877 -247.149 -22.0742 -241.448 -22.9859C-240.593 -23.1009 -236.627 -17.6418 -235.201 -16.271C-222.949 -4.49891 -219.706 11.2127 -212.347 25.7842C-208.178 33.948 -202.682 40.0142 -195.834 46.2646C-193.11 47.4531 -190.564 48.7157 -187.904 50.026C-204.411 35.5774 -209.041 24.2322 -216.553 4.3638C-216.423 2.38609 -216.406 1.91536 -215.942 -0.0843695L-220.99 -6.13944C-196.443 6.7503 -177.782 29.2952 -153.786 38.8458C-155.196 32.0508 -158.464 34.7 -163.25 29.5513C-167.554 27.0888 -171.822 24.5624 -176.051 21.9737C-178.721 21.5253 -183.229 17.296 -184.671 14.9899C-183.338 13.0469 -182.191 13.7851 -180.306 11.9954C-208.519 -2.54952 -223.718 -17.8132 -241.339 -45.2134C-249.298 -57.588 -245.452 -76.4091 -241.466 -90.2704C-234.528 -62.9985 -230.236 -47.2484 -210.862 -25.1233C-183.806 5.77412 -150.914 13.1859 -111.429 5.40582C-96.8336 2.52999 -88.2304 -2.47854 -72.2489 -1.88159Z" fill="#D49700"/>
<path d="M192.327 139.732C193.378 140.95 193.482 140.856 194.977 141.531C197.404 139.773 197.273 138.766 198.606 135.748C201.371 126.385 202.405 124.052 202.092 114.204C198.094 109.75 193.434 106.514 187.387 105.31C190.474 109.274 190.46 111.197 190.988 116.039L192.184 116.538C191.209 119.09 191.763 131.734 190.509 138.174L192.327 139.732Z" fill="#1A1917"/>
<path d="M192.322 139.731C195.968 132.391 198.087 123.494 192.179 116.537C191.204 119.09 191.758 131.734 190.504 138.173L192.322 139.731Z" fill="#D49700"/>
<path d="M115.781 154.251L117.993 152.452C122.3 152.064 118.08 152.615 121.543 154.952C126.766 152.703 121.349 149.933 130.798 149.418C132.947 142.455 141.211 131.455 139.771 123.704L138.825 123.475C135.66 126.622 136.861 128.341 135.238 131.883C134.063 134.446 124.548 149.988 122.75 150.068C123.754 146.816 125.193 143.368 124.842 140.104L123.659 138.757L122.265 139.002L122.032 139.923C120.822 144.617 118.671 150.335 115.781 154.251Z" fill="#D49700"/>
<path d="M3.92678 181.431L2.99741 179.381C-1.80574 180.535 -8.37646 181.91 -12.921 183.452L-12.3843 187C-12.9356 189.793 -15.2367 192.022 -17.1275 194.334L-14.0928 194.133C-1.59487 190.977 -9.43058 187.542 3.92678 181.431Z" fill="#D49700"/>
<path d="M272.046 103.761L276.95 103.884C273.947 95.0472 278.877 81.2862 268.541 73.3794L267.705 73.9036C268.644 78.3489 269.868 79.5984 271.27 83.4668C273.26 88.9805 272.998 98.0172 272.046 103.761Z" fill="#D49700"/>
<path d="M132.121 149.671C136.155 146.491 135.133 146.265 139.6 147.931L139.923 147.221C143.203 140.141 150.315 130.92 149.184 122.413C145.866 124.069 143.997 134.314 141.534 138.035C138.966 141.916 134.484 146.132 132.121 149.671Z" fill="#D49700"/>
<path d="M232.846 135.395C234.958 134.146 235.462 133.915 237.766 133.086C238.549 121.932 237.856 112.325 235.184 101.379C233.664 113.911 235.892 121.861 232.846 135.395Z" fill="#D49700"/>
<path d="M250.731 119.228C250.593 110.352 250.903 102.157 247.054 93.944L244.933 95.0891C247.415 103.641 247.147 109.905 247.389 118.699C249.358 118.589 248.732 118.619 250.731 119.228Z" fill="#D49700"/>
<path d="M198.61 135.734C200.418 135.638 201.717 136.113 203.465 136.568C203.826 130.533 206.631 118.441 202.096 114.19C202.409 124.038 201.375 126.371 198.61 135.734Z" fill="#D49700"/>
<path d="M335.278 35.6837C333.315 26.935 329.544 21.7998 321.93 16.9897C321.04 16.4313 320.141 15.8868 319.238 15.3501C321.377 18.0328 328.856 26.5414 328.502 29.5606C330.661 31.983 332.796 33.6366 335.278 35.6837Z" fill="#D49700"/>
<path d="M324.217 54.1955L327.85 54.0004C328.741 46.4311 326.907 42.0543 324.334 34.8668C322.631 41.4322 325.469 51.1961 324.217 54.1955Z" fill="#D49700"/>
<path d="M190.995 116.032C190.467 111.19 190.482 109.267 187.394 105.303C185.941 105.802 186.578 105.401 185.662 106.79C185.569 110.606 184.87 115.243 186.567 118.289L187.919 118.659L190.995 116.032Z" fill="#D49700"/>
<path d="M340.538 5.96777C341.03 2.21258 340.441 2.96925 344.007 0.741484L344.084 0.016672C340.561 -0.891079 336.795 -6.91883 333.225 -10.4408L332.625 -10.0351C333.371 -6.81254 338.555 1.71964 340.538 5.96777Z" fill="#D49700"/>
<path d="M3.92701 181.431L10.3265 178.484C12.5683 177.457 14.6452 175.46 15.5511 173.17C11.1376 172.201 6.73406 176.931 2.99764 179.382L3.92701 181.431Z" fill="#D49700"/>
<path d="M87.6994 178.482C91.0459 175.452 93.3398 171.541 95.8132 167.758C94.0724 167.191 94.5826 167.41 92.3304 168.524C89.3173 171.604 88.1909 172.816 84.6341 175.31C85.9417 176.374 86.6135 177.227 87.6994 178.482Z" fill="#D49700"/>
<path d="M337.925 20.4254C334.02 14.8544 331.439 12.4557 326.428 7.863C328.2 12.3788 329.292 13.9749 331.954 18.0768C334.53 18.0672 335.597 19.0541 337.925 20.4254Z" fill="#D49700"/>
<path d="M141.428 147.613C143.89 148.018 144.829 148.057 147.336 148.091L147.079 145.946L147.736 145.284C148.862 144.135 149.841 142.891 150.853 141.642L150.478 140.994C145.247 143.834 145.666 144.401 141.428 147.613Z" fill="#D49700"/>
<path d="M247.052 93.938C245.702 91.2676 245.48 90.4579 243.411 88.3907L242.523 88.657C243.072 91.6686 243.532 92.2858 244.93 95.0832L247.052 93.938Z" fill="#D49700"/>
<path d="M95.8105 167.764C97.3552 165.495 98.2233 165.108 98.2368 162.882C95.4517 164.061 94.2647 166.109 92.3277 168.53C94.5799 167.416 94.0697 167.197 95.8105 167.764Z" fill="#D49700"/>
<path d="M-9.18655 140.279C-7.26841 137.735 -7.07974 137.095 -3.31541 136.539C-2.20954 136.384 -1.10009 136.253 0.0110537 136.143C5.41022 131.512 -0.718947 127.43 1.7188 121.059C5.29735 117.067 8.89636 119.019 14.1555 116.353L12.8501 114.29L13.0384 113.799L11.5942 108.032C10.2517 108.76 9.05208 109.416 7.74377 110.22C2.10503 112.578 -6.64719 112.691 -13.2566 113.969C-13.418 115.119 -13.5102 114.782 -13.2394 115.839L-14.4808 118.653C-25.2304 118.145 -30.4673 122.546 -40.5136 125.287C-46.3332 126.876 -55.3586 123.326 -61.0295 123.618C-71.8114 124.173 -76.0852 124.747 -86.8204 122.186L-88.2927 123.894C-87.4433 126.332 -85.8201 126.744 -83.3674 127.5C-85.2803 130.918 -84.3708 130.484 -87.314 131.968C-89.9321 137.502 -82.4647 145.334 -77.2282 146.14L-76.4486 145.498L-78.5271 142.489C-77.1596 143.605 -75.581 144.437 -74.0507 145.33L-73.92 147.023C-69.0775 150.272 -61.7711 152.945 -56.3788 154.988L-55.3232 155.395L-54.6082 154.621L-46.7589 154.46C-45.9218 154.748 -46.4414 154.681 -45.2042 154.234L-45.1828 152.173C-38.3058 152.768 -26.1263 150.817 -19.5555 148.342L-19.1654 146.856C-15.5356 145.108 -11.4587 143.501 -9.18655 140.279Z" fill="#1A1917"/>
<path d="M-2.9921 131.086C-2.05845 131.415 -2.61602 131.356 -1.32732 130.852C-1.30841 126.854 -2.87825 120.861 -2.60477 119.43C1.58385 118.307 9.50478 116.653 12.8554 114.292L13.0438 113.8L11.5995 108.034C10.257 108.762 9.05739 109.418 7.74909 110.222C2.11034 112.58 -6.64187 112.692 -13.2513 113.971C-13.4127 115.121 -13.5049 114.784 -13.2341 115.841L-14.4755 118.655C-10.6169 119.116 -6.66605 119.534 -3.78263 122.393L-4.73615 123.446L-8.58271 123.483C-8.79898 124.183 -9.6911 125.483 -10.1211 126.176C-7.77742 126.175 -7.52694 126.283 -5.24255 126.935C-3.05592 129.129 -3.70381 128.06 -2.9921 131.086Z" fill="#1A1917"/>
<path d="M-13.231 115.841C-8.43239 117.101 8.55492 118.183 9.65857 112.134L7.75219 110.222C2.11344 112.58 -6.63877 112.693 -13.2482 113.971C-13.4096 115.121 -13.5018 114.784 -13.231 115.841Z" fill="#D49700"/>
<path d="M-11.3481 93.1965C-7.16336 94.9794 -3.52202 96.5028 1.02421 95.2026L2.53526 93.8925C1.31845 89.5552 -4.01644 89.8128 -8.09289 89.2108C-12.6832 85.1694 -16.4364 81.2828 -22.5225 80.0801L-24.0459 80.4633L-24.4208 81.4907C-25.3413 82.9126 -26.2891 84.3176 -27.2632 85.7033C-30.0316 89.602 -31.7559 88.9088 -36.2802 89.7696L-37.688 92.2403C-45.7996 96.3949 -52.6591 81.9002 -60.3355 82.2154C-61.2903 84.755 -59.6682 88.0119 -58.2309 90.111C-56.9535 90.1893 -55.7817 90.0162 -54.5247 89.7897C-44.4679 95.8948 -54.1754 96.3643 -37.3973 99.0787C-33.7908 99.2277 -31.1931 100.414 -27.787 101.627C-25.565 102.239 -26.6792 102.2 -24.3263 101.569C-22.8673 99.1846 -22.4693 98.4002 -20.1265 96.8922L-13.4828 95.441L-11.3481 93.1965Z" fill="#1A1917"/>
<path d="M-11.3462 93.181C-7.16143 94.9639 -3.52009 96.4874 1.02613 95.1871L2.53719 93.877C1.32038 89.5397 -4.01451 89.7973 -8.09096 89.1954C-12.6812 85.154 -16.4345 81.2673 -22.5206 80.0647L-24.044 80.4478L-24.4189 81.4752C-20.2114 85.0356 -15.0003 89.1783 -11.3462 93.181Z" fill="#D49700"/>
<path d="M192.066 34.0553L192.699 34.7881C201.817 34.1981 208.072 25.2227 213.041 24.7385C213.111 24.8944 213.18 25.0502 213.25 25.206C213.43 33.7223 211.03 33.2303 206.021 34.588C202.183 39.3385 204.117 40.1166 203.231 45.0942C202.531 49.035 196.017 49.3194 199.594 55.219C204.495 56.3747 207.933 47.6501 212.778 45.6504C215.952 44.3378 215.804 45.578 219.131 46.713C221.09 45.1519 221.557 44.8777 224 44.3491L222.711 39.8723L223.049 38.9123C224.888 35.7842 226.359 31.5518 223.43 28.5461C219.674 29.6931 220.02 33.4492 217.76 32.6174C216.278 28.8192 216.16 28.1205 215.628 24.1411C216.685 22.1608 217.657 20.5137 218.84 18.5985L218.387 17.8165C212.906 17.1685 207.684 22.573 203.019 25.9336C198.026 28.0416 191.721 30.2571 186.37 31.0759C183.307 32.0576 183.018 32.3118 180.93 34.7676C185.231 35.0687 187.807 34.6121 192.066 34.0553Z" fill="#1A1917"/>
<path d="M192.071 34.0498C195.738 32.1327 200.828 32.4886 203.631 28.135L203.024 25.928C198.03 28.0361 191.726 30.2516 186.374 31.0703C183.312 32.0521 183.022 32.3063 180.935 34.762C185.235 35.0632 187.812 34.6065 192.071 34.0498Z" fill="#D49700"/>
<path d="M222.716 39.8672L223.055 38.9071C222.548 35.868 224.485 34.565 223.627 30.596L222.316 30.6603C220.168 33.5556 218.039 37.3646 218.561 41.1006L219.67 41.6322L222.716 39.8672Z" fill="#D49700"/>
<path d="M202.33 54.1384C205.095 51.0227 209.46 46.3804 209.3 41.9284C209.202 39.271 208.659 38.5933 206.78 36.997C206.14 38.0842 205.539 39.1299 205.259 40.3751C204.434 44.0917 200.332 49.9524 200.512 53.2145L202.33 54.1384Z" fill="#D49700"/>
<path d="M244.435 54.5594C244.586 57.5295 244.091 56.8718 245.708 58.5427C247.995 57.421 247.234 57.9348 248.56 55.1063C248.409 52.2106 248.298 51.9768 247.316 49.2045L250.715 48.5104L251.664 46.8542C251.285 45.5474 250.892 43.7061 250.216 42.6265C247.975 36.9619 247.459 33.8717 242.726 30.221C240.868 29.1454 240.946 29.1048 239.719 27.469L238.808 27.3846C232.597 27.8315 234.017 24.8374 229.973 25.4182C228.683 27.7973 229.2 29.7338 229.434 32.5189C227.598 36.5672 225.417 40.4495 228.695 43.978C231.594 43.9778 230.302 44.3475 232.743 42.9205C234.148 41.5473 233.43 41.6914 234.829 41.7021C241.125 46.0695 240.689 48.4414 244.435 54.5594Z" fill="#1A1917"/>
<path d="M244.435 54.5594C244.586 57.5295 244.091 56.8718 245.708 58.5427C247.995 57.421 247.234 57.9348 248.56 55.1063C248.409 52.2106 248.298 51.9768 247.316 49.2045L250.715 48.5104L251.664 46.8542C251.285 45.5474 250.892 43.7061 250.216 42.6265C247.975 36.9619 247.459 33.8717 242.726 30.221L242.166 31.1626C242.131 34.2088 242.303 33.4161 244.508 36.476L244.18 37.7331C241.493 37.8925 239.726 38.0596 237.072 38.4924C236.721 38.9085 236.376 39.3185 236.026 39.7346C240.073 45.48 244.914 47.0971 244.435 54.5594Z" fill="#D49700"/>
<path d="M247.314 49.2033L250.712 48.5092L251.661 46.853C251.282 45.5463 250.89 43.7049 250.214 42.6253C247.123 42.3329 245.788 40.9135 243.686 41.7657C244.953 44.2162 246.165 46.6941 247.314 49.2033Z" fill="#1A1917"/>
<path d="M229.433 32.5163C227.596 36.5646 225.416 40.4469 228.694 43.9754C231.592 43.9752 230.301 44.3449 232.742 42.9179C233.13 40.6972 233.601 40.3413 232.849 38.641C232.795 36.4156 232.498 33.4172 233.222 31.4087C230.906 32.7614 231.76 32.7011 229.433 32.5163Z" fill="#1A1917"/>
<path d="M236.135 31.8172L239.234 29.3505C239.127 28.7783 239.024 27.8682 238.805 27.3818C232.593 27.8288 234.014 24.8346 229.97 25.4155C228.68 27.7946 229.196 29.7311 229.431 32.5162C231.759 32.701 230.904 32.7613 233.22 31.4086L236.135 31.8172Z" fill="#D49700"/>
<path d="M232.851 38.6357C235.717 38.4266 234.641 38.7138 237.117 36.9639C238.131 34.3171 238.621 34.0525 236.138 31.8121L233.224 31.4034C232.499 33.4119 232.796 36.4103 232.851 38.6357Z" fill="#1A1917"/>
<path d="M96.1025 84.0828C107.549 82.2922 130.425 81.5516 139.232 71.0708L139.114 70.0347C134.361 68.8605 124.021 74.8033 119.129 76.9047C101.796 84.3478 82.2114 78.4051 64.8305 80.5328C65.2205 82.4394 65.8554 83.717 66.5791 85.5244C69.5442 85.4487 72.6704 85.5384 75.6508 85.5698L78.4301 87.8079L81.2387 87.654C79.6265 90.5289 80.5242 91.3315 81.9152 93.8311C88.2795 91.3891 90.9786 88.5879 96.1025 84.0828Z" fill="#D49700"/>
<path d="M81.2416 87.653L82.866 86.0702L82.393 85.1596C79.4849 85.0886 78.5119 85.0942 75.6536 85.5688L78.433 87.8069L81.2416 87.653Z" fill="#1A1917"/>
<path d="M61.0379 104.391C83.6097 101.352 71.4865 97.7607 81.9157 93.8378C80.5247 91.3382 79.627 90.5356 81.2392 87.6607L78.4306 87.8146L74.0689 88.714C70.7298 89.1397 67.4134 89.6701 64.0492 89.5638C57.802 90.4311 46.4809 92.1283 42.1941 96.6655C43.2519 99.2936 50.3942 94.3938 54.3055 97.0355L52.8053 98.1029C52.5093 100.003 52.2632 99.1946 53.1211 100.664C54.4736 100.401 54.8505 100.497 56.2081 100.659C58.0168 102.463 58.8883 103.981 61.0379 104.391Z" fill="#D49700"/>
<path d="M61.0413 104.374C83.6131 101.336 71.4899 97.7445 81.9191 93.8215C80.5281 91.3219 79.6304 90.5193 81.2426 87.6444L78.4341 87.7984L74.0723 88.6978C73.5022 91.0824 74.4413 92.5292 74.9886 95.2368L73.7806 95.9462L69.3452 96.4141C67.0856 97.4923 58.6436 100.498 56.2116 100.643C58.0202 102.446 58.8917 103.965 61.0413 104.374Z" fill="#D49700"/>
<path d="M61.0474 104.377C65.013 97.3054 70.7947 103.168 73.7867 95.9491L69.3514 96.417C67.0917 97.4952 58.6497 100.501 56.2177 100.646C58.0263 102.449 58.8979 103.968 61.0474 104.377Z" fill="#1A1917"/>
<path d="M73.7736 95.9602L74.9816 95.2509C74.4343 92.5433 73.4952 91.0965 74.0653 88.7118C70.7263 89.1375 67.4098 89.6679 64.0456 89.5616C61.6707 91.3423 61.9054 90.5839 61.4256 92.8417C62.7796 94.4606 67.0572 95.4374 69.3382 96.4282L73.7736 95.9602Z" fill="#D49700"/>
<path d="M67.4118 -18.5629C76.1303 -15.0939 81.4714 -14.4586 90.5339 -13.2162C104.463 -11.2952 110.935 -12.1178 123.262 -18.136C123.852 -19.735 124.669 -21.6861 124.975 -23.3037C119.002 -20.2709 109.883 -16.0509 102.935 -17.4507L102.308 -18.574C103.759 -19.4273 104.103 -19.6568 105.672 -20.2268L104.47 -22.8781C88.8724 -19.0797 83.6702 -18.7311 67.4118 -18.5629Z" fill="#D49700"/>
<path d="M208.225 94.5562C205.047 86.7132 204.454 81.7093 195.712 78.8296C190.661 77.897 188.326 77.4501 183.247 77.402L181.022 77.4863C179.947 78.9813 180.227 79.9254 180.317 81.7966C177.913 81.8677 177.545 81.7662 175.379 82.6701C176.677 84.795 183.804 86.7425 186.238 88.6205C190.674 92.0391 195.262 96.5162 199.377 100.344C197.265 94.6609 196.282 91.9941 193.291 86.7993L192.995 85.1365C196.902 83.7772 204.963 91.8857 208.225 94.5562Z" fill="#D49700"/>
<path d="M199.372 100.35C197.259 94.667 196.276 92.0003 193.285 86.8055C188.501 83.4312 186.167 82.7821 180.311 81.8028C177.908 81.8738 177.539 81.7724 175.373 82.6762C176.672 84.8011 183.798 86.7487 186.232 88.6266C190.669 92.0453 195.256 96.5223 199.372 100.35Z" fill="#D49700"/>
<path d="M183.249 77.4026C184.543 80.8371 191.998 84.2945 195.68 82.0906L195.714 78.8302C190.662 77.8976 188.328 77.4507 183.249 77.4026Z" fill="#D49700"/>
<path d="M97.4202 89.7463C108.723 92.1729 114.975 90.1596 126.079 88.0922C133.53 86.7049 137.024 93.2923 144.056 91.0852C145.557 86.627 143.86 83.5177 139.613 82.068C139.673 78.1817 143.301 77.5636 142.262 73.5263C139.815 73.7972 134.477 78.2419 132.023 80.0149C119.013 88.2464 111.415 85.7176 97.4202 89.7463Z" fill="#D49700"/>
<path d="M132.033 80.0116C135.23 80.5261 136.416 82.6436 139.622 82.0647C139.683 78.1785 143.31 77.5604 142.272 73.5231C139.825 73.7939 134.487 78.2386 132.033 80.0116Z" fill="#D49700"/>
<path d="M152.673 90.372C157.332 87.3897 162.288 84.6958 167.116 81.9832C166.72 79.8824 166.501 78.6807 165.838 76.6606L160.356 77.6997L164.079 74.2174C162.289 71.4269 162.959 65.5809 163.062 61.9517C157.702 67.1859 151.117 72.2722 149.066 79.5454L150.36 81.8907L152.673 90.372Z" fill="#1A1917"/>
<path d="M152.673 90.372C157.332 87.3897 162.288 84.6959 167.116 81.9832C166.72 79.8824 166.501 78.6807 165.838 76.6606L160.356 77.6997L159.169 77.6138L150.36 81.8907L152.673 90.372Z" fill="#D49700"/>
<path d="M150.362 81.886L159.17 77.6091L157.86 75.4102C153.429 75.6244 156.351 78.391 149.068 79.5407L150.362 81.886Z" fill="#1A1917"/>
<path d="M32.4865 -27.8359C32.7815 -29.6974 32.5011 -30.5033 31.8593 -32.2054C29.1281 -32.5834 24.729 -28.0322 21.7548 -27.2882C17.8829 -26.3193 13.243 -27.3336 9.19433 -26.7391C3.69014 -25.9309 -1.92787 -23.6531 -7.34934 -22.2979C-12.4799 -21.0154 -17.7068 -20.6741 -22.9645 -20.2993L-24.4923 -19.5621L-23.2265 -17.9801C-18.8728 -16.8635 -12.3453 -17.0661 -7.82946 -17.5944C-1.06083 -18.3866 5.85838 -21.2214 12.5328 -22.7584C17.2531 -23.8448 22.6203 -23.9765 27.158 -25.4293C28.9925 -26.0164 30.7755 -26.9595 32.4865 -27.8359Z" fill="#D49700"/>
<path d="M6.98238 125.116C9.46692 132.371 16.5146 133.554 19.2808 127.507L18.193 125.788C18.6015 124.726 37.9068 122.239 27.7405 114.674C25.4044 115.607 26.1246 115.339 24.4566 117.848C19.3511 119.083 5.90381 119.503 2.81006 122.597L3.2258 124.003C4.83095 124.61 5.25777 124.829 6.98238 125.116Z" fill="#1A1917"/>
<path d="M6.9789 125.119C12.3941 123.413 22.3124 123.113 24.8819 120.751L24.4531 117.852C19.3476 119.086 5.90033 119.507 2.80658 122.601L3.22232 124.007C4.82747 124.613 5.25429 124.833 6.9789 125.119Z" fill="#D49700"/>
<path d="M19.7665 164.246C23.5842 161.4 24.917 155.569 26.429 151.207C22.2946 151.07 14.6081 162.813 10.6401 165.689C3.37601 170.952 -4.31801 173.801 -12.7716 176.483C-15.8161 177.154 -18.5649 177.761 -21.3486 179.244L-21.527 180.089L-21.2668 179.361L-20.2416 180.145C-5.39819 179.335 8.05239 173.077 19.7665 164.246Z" fill="#D49700"/>
<path d="M97.4376 144.807C97.3718 145.289 98.0121 149.172 98.1238 149.912C99.525 151.09 98.716 150.735 100.704 150.81C105.198 147.624 105.02 146.556 106.338 141.196C103.69 136.111 101.698 141.834 102.539 134.285C102.672 131.316 103.263 130.732 101.913 128.911C99.0321 129.594 97.9741 131.758 95.7348 134.18C90.5763 136.155 84.1086 143.066 79.9836 147.089C84.6579 145.439 92.3534 139.611 96.5573 141.336L97.4376 144.807Z" fill="#1A1917"/>
<path d="M97.4404 144.812C97.3746 145.295 98.0148 149.177 98.1266 149.918C99.5278 151.095 98.7188 150.74 100.707 150.815C105.2 147.63 105.023 146.562 106.341 141.202C103.713 142.437 99.4708 145.215 97.4404 144.812Z" fill="#1A1917"/>
<path d="M102.543 134.288C102.676 131.319 103.267 130.735 101.917 128.914C99.0358 129.597 97.9777 131.761 95.7384 134.183C94.6059 136.148 94.2139 136.531 94.1159 138.84C96.2092 138.746 99.0881 136.136 101.892 134.631L102.543 134.288Z" fill="#D49700"/>
<path d="M4.66406 163.197C7.09418 161.04 10.3518 157.927 11.3462 154.8C8.59554 153.997 3.23482 159.198 0.975656 160.957C-10.9116 170.209 -24.9434 172.8 -39.5009 175.212L-47.1272 175.44L-47.1671 176.096C-45.8326 177.378 -44.7309 177.808 -42.8797 178.034C-30.3458 179.56 -5.13965 170.462 4.66406 163.197Z" fill="#D49700"/>
<path d="M94.2662 -4.4352C102.198 -3.0487 127.262 -1.799 131.743 -9.75946L131.476 -8.69546L131.754 -9.83625C128.205 -10.9258 101.206 -8.59582 94.3328 -8.50104L94.2662 -4.4352Z" fill="#D49700"/>
<path d="M10.249 -11.8297C16.1004 -12.5377 26.6733 -14.8648 30.8122 -19.239C31.2846 -21.4381 31.498 -20.4963 30.4718 -22.2087C23.8248 -21.4589 9.33159 -15.1057 -1.27406 -13.6054L-1.2012 -11.8204L2.47947 -11.7106C2.77978 -7.66756 2.15158 -6.66763 5.55854 -4.54989L7.32467 -5.03951C9.67846 -7.33171 9.66722 -8.61124 10.249 -11.8297Z" fill="#D49700"/>
<path d="M77.1824 55.5867C78.3087 54.4679 79.1436 53.7386 79.5115 52.1231C77.02 50.931 74.5514 53.6538 72.6659 55.1907C62.9679 63.0977 50.8707 66.8754 38.8022 69.492L36.5464 70.0181L36.4816 71.0415C39.2641 71.8607 41.9284 71.8131 44.8074 71.7781C57.2173 71.6289 68.7494 64.2141 77.1824 55.5867Z" fill="#D49700"/>
<path d="M191.974 -3.65732L193.129 -4.93392L192.301 -5.55643C185.802 -4.08378 180.344 1.15075 174.434 4.0134C167.009 7.60994 158.551 8.84941 150.494 10.2719L149.711 10.7345C151.053 12.2553 152.212 12.5738 154.263 12.6921C168.926 13.5318 181.583 5.87382 191.974 -3.65732Z" fill="#D49700"/>
<path d="M237.075 56.7974L236.219 57.6781C234.994 57.4107 232.645 56.6522 231.908 57.6675C228.565 62.2757 229.249 67.613 233.196 71.211C236.058 71.4146 236.146 70.7955 238.955 69.3196C241.808 62.6594 242.769 55.4169 237.567 49.5704L236.067 49.4523C235.006 51.9737 236.099 53.9119 237.075 56.7974Z" fill="#1A1917"/>
<path d="M238.955 69.3154C241.809 62.6552 242.77 55.4127 237.567 49.5661L236.067 49.4481C235.006 51.9695 236.099 53.9077 237.076 56.7932C237.614 61.0561 237.634 59.7161 235.015 63.9608C235.56 66.1888 237.324 67.622 238.955 69.3154Z" fill="#D49700"/>
<path d="M132.932 4.49809C132.95 4.40682 132.983 4.31737 132.988 4.22541C133.106 2.12651 132.934 0.611858 131.767 -1.13337C122.192 0.700127 112.885 2.15389 103.113 1.87508C102.065 1.83407 102.639 1.73692 101.458 2.40387C102 3.1023 101.982 3.16188 102.833 3.75094C110.236 8.90413 124.846 6.7396 132.932 4.49809Z" fill="#D49700"/>
<path d="M121.388 29.7559C122.049 27.9499 122.346 27.7556 121.67 25.8748C118.315 24.9505 109.462 29.5373 105.669 30.6095C98.8365 32.5425 90.5157 31.1662 83.536 30.43L82.487 30.9271L82.6961 31.8738C83.0733 32.0403 83.4528 32.2013 83.839 32.3446C95.8813 36.8059 109.996 34.7999 121.388 29.7559Z" fill="#D49700"/>
<path d="M214.039 5.69891C215.38 4.26091 216.408 2.693 217.486 1.06238L217.12 0.247169C207.95 5.83439 197.785 10.25 187.924 14.4667C186.577 15.1944 185.477 16.113 184.31 17.0801L184.457 18.1993C185.148 18.491 185.267 18.6038 186.129 18.6351C192.251 18.8489 209.001 9.71237 214.039 5.69891Z" fill="#D49700"/>
<path d="M202.35 20.1924L200.634 18.1916C192.735 20.5707 179.316 24.7901 175.028 32.1998L175.378 33.5675L177.114 34.1862L180.93 34.7675C183.018 32.3118 183.308 32.0576 186.37 31.0758L185.998 27.8528C192.113 25.4758 196.54 23.1717 202.35 20.1924Z" fill="#D49700"/>
<path d="M186.372 31.0708L186 27.8478C182.225 30.1857 180.515 31.3513 177.116 34.1811L180.932 34.7625C183.02 32.3067 183.31 32.0526 186.372 31.0708Z" fill="#1A1917"/>
<path d="M208.968 -0.728338L209.775 -3.9154L208.529 -5.6959C202.626 -2.75258 182.083 6.70802 180.619 12.9011C183.375 13.2494 204.886 1.40027 208.968 -0.728338Z" fill="#D49700"/>
<path d="M139.217 50.059C138.472 48.9738 137.639 47.9415 136.815 46.9166C136.009 45.9075 134.802 44.3411 133.389 44.2122C130.436 43.9414 112.312 53.222 101.983 52.0316L102.542 53.2989C114.474 57.7614 126.895 48.808 139.217 50.059Z" fill="#D49700"/>
<path d="M135.664 38.7724L136.538 37.4797L135.63 36.501C130.024 36.44 115.625 42.1424 107.731 43.3788C106.842 44.1837 106.979 44.2294 106.715 45.3219C107.617 45.9312 108.184 46.0881 109.271 46.2107C119.124 47.3154 127.907 44.788 135.664 38.7724Z" fill="#D49700"/>
<path d="M217.05 81.9059C217.129 81.5242 217.245 81.1431 217.291 80.7553C217.635 77.8982 217.019 75.0006 215.092 72.8406C211.329 68.6097 204.695 67.2424 199.274 67.0626L197.052 67.4168L196.925 68.6432C199.449 71.9328 212.56 78.6867 217.05 81.9059Z" fill="#D49700"/>
<path d="M85.0889 126.769C90.1103 126.699 93.5129 126.848 97.3881 123.151C97.1209 119.596 93.3246 119.355 90.2045 118.484L89.3463 118.059C86.7383 117.24 83.5409 117.592 81.5566 119.587C80.5885 123.014 80.8439 123.244 82.8762 126.963L85.0889 126.769Z" fill="#1A1917"/>
<path d="M89.3472 118.057C86.7391 117.237 83.5417 117.59 81.5574 119.585C80.5893 123.011 80.8447 123.241 82.8771 126.961L85.0898 126.766L84.5994 125.707C84.8573 122.399 87.0067 120.497 89.3472 118.057Z" fill="#1A1917"/>
<path d="M84.6051 125.704C87.2477 124.47 88.8853 124.002 90.7038 121.736L91.1195 119.872L90.2111 118.478L89.3529 118.053C87.0125 120.494 84.863 122.396 84.6051 125.704Z" fill="#D49700"/>
<path d="M168.552 -0.226408C168.426 -1.54131 168.187 -3.25177 168.242 -4.52899C163.258 -2.06103 153.132 4.85529 147.39 5.05246C145.602 5.11529 147.614 2.84054 145.529 0.385298C142.979 1.12151 142.67 1.73359 140.712 3.70124C139.973 6.53045 139.826 5.45445 140.925 7.8674C147.382 10.7172 162.885 2.91802 168.552 -0.226408Z" fill="#D49700"/>
<path d="M78.3509 169.693C77.1749 170.73 77.2142 170.673 76.4271 172.026C76.6684 173.286 76.3644 172.826 77.1374 173.523C81.9343 172.509 87.0352 164.86 90.0747 160.884C92.4083 156.142 92.6379 153.324 92.7164 147.95C86.1901 156.029 84.0268 161.744 78.3509 169.693Z" fill="#D49700"/>
<path d="M90.0759 160.88C92.4096 156.139 92.6391 153.32 92.7176 147.946C86.1913 156.026 84.028 161.741 78.3521 169.69C81.9894 166.373 85.1365 159.727 89.0874 159.17L90.0759 160.88Z" fill="#D49700"/>
<path d="M107.544 42.0115L106.719 40.5378C100.456 38.1792 84.9395 37.5979 77.4201 36.7454C77.4949 37.8431 77.6934 38.1997 78.628 38.9079C85.9539 44.4547 99.1246 44.1004 107.544 42.0115Z" fill="#D49700"/>
<path d="M174.996 66.5482L175.657 67.5294L177.445 67.4135C182.023 64.4589 184.505 60.749 186.609 55.8504C184.276 52.1047 181.099 49.8481 176.57 51.3601L175.204 53.3639C176.253 57.3261 178.659 55.816 179.333 59.7988C178.16 61.5306 175.806 64.7945 174.996 66.5482Z" fill="#1A1917"/>
<path d="M174.996 66.5482L175.657 67.5294L177.445 67.4135C182.023 64.4589 184.505 60.749 186.609 55.8504C181.208 55.7088 179.197 62.7158 174.996 66.5482Z" fill="#D49700"/>
<path d="M119.886 113.767C123.099 113.822 123.911 114.419 126.069 112.793C125.114 109.77 122.133 108.955 119.309 107.943C117.688 104.063 119.178 102.393 117.309 97.4763L116.003 97.6801C110.701 103.98 111.369 111.278 119.886 113.767Z" fill="#D49700"/>
<path d="M119.889 113.761C123.101 113.816 123.914 114.413 126.071 112.787C125.116 109.763 122.135 108.949 119.312 107.936C119.797 110.417 119.87 111.233 119.889 113.761Z" fill="#D49700"/>
<path d="M-26.7118 18.3411C-19.3619 17.0664 -4.40261 12.5621 -2.66029 3.97427L-3.67423 3.40022C-11.0414 5.70148 -13.339 11.3784 -27.3544 15.081C-27.3533 15.5722 -26.8447 17.7201 -26.7118 18.3411Z" fill="#D49700"/>
<path d="M257.362 84.0426C259.076 88.2421 260.58 92.2408 261.233 96.7505C261.835 100.928 260.534 109.28 261.936 112.646L263.191 112.768C269.359 108.375 263.486 90.0461 260.74 84.0033L257.362 84.0426Z" fill="#D49700"/>
<path d="M6.99245 15.4483L8.32481 13.821L7.76766 12.5362C2.86792 12.4085 -11.087 21.0898 -17.2777 22.9036L-18.6991 23.5213L-18.1857 24.4259C-17.3077 24.6051 -16.4307 24.7694 -15.5373 24.8507C-7.73981 25.5553 1.16165 20.0765 6.99245 15.4483Z" fill="#D49700"/>
<path d="M166.678 -7.53455C167.954 -8.92139 169.177 -9.96947 169.436 -11.9272L167.877 -12.2129C161.796 -10.0949 156.272 -6.20829 151.054 -2.53039C149.222 -0.998868 148.468 -0.778217 147.939 1.5998L148.872 2.50392C154.912 1.88894 161.757 -4.1154 166.678 -7.53455Z" fill="#D49700"/>
<path d="M55.8785 168.125C58.6942 164.813 61.9491 161.402 63.075 157.11L61.6827 157.168C57.656 159.398 54.755 163.392 51.8005 166.85C48.7564 169.066 44.0716 171.654 42.6528 175.237L44.0129 175.452L43.0683 174.506L44.665 175.24C49.1029 173.595 52.3494 171.22 55.8785 168.125Z" fill="#D49700"/>
<path d="M169.687 153.826C172.475 151.22 175.07 148.248 177.47 145.287C182.021 139.67 183.532 134.326 182.677 127.076L181.769 126.362L180.552 127.984C178.673 135.291 177.726 142.052 172.21 147.704C169.92 150.052 167.416 152.08 165.473 154.741C166.515 154.999 168.596 154.118 169.687 153.826Z" fill="#D49700"/>
<path d="M28.0453 38.8011C33.5748 35.5355 41.9804 29.9105 42.0478 22.497C37.0256 21.7787 32.3125 30.4501 28.2255 34.026C27.6382 35.9282 27.922 36.7326 28.0453 38.8011Z" fill="#D49700"/>
<path d="M53.3825 53.8789C54.4703 52.6663 55.0237 51.9239 55.5619 50.3418C52.7613 49.865 45.14 54.24 42.1102 55.3039C39.2711 56.3012 36.1684 56.7366 33.2081 57.2405L30.8709 58.1081L30.8251 59.308C31.6509 59.6347 32.2721 59.8656 33.1599 59.9698C40.3922 60.8129 47.6986 58.0965 53.3825 53.8789Z" fill="#D49700"/>
<path d="M26.0113 140.857L25.7848 140.18C21.8993 138.496 2.38715 140.323 -2.17274 141.405C-1.83919 142.792 -1.78345 142.995 -0.774559 143.989C7.60574 144.788 18.1529 144.01 26.0113 140.857Z" fill="#D49700"/>
<path d="M0.772335 45.577C11.102 45.491 18.9543 43.4761 28.0452 38.8033C27.9219 36.7348 27.6381 35.9304 28.2254 34.0282C19.0531 39.6088 10.2103 40.7896 0.772335 45.577Z" fill="#D49700"/>
<path d="M45.577 38.0724C53.2013 29.3658 53.2724 21.5805 49.8258 10.8993C48.0298 18.811 46.9715 26.6036 45.2133 34.3511L45.577 38.0724Z" fill="#D49700"/>
<path d="M43.4163 145.407C48.1175 144.599 50.8092 144.826 53.3633 140.48L52.8543 138.994C49.3713 137.696 45.9449 139.527 42.4239 140.921C41.4748 141.407 41.8513 141.089 41.1235 142.119C40.2858 143.304 40.582 145.96 40.9993 147.43C41.5522 149.38 42.1113 150.433 43.7544 151.537C44.6619 149.421 44.2003 148.678 43.6242 146.25L43.4163 145.407Z" fill="#1A1917"/>
<path d="M42.4243 140.925C41.4751 141.41 41.8516 141.092 41.1238 142.122C40.2861 143.307 40.5824 145.964 40.9996 147.433C41.5525 149.383 42.1117 150.437 43.7547 151.54C44.6622 149.425 44.2006 148.682 43.6245 146.253L43.4166 145.411L42.2497 144.525C42.1716 142.636 42.0388 142.742 42.4243 140.925Z" fill="#1A1917"/>
<path d="M160.532 140.572C157.689 144.248 157.12 149.632 158.886 153.898L160.257 154.446C167.539 150.545 163.461 147.37 164.017 141.948C165.085 140.198 165.964 138.757 166.656 137.624C163.448 138.159 163.083 138.509 160.532 140.572Z" fill="#D49700"/>
<path d="M148.533 -4.03414C150.408 -5.84898 152.573 -7.72561 154.107 -9.84273C155.13 -11.2541 155.973 -12.2956 155.708 -14.0391C152.922 -13.9532 150.353 -11.3965 148.174 -9.78784C147.282 -9.17281 146.408 -8.54195 145.52 -7.91283C143.078 -6.18741 141.333 -4.95581 139.952 -2.16292L140.363 -1.03155C143.306 -0.844562 145.983 -2.71044 148.533 -4.03414Z" fill="#D49700"/>
<path d="M97.2361 108L99.5683 107.207C98.4504 101.498 102.948 98.6699 103.643 93.9052C98.3173 91.811 90.1075 100.426 97.2361 108Z" fill="#D49700"/>
<path d="M92.5072 7.4903L93.1321 5.6641C86.7601 3.41066 78.8345 7.73279 71.7399 5.67221C71.5337 7.03608 71.548 7.88568 71.8876 9.22485C77.34 12.2815 86.6854 8.91134 92.5072 7.4903Z" fill="#D49700"/>
<path d="M34.8776 86.3484C44.632 88.3756 49.8743 88.6626 59.3327 86.1303C59.3152 84.5368 59.1677 83.3778 59.719 81.8817C51.1374 84.5408 43.3448 83.6855 34.8776 86.3484Z" fill="#D49700"/>
<path d="M81.9117 137.275C82.7832 136.11 83.387 134.982 84.0335 133.687L83.3651 132.386C79.036 132.25 73.458 135.204 69.2394 136.51C68.0472 137.707 67.7198 137.793 67.5204 139.441C71.7558 141.209 77.745 138.627 81.9117 137.275Z" fill="#D49700"/>
<path d="M164.013 36.5033C164.464 35.7032 164.682 34.7894 164.969 33.9238L163.87 32.9313C158.71 32.9207 153.219 35.0197 148.267 36.3942L147.426 36.6257L146.959 37.658L146.085 37.5302L146.613 38.6117C150.796 40.4996 159.552 37.5279 164.013 36.5033Z" fill="#D49700"/>
<path d="M150.316 30.1082C155.823 30.4471 164.521 30.4387 169.438 27.934C171.613 26.8244 171.279 25.9622 172.328 23.1204L168.542 23.0245C165.013 25.3796 155.94 27.5673 150.316 30.1082Z" fill="#D49700"/>
<path d="M160.973 44.5941C161.684 43.3648 161.692 43.393 161.414 42.0023C157.474 40.6957 150.975 43.8445 147.286 45.2087L146.349 47.452L147.077 48.6613C151.699 49.5904 156.958 46.577 160.973 44.5941Z" fill="#D49700"/>
<path d="M11.7042 19.6754C6.08379 24.35 2.36125 24.1104 -3.61793 30.1861L-2.97537 30.7545C3.70472 29.2458 5.60817 28.3406 11.5707 25.0009C11.0831 22.4309 10.8077 21.9968 11.7042 19.6754Z" fill="#D49700"/>
<path d="M83.9095 61.1419C88.7272 56.7562 91.3511 54.273 94.4999 48.573L94.4366 47.1656C89.7231 47.1801 89.6022 50.8107 83.9826 53.6767C82.9557 56.3619 83.522 58.2473 83.9095 61.1419Z" fill="#D49700"/>
<path d="M72.574 68.7531C75.1613 67.3943 81.2544 62.9668 83.922 61.1351C83.5345 58.2405 82.9682 56.3551 83.9951 53.6699L72.0061 65.6146L72.574 68.7531Z" fill="#D49700"/>
<path d="M213.513 12.3333C217.788 12.8265 224.514 14.902 225.399 9.91235C226.107 7.62346 227.114 5.44035 226.543 3.18962C224.063 3.55811 223.477 4.85137 221.362 6.87838C220.486 7.33608 214.647 11.5405 213.513 12.3333Z" fill="#1A1917"/>
<path d="M225.393 9.91194C226.101 7.62305 227.108 5.43993 226.537 3.1892C224.057 3.55769 223.471 4.85096 221.356 6.87796L221.758 8.95129C223.892 10.4979 222.728 10.1652 225.393 9.91194Z" fill="#1A1917"/>
<path d="M222.795 83.6346C225.311 81.1392 226.514 78.1943 227.03 74.716C227.574 71.0259 226.974 68.4727 224.695 65.5528C222.867 69.3839 221.421 77.5045 220.956 81.8169L222.795 83.6346Z" fill="#D49700"/>
<path d="M101.542 69.476C101.876 68.2058 101.916 68.8553 101.261 67.5424C95.3325 66.3782 87.9338 70.0827 82.3485 72.0883L81.8869 73.2872L82.6536 73.8892C88.834 73.4326 95.8306 71.8687 101.542 69.476Z" fill="#D49700"/>
<path d="M275.494 6.19402C277.309 4.74443 279.932 2.39376 280.878 0.275846C281.527 -1.17675 281.491 -1.78442 281.029 -3.2258C278.668 -3.10794 278.511 -2.32441 276.942 -0.642897C274.578 2.09994 269.256 7.43034 269.095 11.116C271.758 10.1353 273.499 8.13106 275.494 6.19402Z" fill="#D49700"/>
<path d="M168.554 -0.222851C172.912 -3.06537 179.3 -6.44909 180.952 -11.2958L179.986 -11.5119L180.786 -10.7858C177.139 -11.9915 171.193 -6.73564 168.243 -4.52543C168.188 -3.24821 168.427 -1.53775 168.554 -0.222851Z" fill="#D49700"/>
<path d="M172.036 117.319C172.266 117.078 172.501 116.841 172.727 116.595C175.222 113.891 177.355 109.44 177.054 105.71C176.8 102.578 175.446 101.425 173.232 99.5393C171.866 103.256 171.119 113.476 172.036 117.319Z" fill="#D49700"/>
<path d="M37.5533 169.345C38.3511 167.234 41.4748 158.706 41.3908 157.007L39.2259 157.018C36.7426 159.736 33.6566 161.601 31.667 164.739L32.0667 166.433C33.8376 167.719 35.5188 168.545 37.5533 169.345Z" fill="#D49700"/>
<path d="M11.5667 25.0035C14.9564 22.4508 21.5104 17.0491 21.0412 12.2861C16.4699 12.6143 14.728 16.676 11.7002 19.678C10.8037 21.9994 11.0791 22.4335 11.5667 25.0035Z" fill="#D49700"/>
<path d="M26.1163 45.109C33.3223 43.7914 38.7124 40.8062 45.5845 38.0753L45.2208 34.354C36.8833 37.0103 32.9992 39.8913 26.1163 45.109Z" fill="#D49700"/>
<path d="M55.9616 75.9241C62.3359 75.1506 67.0586 71.9174 72.5656 68.7608L71.9976 65.6222C65.3024 70.1214 62.1694 71.5862 54.3656 73.6456L55.9616 75.9241Z" fill="#D49700"/>
<path d="M135.37 30.3234C135.609 29.193 135.428 29.316 134.855 28.3988C129.47 28.5486 122.636 33.3765 117.939 36.0582L117.909 37.2073C123.049 37.8842 130.792 32.6905 135.37 30.3234Z" fill="#D49700"/>
<path d="M58.7372 125.331C59.2515 124.809 59.7508 124.274 60.2353 123.725C63.4459 120.065 62.9498 116.675 62.6305 112.134C59.8319 114.498 56.783 117.232 56.0719 120.945C56.5346 123.067 57.1746 123.851 58.7372 125.331Z" fill="#1A1917"/>
<path d="M105.398 114.613C107.739 114.769 112.714 115.343 114.115 113.36C110.03 110.654 106.123 110.998 100.41 107.698L99.5687 107.204L97.2365 107.997L105.398 114.613Z" fill="#D49700"/>
<path d="M160.921 130.409C163.297 128.091 166.283 125.491 166.791 122.097C166.091 119.792 165.195 118.861 163.419 117.267C162.151 118.993 161.271 120.74 160.601 122.769C159.689 125.536 159.604 127.804 160.921 130.409Z" fill="#1A1917"/>
<path d="M130.091 110.251L130.569 108.279C129.132 104.666 126.612 100.522 123.737 97.8947C122.856 99.852 121.898 101.989 122.51 104.111C123.338 106.987 127.659 108.838 130.091 110.251Z" fill="#D49700"/>
<path d="M178.649 40.1731C178.868 38.7795 178.929 38.7891 178.175 37.6102C173.888 36.6588 169.605 37.8781 165.545 39.2464C165.171 39.8982 165.331 40.3983 165.349 41.1394C169.489 42.8417 174.518 41.2878 178.649 40.1731Z" fill="#D49700"/>
<path d="M213.38 86.0105C213.433 85.234 213.252 84.3208 213.166 83.5424C210.407 79.8276 206.582 75.8958 202.179 74.2572C202.14 75.6657 202.302 76.4554 203.013 77.6505C205.207 81.3528 209.161 84.9249 213.38 86.0105Z" fill="#1A1917"/>
<path d="M13.0556 113.8C16.2475 115.563 14.8819 115.286 18.2693 115.16L19.4317 113.782C18.988 109.541 17.7377 108.905 14.1158 106.786C12.189 107.175 12.9792 106.741 11.6113 108.033L13.0556 113.8Z" fill="#1A1917"/>
<path d="M94.2643 -4.43702L94.3309 -8.50286C86.712 -8.65005 81.4515 -9.95343 73.476 -8.94217C80.5934 -7.4507 87.0081 -5.81225 94.2643 -4.43702Z" fill="#D49700"/>
<path d="M72.782 147.9L73.5328 145.118L72.6281 143.954C69.5811 143.72 66.7614 145.31 64.0048 146.47C63.3419 148.121 62.6441 148.91 63.2066 150.637C66.0406 151.282 70.1153 148.967 72.782 147.9Z" fill="#D49700"/>
<path d="M117.198 133.872C119.174 131.798 120.351 130.947 120.97 128.077L120.17 126.892C117.761 127.27 117.754 127.723 116.245 129.526C114.552 131.781 111.527 135.095 111.473 138.009C113.895 137.356 115.426 135.552 117.198 133.872Z" fill="#D49700"/>
<path d="M129.815 124.081C132.061 121.687 135.516 118.678 136.617 115.579C137.391 113.401 136.841 112.969 135.878 110.968C133.251 114.346 129.86 117.981 128.513 122.074L129.815 124.081Z" fill="#D49700"/>
<path d="M145.209 34.1991C147.015 32.0044 148.282 30.279 148.216 27.349C146.465 25.4039 145.968 25.684 143.456 25.384C141.558 27.3935 141.523 27.4279 141.427 30.1868C142.702 32.3982 143.033 32.9052 145.209 34.1991Z" fill="#1A1917"/>
<path d="M193.568 106.781C193.972 104.723 194.307 102.681 194.572 100.601C193.302 98.2972 192.462 98.2739 190.123 97.2145L189.396 98.077C189.292 99.7618 189.006 101.877 189.5 103.485C190.151 105.593 191.748 105.855 193.568 106.781Z" fill="#D49700"/>
<path d="M166.665 137.613C168.273 134.749 170.567 131.608 169.188 128.301C166.38 129.612 163.154 137.22 160.541 140.562C163.092 138.499 163.457 138.149 166.665 137.613Z" fill="#D49700"/>
<path d="M222.374 97.9538C222.17 94.3191 219.768 90.2367 217.848 87.207C216.607 89.371 215.41 90.9538 215.816 93.5445C217.283 95.8239 220.012 96.7786 222.374 97.9538Z" fill="#D49700"/>
<path d="M19.3496 88.9166C20.4638 88.4283 21.2274 87.3775 21.3478 86.1678C21.4675 84.9575 20.9249 83.7759 19.9288 83.0771C18.9328 82.3795 17.637 82.2726 16.5407 82.7987C14.8854 83.5925 14.1731 85.5672 14.9395 87.2359C15.7054 88.9053 17.6678 89.6526 19.3496 88.9166Z" fill="#1A1917"/>
<path d="M104.754 63.0625C104.952 61.6768 104.78 61.473 104.173 60.1875C101.174 59.5684 97.8552 61.5078 95.0946 62.6256C94.7373 63.1212 94.552 63.8055 94.3272 64.3749L95.7558 65.0739C99.0634 64.8488 101.656 64.1502 104.754 63.0625Z" fill="#D49700"/>
<path d="M260.734 84.0152C258.278 79.1703 256.887 75.001 251.927 72.7371C251.901 75.3956 256.008 80.5299 257.357 84.0545L260.734 84.0152Z" fill="#D49700"/>
<path d="M165.839 76.6584C167.924 76.5396 167.973 76.3249 169.699 75.2371C169.676 73.0917 169.625 72.7385 169.227 70.6148L168.345 70.2343C166.334 71.8265 165.788 72.3102 164.081 74.2151L160.358 77.6975L165.839 76.6584Z" fill="#1A1917"/>
<path d="M69.7416 118.239C71.1018 116.373 71.5362 115.186 71.8817 112.911C71.2348 110.886 71.1153 110.414 69.4963 108.913L68.3102 109.191L68.239 110.587C68.0102 112.521 67.3839 114.161 66.6959 115.976L66.7176 115.842L67.4107 118.036L66.7498 117.726L66.612 116.85L67.5085 118.233L69.7416 118.239Z" fill="#1A1917"/>
<path d="M167.112 81.9797C170.098 80.1433 171.893 79.3059 173.962 76.3965L173.545 75.1647C171.607 74.9605 171.598 74.9203 169.693 75.2359C167.967 76.3237 167.918 76.5384 165.833 76.6572C166.497 78.6772 166.716 79.8789 167.112 81.9797Z" fill="#D49700"/>
<path d="M208.973 -0.731715C212.708 -4.00024 216.577 -7.30392 220.178 -10.6984C215.271 -9.0187 212.939 -8.30985 208.534 -5.69928L209.78 -3.91878L208.973 -0.731715Z" fill="#D49700"/>
<path d="M176.671 126.848C178.265 125.262 180.277 123.56 181.453 121.644C182.348 120.185 182.138 119.799 181.792 118.225L179.504 116.775C179.005 120.003 176.4 121.788 175.279 124.831L176.671 126.848Z" fill="#D49700"/>
<path d="M59.3353 86.1264L66.5823 85.521C65.8586 83.7136 65.2237 82.436 64.8337 80.5294L59.7216 81.8778C59.1704 83.374 59.3179 84.5329 59.3353 86.1264Z" fill="#D49700"/>
<path d="M74.0162 168.188C74.5306 167.396 75.0414 166.602 75.4934 165.772C76.9074 163.175 76.7907 161.249 75.9998 158.477C74.2952 159.839 72.9442 160.964 71.7537 162.806C71.8617 165.303 72.6825 166.116 74.0162 168.188Z" fill="#D49700"/>
<path d="M172.328 23.1231C173.204 20.1231 175.785 17.3518 175.864 15.0169C172.63 15.2535 170.141 20.3562 168.542 23.0273L172.328 23.1231Z" fill="#1A1917"/>
<path d="M4.69705 110.271C5.43314 109.032 5.75221 107.579 5.69993 106.137C5.6067 103.557 4.15837 102.079 2.4163 100.36C1.53248 101.428 1.20816 101.831 1.12808 103.298C0.977408 106.05 3.02033 108.329 4.69705 110.271Z" fill="#1A1917"/>
<path d="M202.355 20.1889C205.393 18.9941 206.901 18.7239 208.985 16.2218L208.303 15.3085C205.138 15.4758 203.456 16.6973 200.64 18.1881L202.355 20.1889Z" fill="#D49700"/>
<path d="M26.0278 178.378L27.3237 176.096L26.8615 174.971C24.4687 175.213 23.6701 176.037 21.7235 177.39C20.9783 178.742 20.1704 179.822 20.4494 181.431C22.4373 181.469 24.4554 179.53 26.0278 178.378Z" fill="#D49700"/>
<path d="M27.9548 160.987C29.9 158.993 31.9634 157.484 31.9557 154.614L30.2845 153.211C28.5926 155.379 26.7008 157.012 26.3652 159.779L27.9548 160.987Z" fill="#D49700"/>
<path d="M54.362 73.6421C51.0091 74.2589 50.79 73.7864 48.3159 75.8092L48.7174 76.9673C51.9801 77.7324 52.4526 76.987 55.9579 75.9206L54.362 73.6421Z" fill="#1A1917"/>
<path d="M55.3681 44.2634C55.3917 42.6719 55.4665 42.7155 54.3953 41.5509C51.9259 41.7342 50.6278 43.0116 48.7477 44.5158C48.6955 45.2145 48.8743 46.0018 48.9613 46.6988C51.3351 46.9785 53.2869 45.3841 55.3681 44.2634Z" fill="#D49700"/>
<path d="M190.113 52.5163C191.931 50.6524 194.17 48.9036 194.742 46.2838L193.718 45.3448C191.782 46.8297 189.562 48.0833 188.788 50.4971L190.113 52.5163Z" fill="#1A1917"/>
<path d="M22.0144 171.281C23.3879 169.87 24.5608 168.493 25.6958 166.883L24.7695 165.709C23.1478 166.527 22.0954 166.995 21.1658 168.654L22.0144 171.281Z" fill="#1A1917"/>
<path d="M413.606 102.638C419.295 107.202 440.531 126.733 445.694 126.693C444.216 120.302 418.214 108.318 419.255 98.7085C423.494 95.5608 434.009 99.4334 438.636 100.825L438.39 98.244C434.136 96.7009 419.305 92.332 417.137 91.045C418.027 85.6322 423.399 91.0468 417.586 84.9668C413.556 80.7636 382.329 65.691 382.254 65.1675L385.294 64.6368C382.051 59.0873 367.042 58.1979 361.239 57.5843C355.995 53.4441 340.6 42.0669 338.218 36.1541L335.28 35.6828C332.798 33.6357 330.664 31.9821 328.505 29.5597C328.333 32.0193 329.934 34.4126 331.228 36.5125C339.528 42.5922 355.435 54.6742 361.078 63.2788C362.786 65.8712 363.979 72.1773 366.27 76.1008C367.258 74.6063 366.656 72.4045 366.49 70.2328C372.547 78.327 387.223 94.1298 396.132 98.627C397.568 98.712 398.758 99.5471 400.153 100.249C402.075 103.92 404.604 107.546 406.908 111.021L407.455 111.627C408.85 111.336 409.818 111.416 411.232 111.567C413.972 118.875 415.32 122.207 419.389 128.847C416.917 118.008 413.049 114.081 413.606 102.638Z" fill="#1A1917"/>
<path d="M411.228 111.569C410.601 108.118 410.069 103.38 407.369 101.018C404.831 104.061 407.874 108.157 406.903 111.023L407.45 111.63C408.846 111.338 409.814 111.418 411.228 111.569Z" fill="#D49700"/>
<path d="M400.149 100.252C399.26 97.0137 399.033 94.7476 396.675 92.4537C395.041 94.0902 395.766 96.398 396.128 98.63C397.565 98.7149 398.754 99.5501 400.149 100.252Z" fill="#D49700"/>
<path d="M227.124 136.316C226.908 133.269 220.944 128.385 218.136 127.864C216.833 133.78 213.52 136.019 213 143.024L214.142 143.454C220.682 141.426 221.47 140.046 227.124 136.316Z" fill="#1A1917"/>
<path d="M182.016 306.857C184.443 311.37 194.818 321.746 198.635 325.657C195.184 318.213 190.588 310.146 186.629 302.854L184.103 303.164C183.379 304.535 182.844 305.527 182.016 306.857Z" fill="#1A1917"/>
<path d="M303.699 75.9684C304.966 76.8591 304.779 77.0195 305.537 78.5759L305.808 79.1273L306.98 79.5313C309.213 77.4351 309.948 74.5923 311.084 71.6539C307.912 72.1039 307.07 72.0676 304.542 73.9547C304.338 74.4101 303.782 75.5374 303.699 75.9684Z" fill="#D49700"/>
<path d="M438.625 100.833C440.999 101.826 440.916 102.289 442.797 101.729C441.167 99.1181 441.535 99.8809 438.379 98.2516L438.625 100.833Z" fill="#1A1917"/>
</g>
<defs>
<clipPath id="clip0_1736_33091">
<rect width="448" height="363" fill="white" transform="matrix(-1 0 0 1 448 0)"/>
</clipPath>
</defs>
</svg>
