<svg width="502" height="341" viewBox="0 0 502 341" fill="none" xmlns="http://www.w3.org/2000/svg">
<g clip-path="url(#clip0_1736_33090)">
<path d="M-17.5175 -331.104L77.923 -313.444L79.6635 -313.122L1330.13 -81.7447L1299.06 86.1763L1298.59 88.7435L1297.72 93.4148L1295.93 103.127L1295.81 103.756L1295.33 106.352L1293.44 116.581L1292.28 122.829L1290.99 129.825L1289.87 135.839L1289.4 138.423L1265.23 269.016L1239.96 405.595L1164.08 815.673L50.856 609.69L50.342 609.595L-183.568 566.314L-17.5175 -331.104Z" fill="black"/>
<path d="M-17.5175 -331.104L77.923 -313.444L79.6635 -313.122L1330.13 -81.7447L1346.38 146.019C1326.77 142.521 1311.81 139.723 1299.09 123.582L1306.99 127.41L1308.94 126.777C1290.35 114.805 1279.5 94.5415 1273.29 74.004C1277.71 78.5946 1281.36 82.8709 1285.48 87.7492C1279.01 71.4255 1271.27 55.6673 1259.55 42.4495C1256.38 38.8737 1253.57 35.6497 1250.67 31.835C1256.63 35.4567 1261.4 37.4483 1267.03 41.8352C1252.97 14.7187 1216.52 10.7885 1189.29 14.0765C1181.85 14.9751 1174.86 16.873 1167.36 17.5801C1176.05 9.34534 1178.21 7.49487 1189.51 3.8527C1172.78 0.785759 1158.69 -1.58551 1141.44 1.21941C1146.38 -1.84188 1152.22 -4.27956 1157.54 -6.6896C1146.79 -8.25731 1138.39 -9.9245 1127.53 -8.20749C1122.1 -7.3491 1111.91 -4.57011 1107.01 -4.68291C1105 -5.6698 1105.76 -4.93962 1104.73 -7.03495C1104.64 -9.92791 1106.01 -12.2809 1107.2 -15.0097C1099.29 -13.4751 1096.12 -12.08 1088.8 -8.5795C1080.47 -4.59381 1042.73 30.7547 1036.19 19.4124C1036.21 16.0066 1039.85 12.4548 1041.78 9.6834C1051.03 -3.55235 1062.3 -10.4726 1076.46 -17.4799C1059.87 -18.8883 1049.67 -15.9203 1036.26 -6.10469C1022.3 4.1064 1012.06 15.7625 1002.56 30.0216L1000.6 27.2165C1002.26 18.3316 1001.99 8.91338 997.72 0.803514C996.821 21.8476 992.199 30.5685 982.092 48.4118C981.703 43.0827 981.243 39.4292 979.361 34.3722C974.236 51.0382 905.403 20.1342 888.96 28.3423C877.638 33.9943 853.21 43.7531 840.54 43.2657C826.971 42.7426 812.363 39.0816 798.084 41.6948C797.239 41.8493 797.312 38.8777 796.125 39.3384C792.141 38.9483 787.833 40.3464 783.855 40.8039C783.222 40.8786 781.911 38.9539 782.069 38.9457C762.385 39.8395 742.925 44.7458 723.844 49.2609C716.755 50.9378 708.324 53.6512 701.396 54.5738L700.278 54.9482L698.821 53.668C693.716 54.2947 664.76 68.5925 656.921 71.3439C657.21 69.8929 657.163 69.4112 657.136 67.9786L656.438 67.6297L655.479 68.6586C646.228 73.0465 636.586 78.8843 627.206 83.6041C621.878 86.2819 609.303 91.2761 605.081 93.9761C593.671 101.276 581.493 112.29 568.536 117.468C571.828 113.384 574.074 110.706 577.772 106.937C562.61 116.25 548.045 131.276 532.139 140.117C528.831 141.956 524.426 142.859 520.72 143.798C522.038 140.777 524.809 134.901 525.747 131.99L524.626 131.793L523.181 132.234C520.434 129.657 523.398 106.143 521.331 99.0458C519.462 101.461 521.7 134.752 512.274 138.945C510.312 135.119 513.534 123.147 513.203 116.874L513.159 116.164C511.88 118.415 510.955 120.073 509.408 122.19L509.504 121.38L507.527 120.91C507.132 124.167 506.327 130.051 504.308 132.648L503.119 132.692C500.162 127.845 503.523 98.8837 500.364 91.8974L499.569 91.84C497.567 96.6424 501.875 124.251 492.236 122.883C491.163 120.388 493.701 112.969 492.666 109.047C490.967 109.827 489.862 112.068 488.611 113.847C487.713 112.14 489.068 105.909 489.375 103.36L487.994 107.305L486.82 108.269L486.076 107.152C483.11 105.412 482.064 98.1287 480.635 93.8927C480.248 99.302 479.387 109.263 476.379 113.743C475.963 115.169 475.174 90.6694 475.127 90.5082C472.57 91.9873 471.438 101.28 469.989 104.329C469 106.406 468.045 108.033 466.857 109.99C467.065 104.528 468.24 98.4738 468.105 93.0215C467.994 88.5229 465.459 92.1216 463.006 90.0632C463.214 88.7959 463.585 87.7751 462.988 86.7188C461.811 86.9563 460.39 87.2424 458.723 87.5784C455.958 91.8809 458.293 98.729 453.859 102.261C452.713 101.284 453.328 99.6769 453.533 97.649C454.461 88.4617 454.112 84.4321 450.646 76.0362C450.498 80.4209 450.668 89.335 446.625 91.7946C442.058 81.9723 452.959 73.4676 440.144 58.2275C438.331 63.4807 435.283 78.7808 430.513 81.3788C427.642 78.958 426.337 65.7476 424.893 61.0711C422.239 52.4772 418.382 48.106 413.191 40.8765L410.488 55.3654C405.346 41.5276 407.848 32.9376 399.716 16.2969L399.185 19.109C396.039 35.4655 392.559 43.613 378.576 53.0779C383.793 37.1298 385.831 31.1979 383.414 13.6671C378.822 24.7404 373.121 39.6551 358.655 40.2229L358.085 39.2831C359.307 35.2122 364.006 28.5768 366.364 22.4467C359.614 31.263 353.041 38.5505 342.434 42.7651C338.895 44.1707 330.771 47.2184 327.013 46.9353C327.327 45.5476 328.659 44.7128 329.877 43.5691L329.593 42.5863C328.877 40.7486 328.593 39.8966 328.157 37.976C325.692 37.4878 322.84 39.6335 320.788 41.002C318.141 42.7652 315.539 44.5945 312.983 46.4883C305.172 46.9768 295.713 47.862 288.074 47.2004C289.887 46.5323 297.714 43.8624 298.71 42.9403C297.782 39.8685 298.359 40.1902 296.245 38.2768C285.387 40.9718 278.512 41.3422 267.542 42.423C276.451 38.8828 278.192 38.2266 285.286 31.8677C269.957 33.9947 270.083 37.2099 250.911 36.3639C255.129 34.609 264.867 30.9046 267.908 28.0105L267.439 27.2481C263.018 26.6709 250.394 27.8354 245.369 28.1454L245.891 25.9351L247.142 24.9494L246.841 24.2634C244.76 24.0568 226.379 25.6324 223.961 26.0288C208.154 28.6199 191.808 33.0605 176.25 36.9347C170.357 38.4613 162.286 47.5463 155.835 47.1134C154.375 47.0149 152.717 42.864 149.779 42.0721C145.233 42.3326 142.746 46.6555 139.958 49.8848L124.391 55.0766C118.983 64.112 116.2 71.6244 106.139 74.824C94.7199 78.4562 81.661 70.4649 74.6066 75.5205C72.4279 76.3123 72.191 76.5338 70.4927 78.1276C68.3931 79.5518 66.169 80.9197 64.3613 82.6749C54.4401 88.5487 44.2254 87.7549 32.6463 89.1861C31.6148 88.5373 31.5261 88.6822 30.9024 87.7788C27.9636 89.2397 19.8109 87.3174 17.2714 85.2042C3.84647 88.2652 7.68653 90.6395 8.44632 101.481C9.33296 114.123 16.9299 123.062 19.6296 133.696C30.9732 141.769 42.0198 142.646 46.0123 157.154C48.4789 166.12 51.5027 170.519 58.4753 176.612C51.1096 148.765 58.7893 150.272 84.3892 147.985C85.935 151.618 86.5073 152.854 87.177 156.694C89.6166 156.301 92.8052 155.881 95.1203 155.275C96.1493 154.201 98.3522 151.671 99.5417 151.12C104.038 151.877 111.942 153.437 116.235 153.784C117.544 156.327 117.385 157.02 119.536 158.409C121.828 157.55 122.123 157.149 124.049 155.537C133.936 163.884 138.222 168.59 141.993 181.665C127.594 181.366 126.052 188.041 118.602 197.936C113.056 205.204 104.421 209.45 95.2769 209.405C93.1196 209.397 91.368 209.139 89.2559 208.78C91.5406 210.24 91.0215 209.441 91.6831 211.68C91.4719 213.164 91.3116 212.497 92.2299 213.731C91.9045 215.302 91.4201 215.673 90.4009 216.892L90.4613 218.339C98.2775 220.818 99.7674 220.295 107.266 220.928C114.313 221.522 127.328 217.261 131.56 220.2C135.709 228.348 126.247 236.687 119.618 239.796C105.145 246.585 93.1767 240.779 80.1446 234.625C80.661 245.046 82.7649 247.252 89.4331 255.332C87.4374 256.842 86.2037 257.131 85.8811 259.048L86.3777 259.299C88.2793 260.277 88.72 260.532 90.3155 261.921C90.5349 263.957 89.3962 265.385 88.0956 267.283C103.49 268.774 108.363 270.483 123.522 264.262C130.327 252.751 138.9 249.882 148.263 240.858C149.617 240.94 150.172 240.231 151.605 239.365C157.415 239.131 169.936 236.577 173.671 237.745C182.122 240.387 184.252 242.313 194.047 244.325C193.288 242.407 192.188 239.849 191.532 237.954C198.128 241.268 201.547 241.842 206.983 243.729C213.689 246.058 224.722 264.751 226.954 271.53C229.192 278.329 230.742 287.779 233.978 295.231C236.269 284.878 238.372 275.402 239.811 264.852C246.798 272.711 250.425 278.514 255.861 287.546L255.602 288.311C254.026 293.067 255.088 300.888 250.645 304.113C240.163 311.724 227.632 317.333 216.263 323.74C208.169 328.302 195.056 339.944 186.95 342.469L186.582 341.892L187.548 339.487C180.401 341.942 167.638 349.006 160.482 352.35C155.9 354.493 128.724 371.776 124.714 371.263L125.227 368.873C123.084 368.036 111.379 373.298 108.215 374.652C101.902 377.355 98.4935 377.745 92.1785 379.401C85.3624 381.345 79.3385 385.156 72.2294 385.95C64.4257 386.861 54.7866 384.744 47.2791 387.301C33.3572 392.081 19.8975 398.743 6.27547 404.245C-7.60754 409.855 -11.5871 422.884 -11.463 436.775C-11.3774 446.501 -15.5259 445.713 -22.533 450.248C-27.7748 453.64 -29.6433 457.622 -32.8376 462.692C-31.2679 463.051 -28.0141 463.687 -26.6464 464.232C-15.6765 454.586 -14.8674 452.946 -1.05624 451.534C-3.11939 435.937 2.50194 425.029 15.9425 417.234L17.1015 418.823C4.68604 428.706 1.41904 438.274 6.25548 453.636C-2.81087 463.213 -6.04107 465.616 -7.88409 478.578C7.003 469.2 9.67903 462.285 28.2962 460.061C23.8672 441.563 34.3069 429.158 51.8657 424.731C37.2761 433.804 27.0553 442.153 33.9674 460.77C33.1065 462.047 32.2588 463.333 31.4244 464.628C29.4193 467.795 24.9322 476.899 25.7284 480.497C34.2456 484.087 46.0162 463.014 49.5343 461.14C62.0638 454.47 79.4183 451.067 92.7868 445.552C100.818 442.234 101.452 440.269 104.701 432.739C110.183 433.222 116.394 430.302 121.673 428.367C127.002 426.944 132.287 425.37 137.522 423.637C134.126 422.968 130.375 422.417 126.932 421.834C138.974 415.89 150.336 420.306 162.271 411.722C161.625 412.188 189.553 403.42 190.158 403.246C205.296 398.977 221.095 397.559 236.751 399.061C245.73 399.892 260.314 403.455 266.433 403.777C266.583 402.805 266.555 403.181 266.588 402.234L266.604 401.581C268.946 401.216 273.135 402.496 275.625 403.097C276.389 403.402 277.065 403.737 277.864 403.87C290.357 407.456 299.673 412.262 310.873 415.926L310.203 414.081L310.829 413.516C324.15 416.6 336.599 422.796 349.789 424.508C359.17 425.727 364.834 420.345 371.396 414.332C372.369 408.077 372.388 401.072 373.485 394.393C374.93 385.594 377.053 378.149 379.371 369.579L381.268 369.357C380.957 373.723 381.659 382.306 381.292 384.771C379.239 398.544 376.345 414.146 377.52 428.224C378.628 441.508 383.991 456 385.404 469.51C364.394 480.892 351.055 481.391 327.797 481.177C324.715 481.151 321.626 480.947 318.546 480.921C293.302 483.599 269.658 471.583 244.304 473.948C238.163 474.526 226.539 475.505 221.138 477.963L215.985 479.765C205.754 482.404 196.751 486.774 190.17 495.246C188.677 497.167 185.413 501.578 183.198 502.332C168.633 507.286 155.727 516.057 141.713 521.847C132.551 525.63 120.422 524.624 110.852 527.119C103.317 528.821 98.6347 535.467 92.323 538.579C84.8827 542.245 76.6902 540.593 72.3308 549.136C70.7456 552.245 68.7702 556.513 65.7675 558.441C61.5221 560.439 55.7513 562.971 51.778 565.175C51.258 569.468 50.755 569.722 48.8622 573.522L44.9181 570.989C40.0742 579.708 38.6571 584.365 38.2346 594.222C34.4557 597.251 31.1701 600.318 28.2715 604.232C34.6016 605.437 43.2162 607.324 49.4397 607.87L50.3421 609.595L-183.568 566.314L-17.5175 -331.104Z" fill="#EAAC00"/>
<path d="M486.088 107.154C487.903 98.9121 484.351 91.9777 485.417 84.5511C486.724 82.8115 486.906 82.5124 488.856 81.5906L490.099 82.2322C492.611 87.7262 490.868 97.5861 489.387 103.362L488.006 107.308L486.832 108.271L486.088 107.154Z" fill="black"/>
<path d="M90.4667 218.34C84.8935 217.197 75.2048 209.665 79.4731 204.947C81.9503 204.937 86.1929 207.566 89.2614 208.781C91.5461 210.241 91.027 209.442 91.6886 211.681C91.4773 213.165 91.317 212.498 92.2354 213.732C91.9099 215.303 91.4256 215.674 90.4064 216.893L90.4667 218.34Z" fill="black"/>
<path d="M296.246 38.2751C307.42 35.3447 308.464 32.3077 316.862 28.7751C311.638 34.4254 306.01 39.9477 298.712 42.9386C297.784 39.8667 298.36 40.1885 296.246 38.2751Z" fill="black"/>
<path d="M17.2626 85.2051C22.7778 83.727 26.6624 82.8814 30.8936 87.7797C27.9548 89.2405 19.8021 87.3183 17.2626 85.2051Z" fill="black"/>
<path d="M329.602 42.5855C331.384 41.3047 332.899 39.8546 334.981 39.7362C333.956 41.5913 331.878 42.6024 329.886 43.5683L329.602 42.5855Z" fill="black"/>
<path d="M849.675 81.9216C851.776 78.1406 854.039 73.7471 856.61 70.332C855.172 77.4447 850.868 83.932 849.988 88.3187C848.505 93.0239 847.925 96.5283 845.396 100.744L844.217 100.088C842.722 101.989 842.518 102.248 842.074 104.609L850.523 99.4063C853.282 93.1762 856.797 84.6235 860.174 78.954L861.051 79.2518L861.291 79.8317L860.74 81.6283L861.505 82.5701C860.011 87.0031 855.142 93.8266 852.79 99.5101L852.581 100.017C857.671 95.6813 865.843 89.322 870.07 84.6876L871.847 85.2348C867.994 90.1683 866.545 91.6754 861.781 96.0118L860.37 96.063L858.822 99.1667L858.397 99.224C857.524 99.5995 855.917 100.232 855.16 100.678C848.759 104.083 830.695 113.033 826.537 117.922C830.871 121.056 841.854 112.932 845.349 110.89L845.772 111.728C843.475 117.154 833.71 120.718 828.271 121.127C827.011 120.912 825.577 120.536 824.373 120.68C811.113 125.036 791.233 149.647 786.861 162.384C795.419 157.147 797.456 156.506 804.852 149.898C805.469 150.425 806.823 151.789 807.434 151.868C818.616 146.568 819.576 148.774 832.193 139.952C833.81 140.775 835.251 141.593 836.82 142.491C829.196 144.785 803.882 156.134 797.767 160.53L797.52 162.341C798.055 166.547 799.937 177.565 798.65 181.098C797.488 184.289 789.631 196.703 792.359 200.238C792.899 201.4 793.293 202.327 793.997 203.412L794.683 202.683C799.715 201.09 803.429 199.699 808.306 197.73C812.316 189.814 812.769 188.729 811.794 179.946C812.786 176.129 812.199 173.967 812.04 170.046L813.974 170.111L814.488 169.321C820.499 160.557 825.177 156.57 834.332 151.342C828.109 157.316 821.219 163.253 816.903 170.686L816.071 171.544C816.749 172.44 816.904 172.671 817.693 173.481C817.188 174.223 815.398 176.946 815.285 177.593C814.834 180.18 814.943 193.858 816.084 195.271C819.316 192.623 819.745 186.664 821.974 182.97C822.948 186.019 821.768 187.429 821.848 190.456C821.997 192.847 821.615 192.412 822.83 194.011C830.595 193.13 838.704 171.337 842.286 164.887C846.72 156.922 850.763 151.475 852.131 142.321C852.31 141.131 859.086 133.384 860.421 131.834C862.559 113.475 867.417 111.825 881.282 99.6037L882.117 101.083C876.919 106.705 858.745 121.064 864.818 129.108C867.176 128.761 869.058 126.348 870.158 124.376L872.057 124.74L872.884 124.17C877.395 122.706 879.278 121.468 883.049 118.668C883.338 121.999 883.351 122.074 880.526 124.177L874.384 126.989C871.55 126.711 869.762 128.832 867.963 130.907C850.113 143.627 857.644 145.334 847.47 160.154C852.991 158.12 860.773 155.494 865.567 152.35C882.288 141.394 880.113 125.965 896.972 115.4L898.215 116.298C890.784 122.365 885.42 130.054 881.089 139.41C881.097 139.554 881.098 139.696 881.099 139.838C885.014 136.884 888.835 131.054 892.41 127.369L892.856 129.626C889.652 135.213 887.075 140.863 880.625 143.465C875.477 145.541 874.361 147.675 870.989 151.663C869.324 152.203 868.02 153.954 866.771 155.296L866.103 155.708L862.634 157.13C853.323 159.488 863.715 168.946 859.068 172.874L856.317 171.593C855.198 172.234 855.33 171.998 854.533 172.92C856.416 174.918 856.646 175.073 855.998 177.438C854.087 178.902 854.998 178.535 852.492 178.728C850.42 177.751 851.069 178.512 850.343 176.516C850.976 173.789 850.907 174.533 853.623 172.432C849.687 168.438 850.605 172.048 848.458 169.193C849.571 163.619 854.189 166.213 857.364 162.736C857.791 160.609 857.892 161.611 857.049 159.62C839.139 165.198 840.341 180.843 833.106 195.777C842.045 191.789 846.923 188.339 856.64 186.142L857.005 188.065C851.447 189.198 847.514 192.209 842.773 195.248C858.536 194.799 863.197 188.515 874.792 179.106L877.585 180.454C883.407 182.35 898.054 169.026 902.369 164.907C907.452 160.055 907.009 157.522 907.788 151.03C912.06 145.968 922.493 142.181 928.776 137.718L929.491 137.201L930.247 138.489C924.861 142.511 920.898 144.841 915.055 148.244C911.252 156.988 910.314 159.852 904.13 167.305C903.364 168.69 903.263 168.608 903.462 170.144L898.531 172.995C897.875 173.272 897.139 173.385 896.858 173.947C895.485 176.699 894.035 176.407 891.924 177.551C894.225 180.38 900.142 181.028 903.842 181.737C902.186 183.26 902.412 182.589 902.301 184.363C904.183 186.257 905.257 185.933 907.791 186.472C915.166 187.81 918.027 183.381 924.072 181.384C924.156 183.288 923.533 183.671 921.931 185.452L918.953 186.837C904.653 194.271 880.089 185.753 871.158 189.405L868.074 190.957C853.852 197.199 845.669 203.983 830.017 201.512C828.642 201.294 826.776 205.823 825.103 206.039C818.678 207.365 813.455 205.908 806.602 206.903C808.406 208.149 810.52 208.35 811.463 209.133C815.971 213.864 824.821 210.1 825.314 215.307L828.847 217.617L824.444 218.757C823.293 218.027 823.495 217.707 822.86 216.14C820.904 214.864 807.957 212.524 804.905 211.917C812.362 219.651 822.658 222.858 832.692 227.034C848.221 219.908 861.088 213.521 874.522 202.708C876.234 201.331 891.301 199.418 895.689 197.699L896.512 197.369C896.499 199.904 896.87 199.222 895.603 200.962C893.577 201.388 890.847 201.433 889.528 202.453C883.577 202.949 880.096 203.335 874.993 206.675L875.097 207.583L875.889 207.937C877.839 208.838 879.243 210.813 881.296 209.756C887.516 210.604 905.367 215.866 908.821 220.299C905.286 220.643 893.55 215.4 888.891 214.063C884.109 212.727 879.239 211.715 874.322 211.036C862.551 216.539 849.604 221.629 838.456 229.1L847.305 234.424C851.794 232.746 853.176 231.934 857.294 229.389C858.374 229.22 859.405 228.983 860.448 228.679L861.733 229.381C861.118 230.98 860.269 231.339 858.853 232.33C846.115 239.052 845.611 237.654 833.247 230.692C842.184 240.028 841.456 241.573 853.137 246.745L852.708 247.701C847.976 248.635 822.722 229.685 818.912 225.302C813.719 224.198 809.032 221.978 804.753 220.975C797.194 219.204 788.939 235.234 787.384 240.145L786.177 242.22C783.824 246.589 775.172 263.443 777.341 267.538C779.461 267.704 778.635 267.827 780.729 266.295L782.237 268.55C786.359 265.324 787.191 257.591 793.831 251.647C792.471 255.061 787.043 266.78 787.016 269.205L787.873 269.537C791.287 267.383 792.537 263.866 794.471 263.635C794.539 265.366 794.535 265.829 794.949 267.492L795.914 267.826C797.065 266.868 797.796 266.226 798.857 265.166L799.497 265.455L799.442 268.331C800.944 268.487 801.948 267.585 803.313 266.754C805.456 266.871 804.622 266.448 805.995 267.82C804.586 271.389 796.361 275.493 792.77 276.546L792.16 276.088C792.635 274.145 792.87 273.317 792.998 271.34L792.029 271.245C790.399 273.103 790.33 273.841 788.253 274.326C769.573 268.141 773.69 279.763 774.117 293.165C774.192 295.628 774.497 298.169 774.632 300.641C775.632 297.036 779.122 282.996 780.865 280.893L781.638 281.425C781.265 285.172 779.763 291.08 778.845 294.829C775.858 306.998 776.725 314.192 779.76 326.002C781.14 319.572 782.558 313.088 784.992 306.956L784.983 307.815C784.607 325.37 778.341 331.353 788.68 349.515C788.571 343.044 788.679 339.222 789.864 332.673C792.521 351.417 788.721 356.946 807.037 371.206C806.815 367.622 806.501 363.728 806.405 360.166C811.158 374.535 812.855 375.697 827.518 380.46C825.863 376.307 824.758 373.566 823.604 369.206C827.586 374.133 831.649 379.464 836.538 383.5C843.946 385.131 850.416 385 857.797 385.716C854.581 384.078 852.032 382.996 849.391 380.533L849.008 379.295C855.573 379.823 863.133 383.507 870.842 383.219C891.189 382.459 924.041 372.337 940.788 361.125C926.72 355.244 912.889 349.631 899.305 342.639C895.266 340.56 887.824 334.219 885.991 333.936L885.029 335.826C883.959 335.244 880.2 330.879 879.364 329.736C876.035 325.178 860.432 314.609 858.665 310.548C858.294 307.737 854.152 302.316 852.347 299.751C853.873 298.309 853.508 299.141 853.879 297.394L852.841 296.494C851.98 292.903 851.106 289.389 850.481 285.745C858.461 299.697 855.009 302.39 867.501 314.329C864.653 306.216 862.967 302.235 862.217 293.595C864.608 299.469 866.832 305.806 869.886 311.292C872.617 300.876 876.271 288.261 878.45 277.844C875.51 277.366 872.111 277.166 869.89 275.376L869.469 274.044C872.018 271.195 877.078 272.165 880.674 272.374C881.96 267.299 882.536 262.31 886.705 259.051L887.84 259.172C889.107 261.775 888.686 264.457 887.77 267.087L885.446 273.766C888.268 274.882 891.665 275.831 893.414 278.149L893.933 279.833C891.423 283.134 887.913 281.288 884.266 280.546L874.012 317.538C878.378 321.672 884.923 327.678 889.91 331.037C885.949 323.935 884.863 321.312 883.301 313.091C888.833 322.988 891.223 328.83 900.165 336.229C902.046 328.013 904.032 319.522 905.623 311.253C902.942 310.553 899.567 309.995 897.615 308.261C897.572 306.289 898.425 305.282 900.145 304.15L903.149 304.907C906.085 305.265 906.389 305.79 908.774 304.636C911.22 301.268 910.445 299.32 912.507 297.81C914.956 298.368 914.498 297.864 915.703 299.444C915.418 302.856 914.586 303.895 915.705 306.604C917.495 307.819 918.88 307.541 921.095 307.523L919.92 313.8L911.662 312.235C909.576 321.67 907.096 330.839 905.012 340.12C909.594 341.506 912.681 342.698 917.059 344.488C913.801 339.181 912.215 336.171 909.63 330.5C914.423 335.086 917.982 340.273 922.696 344.736C927.792 349.561 936.481 350.678 942.761 353.519C938.54 347.16 936.346 344.562 934.269 337.18C939.299 343.757 944.002 348.906 949.613 354.959C951.93 355.712 954.558 356.924 956.775 356.414C956.738 354.112 954.68 351.811 953.293 349.412C970.379 362.448 987.475 367.783 1008.83 365.83C1022.64 364.566 1039.13 351.79 1051.57 346.507C1057.1 343.148 1061.37 338.43 1066.85 335.298C1071.45 333.553 1081.46 324.123 1087.01 320.739C1094.48 316.188 1101.06 312.823 1108.88 308.851L1110.62 308.245C1119.17 304.868 1122.12 304.684 1130.79 303.182C1143.59 300.964 1145.22 299.489 1158.47 301.684L1160.87 300.45C1168.44 298.8 1177.02 301.55 1184.55 302.861C1185.13 302.962 1186.89 301.619 1187.37 301.25C1194.32 300.787 1219.69 316.366 1226.24 320.712C1222.68 315.892 1218.88 311.826 1214.86 307.392C1224.63 313.651 1244.23 330.473 1246.79 341.615C1247.94 346.442 1247.05 351.527 1244.33 355.679C1240.7 361.202 1235.26 363.837 1231.15 368.458C1222.49 378.191 1218.24 389.249 1224.92 400.88C1210.91 410.879 1209.82 418.066 1214.12 434.063C1220.97 423.665 1228.34 409.542 1239.97 405.598L1164.09 815.676L50.8637 609.693C51.8312 608.028 52.359 607.942 53.3067 605.77C54.2889 607.748 54.2846 608.632 56.5089 609.37C61.5318 611.034 67.1425 611.412 72.3044 612.388C75.4911 613.379 86.4831 616.563 89.1378 615.475C95.4997 616.7 128.221 623.408 132.453 622.973C134.487 621.594 137.666 614.765 142.695 612.838C144.674 612.081 150.985 598.884 152.572 595.701C150.302 582.094 162.919 584 170.784 578.514C175.56 575.186 179.791 570.641 184.872 567.403C192.054 562.832 199.456 559.316 207.423 556.32C217.803 552.388 227.553 547.456 238.811 546.695C248.845 546.013 258.816 547.552 268.797 547.248L269.379 546.614L266.511 544.886C268.738 543.237 300.633 546.171 305.316 546.5C308.053 546.694 309.819 544.292 312.873 544.258C321.812 544.157 331.835 547.501 340.397 547.316C340.673 547.197 340.949 547.085 341.223 546.973C346.212 545.698 358.225 548.928 363.673 549.806C389.06 553.919 428.753 561.413 452.152 571.336L454.353 570.334C446.984 566.283 441.768 563.719 434.297 560.084C435.561 559.631 437.214 559.44 438.58 559.216C443.897 561.786 450.901 564.177 455.724 567.37C466.752 574.677 502.686 592.975 515.376 589.975C513.143 588.323 505.222 587.103 502.467 585.844C493.382 581.693 486.359 577.475 478.876 571.109C486.129 573.465 516.777 588.288 523.475 583.866C517.657 582.021 512.525 581.289 506.664 579.013C494.452 574.29 488.686 568.964 479.758 559.677L481.344 558.787C486.954 561.989 488.534 562.451 493.473 566.944C494.038 564.211 483.368 556.807 485.699 549.719C490.403 543.404 508.572 543.139 515.471 546.573L516.25 545.342C510.43 541.523 505.513 538.048 498.068 538.474C495.658 538.613 494.471 539.536 492.276 538.769C495.896 533.023 510.992 536.02 515.739 539.164C522.449 543.618 523.899 547.955 525.821 555.224C526.771 550.827 527.247 547.445 527.828 543.014C525.562 538.308 522.58 532.612 519.227 528.664C515.926 524.766 513.816 527.009 511.057 523.607L511.124 521.7C501.104 522.249 501.222 514.778 503.499 507.13C509.54 486.833 526.128 498.136 535.684 508.39C540.647 513.717 545.169 520.617 552.333 523.127L558.518 523.393C544.769 516.521 539.886 509.922 534.669 495.45C547.941 511.774 549.097 512.886 568.758 519.803C561.168 514.588 552.075 503.924 552.057 494.163C554.953 492.27 570.786 500.234 576.852 500.996C584.022 501.894 584.234 502.11 591.627 501.73C586.837 500.768 582.072 499.71 577.335 498.534C595.102 494.241 614.078 494.268 629.94 481.294C629.067 478.656 629.935 476.101 630.513 473.344C625.888 472.372 619.271 471.059 617.231 466.16C617.205 458.429 628.664 459.317 633.856 459.801C641.51 460.513 648.79 460.927 656.327 458.996L657.142 458.786C657.017 458.209 656.082 455.65 655.829 454.883C652.857 454.542 646.505 453.966 645.44 450.894L646.078 450.392C658.193 453.546 675.336 447.371 687.023 443.534C681.863 442.768 663.829 439.825 661.686 435.55L663.35 433.879L663.211 433.269C652.603 431.312 647.39 429.727 637.628 424.996C632.756 422.636 636.911 423.904 635.299 420.812C630.158 419.944 622.234 421.169 616.816 421.283C611.767 421.388 607.126 421.205 602.082 420.989C610.101 418.258 620.068 418.934 629.805 415.195C605.042 413.307 594.635 416.436 572.141 425.968L571.167 424.542C577.645 421.017 601.068 410.619 607.876 410.271C606.915 408.036 606.704 407.483 606.268 405.095C587.483 405.323 578.825 414.969 562.5 421.212C554.37 424.322 522.88 430.728 517.004 423.731C519.617 423.101 522.66 424.421 525.288 424.368C530.671 424.261 537.948 422.999 543.029 421.36L542.078 420.469L548.855 417.202L548.084 415.962L549.956 414.747C550.702 413.36 550.763 412.226 551.009 410.675C549.958 408.626 550.569 410.989 547.434 409.323C545.354 409.64 539.743 412.968 536.619 413.595C524.215 416.088 511.618 418.4 498.993 418.99C505.813 415.025 514.984 415.452 523.037 413.35C533.774 410.545 540.785 407.335 550.278 401.785C542.361 403.38 534.116 403.728 526.232 405.831C511.485 409.764 511.655 414.852 495.916 413.35L495.965 412.478L495.877 412.449C517.061 408.052 537.703 395.338 560.799 397.009L593.386 378.939C570.356 378.017 564.313 383.092 542.495 390.628C541.185 391.015 531.583 395.275 531.255 395.21C519.013 392.766 491.369 413.353 482.041 401.052C483.174 399.353 485.545 399.416 487.54 399.573C498.125 400.41 502.347 397.181 511.737 393.344C509.726 393.013 498.879 391.053 497.477 391.682C496.256 392.228 494.766 395.653 490.086 396.046C485.789 396.407 477.258 396.873 473.663 394.147L473.525 392.749C475.415 391.779 484.638 393.4 487.567 393.02C490.138 392.686 491.612 392.34 494.149 391.655C491.877 390.583 479.834 388.726 476.676 388.183C476.166 387.459 475.299 387.088 474.475 386.591L473.384 386.861L473.259 386.236L474.515 386.894C477.432 386.905 478.789 387.009 481.531 385.881C488.992 386.596 524.495 391.092 528.826 390.168C536.174 388.599 544.062 384.331 551.189 381.709L550.791 379.963C552.727 378.328 552.333 379.13 552.771 376.948L551.809 375.418C544.812 378.915 533.161 383.991 525.43 383.314C526.519 379.091 529.353 381.11 533.086 377.847L533.253 375.218L532.547 375.17C530.568 377.021 528.664 378.195 525.967 377.413C518.291 379.956 492.003 386.594 487.591 377.316C490.117 377.046 500.167 378.84 504.285 378.47C519.729 377.082 527.216 369.567 539.011 364.435L540.791 364.234C541.521 362.534 541.5 361.654 541.702 359.789L540.307 359.494C540.908 356.247 542.443 356.738 543.627 353.576C532.699 352.42 528.822 356.316 521.313 355.237L521.52 354.507C524.279 353.412 526.151 353.04 529.034 352.394C524.269 351.174 518.64 349.837 513.988 348.396C504.844 351.364 501.115 350.286 492.042 347.931C498.144 346.989 501.562 347.106 507.483 346.666L507.832 346.01L505.033 343.926C513.313 344.209 523.81 348.137 532.704 349.057C553.591 351.22 574.041 341.37 594.714 349.329C592.524 343.689 591.129 342.107 586.716 337.896C571.026 335.412 566.306 341.095 550.961 342.224C547.905 342.448 542.932 340.377 540.693 340.672C532.836 341.707 524.566 345.528 516.936 341.145L516.942 340.332C523.412 340.167 526.097 339.978 532.441 338.791C528.675 337.963 515.91 333.936 513.845 334.265C505.708 335.562 493.227 341.693 485.207 344.107C474.45 347.342 464.374 350.732 453.879 354.309L453.527 353.545C456.658 350.466 460.523 348.794 464.534 347.006L466.314 347.17C466.55 346.338 466.712 345.87 467.032 345.067C472.739 344.394 485.251 343.749 488.746 338.645L492.29 335.943C487.864 333.106 447.347 341.943 444.059 331.828C444.362 331.625 471.504 336.043 474.955 330.096C469.421 327.027 471.903 324.416 468.209 327.399C466.6 328.698 458.607 326.809 454.927 326.864C451.322 325.569 453.011 323.849 449.396 323.613L446.298 322.39C443.464 320.971 442.75 320.746 440.803 318.197C443.489 316.976 458.167 324.367 464.885 323.483C464.652 321.843 459.959 317.5 458.508 316.032L455.33 314.123C452.044 311.397 443.03 304.027 441.249 300.808L442.044 300.592C445.077 301.464 448.587 304.073 451.315 305.884C449.763 301.647 449.575 300.797 447.152 297.222C444.711 293.619 438.562 290.687 437.542 287.895L438.068 287.433C449.828 291.958 452.408 301.402 458.723 310.138C463.084 316.169 476.465 327.139 483.897 328.906C488.983 330.115 501.533 331.55 506.227 328.844L506.422 327.658C502.603 323.476 490.761 321.928 485.116 319.15C476.061 314.694 467.592 311.318 459.678 304.974C466.364 307.979 471.104 309.376 478.055 311.254C477.544 310.023 477.317 309.061 476.978 307.789L477.652 306.739L480.185 306.25L479.671 306.075C469.633 302.644 443.051 289.017 438.618 279.979L438.997 278.939C440.859 280.082 442.523 281.619 444.234 282.975C453.807 290.491 465.332 297.293 476.951 300.99C483.409 303.044 488.179 303.961 494.575 306.991C495.595 305.105 495.703 304.882 497.154 303.337C496.272 302.618 492.949 301.06 491.097 299.69C492.334 298.783 493.587 299.059 495.196 299.105C497.456 299.547 499.377 300.157 501.165 298.728L500.868 296.665C496.906 297.331 479.288 295 475.933 293.438C461.304 286.626 445.787 282.319 440.138 265.632C446.092 272.27 447.651 275.71 456.457 280.413C467.856 286.502 477.339 290.925 490.511 291.508C493.205 291.628 496.272 292.437 498.854 291.703C498.004 289.827 472.45 278.5 467.187 275.067C459.395 275.215 445.738 272.828 444.335 263.315C444.902 263.138 453.973 273.298 460.195 270.685L458.69 269.333C457.911 268.071 458.098 267.279 458.462 265.887C456.625 263.002 448.586 252.839 448.374 251.017C451.287 252.244 454.62 255.928 457 258.246C458.168 256.886 459.13 255.859 460.397 254.59C456.557 248.757 453.615 246.089 450.903 239.461C467.135 254.901 461.666 260.469 484.175 269.764C478.66 254.149 459.797 253.272 457.689 227.734C460.968 235.357 468.371 252.044 476.723 254.396L477.11 253.158C477.834 252.732 478.335 252.281 479.001 251.751L478.787 250.47C478.48 246.602 478.208 243.538 477.508 239.77C476.7 235.424 469.197 218.33 469.808 215.499C472.594 219.616 480.117 238.044 481.116 243.31C483.109 253.808 479.631 255.731 485.78 265.947C487.522 264.825 488.724 264.504 490.638 263.837C488.699 259.28 488.062 257.557 486.987 252.745C491.105 260.522 499.71 275.785 507.529 279.932L508.232 279.324C507.492 274.952 497.765 257.402 494.981 253.61C485.553 240.771 476.292 224.604 474.315 208.582C479.275 217.778 484.048 233.843 489.622 241.702C499.094 252.408 504.316 261.686 510.713 274.227C514.945 282.523 512.702 303.684 522.097 304.616C522.752 300.995 518.388 293.849 520.992 291.23C522.341 293.708 522.135 295.075 523.231 297.361C524.594 300.204 526.27 303.227 527.79 306.002C536.523 308.724 545.344 311.161 554.236 313.31C552.086 311.908 549.945 310.493 547.814 309.063C529.576 296.868 526.324 295.953 517.134 274.403C515.82 271.321 512.363 264.557 511.808 261.764L512.614 261.259L514.17 262.155C516.22 260.959 516.485 260.833 518.847 260.929L520.619 263.566C521.752 262.526 521.931 262.401 522.869 261.106C523.294 255.557 524.893 242.483 522.991 237.937L520.814 237.749C518.739 235.46 520.15 231.844 516.66 227.44L517.919 226.816L518.25 225.242C516.4 214.291 514.255 211.232 509.419 201.181L510.947 200.267C516.832 210.642 520.469 218.936 523.895 230.338C524.841 233.488 527.721 237.718 528.394 241.162C529.949 261.738 524.756 269.262 539.593 286.1C541.116 264.782 539.289 260.667 534.463 241.304C544.697 257.364 540.737 271.726 545.661 288.685C546.057 290.047 549.233 291.982 550.444 292.899C548.828 265.5 549.279 258.625 536.225 234.109L536.42 233.257C535.554 231.634 535.311 231.442 533.69 230.571C534.078 230.1 534.231 229.843 534.561 229.334L534.125 227.99L532.991 227.718C529.848 220.122 527.793 215.801 523.704 208.702L524.806 207.206C529.093 214.253 533.081 221.517 537.078 228.663C540.957 235.599 550.062 247.413 551.991 254.974C557.905 278.143 552.472 295.4 565.983 317.464L574.26 319.479C570.613 307.921 560.81 290.209 562.648 278.805L562.998 278.388C564.836 283.387 565.591 288.425 567.362 293.345C570.416 301.814 574.836 310.257 578.865 318.314C575.682 300.866 572.021 282.252 563.362 266.523L561.906 263.616C555.924 247.175 553.452 242.652 544.014 228.665C539.575 222.085 529.665 197.592 527.769 190.242C535.265 202.171 542.484 218.163 549.534 231.043C546.698 220.527 539.754 199.255 538.028 190.002C545.631 203.61 551.528 228.169 558.946 241.838L560.254 240.876C560.772 239.073 560.457 237.649 560.259 235.773L559.323 235.828L559.021 234.924L560.034 233.274C553.325 222.523 550.758 209.844 548.081 197.693L549.328 195.937C550.729 201.559 552.169 207.171 553.649 212.772L555.276 212.233C555.762 214.6 556.092 218.062 557.634 219.626C559.642 219.292 558.85 219.752 560.147 218.306C559.68 216.942 557.977 215.009 557.075 213.727C557.386 212.502 557.502 211.761 558.461 210.845C561.028 216.325 562.3 223.752 564.301 229.488C564.8 226.57 564.161 225.684 563.707 222.658C565.4 220.68 566.279 219.94 566.71 217.312C566.101 215.383 566.646 216.118 565.126 214.952C564.54 211.389 564.044 208.514 563.148 205.015C562.082 200.858 559.333 195.595 559.33 191.598L559.874 191.538C564.168 199.301 567.688 211.77 569.589 220.55L570.324 220.478C570.518 222.406 570.536 223.263 571.124 225.089L572.191 224.805C570.746 215.583 571.785 215.927 568.923 206.459L569.52 205.472C567.048 198.751 565.528 195.589 565.127 188.406C569.126 195.983 573.776 204.907 576.155 213.055C576.494 208.315 576.47 191.417 576.972 189.291L577.443 189.393C582.372 202.183 579.417 213.854 578.554 226.387C578.233 231.062 578.905 245.159 579.269 249.996L585.124 254.582C582.944 238.117 584.56 221.843 586.833 205.512C587.361 201.738 587.97 194.552 589.015 191.108L589.7 190.794C590.692 193.928 587.497 219.803 587.405 226.331C587.623 225.924 588.143 225.323 588.446 224.933C588.445 225.93 588.458 226.927 588.478 227.923C588.569 230.889 588.263 231.147 589.972 232.758C591.405 231.229 591.436 227.94 591.569 225.745L592.65 225.645C593.808 216.737 594.407 207.945 595.402 199.073C597.162 211.374 594.409 219.149 595.188 226.711C597.283 247.097 603.997 246.966 600.28 269.993C602.566 272.536 605.31 275.766 607.681 278.142C608.332 257.631 609.547 254.855 599.883 236.39C597.812 232.429 597.899 194.404 599.814 191.231C601.653 193.317 600.758 198.409 600.765 201.167C600.814 215.247 599.342 229.013 607.273 241.47C609.25 244.577 612.501 250.477 613.831 253.805L614.672 253.824C616.963 249.054 611.449 240.125 610.418 234.846C607.815 221.437 607.168 206.582 607.213 192.912L607.724 192.982C613.589 211.159 608.666 222.613 617.942 242.989C617.275 232.875 616.905 223.143 614.892 213.169C614.295 210.215 610.825 194.359 611.445 192.77C614.277 195.891 621.038 221.404 622.374 227.206C624.04 216.914 624.829 205.623 622.827 195.332L623.316 194.785C626.367 197.422 626.974 201.939 627.251 205.813C628.491 222.944 623.965 240.968 618.783 257.165C616.735 263.563 611.974 273.224 612.097 279.804C612.187 284.834 615.136 294.423 616.434 299.764C616.638 289.543 616.927 273.121 621.287 263.571C622.387 267.042 619.904 272.112 620.386 276.827C620.382 280.932 620.431 285.039 620.523 289.144C624.417 278.983 626.999 270.475 627.941 259.642C628.313 255.352 628.582 244.118 630.994 241.49C631.979 242.712 631.434 244.704 631.321 246.711L632.395 246.349L633.703 247.627C635.286 247.201 634.943 246.961 636.109 244.999C636.18 238.291 634.031 218.641 633.33 210.806L634.874 209.635C635.376 214.055 635.792 218.756 637.056 223C641.93 239.36 642.881 258.862 642.954 276.158C645.869 263.828 647.688 250.76 646.521 237.978C645.801 230.138 637.821 211.325 639.516 203.673C641.628 206.6 643.452 216.238 644.949 220.138C646.159 223.307 647.381 226.158 648.777 229.279C648.21 225.136 646.503 212.44 648.397 209.229C651.118 224.642 651.604 234.781 655.914 250.732C655.742 239.341 653.883 225.336 655.131 214.618L655.672 214.453C657.291 218.243 657.193 219.397 657.18 223.589L657.61 228.916L657.152 230.252C658.644 232.486 655.905 239.933 658.786 241.757C659.129 244.062 659.473 246.982 659.974 249.204C661.039 246.355 661.659 244.179 662.461 241.467C663.621 237.588 664.189 223.039 666.527 221.183C667.699 225.625 666.827 231.145 666.403 235.721C665.121 249.375 656.249 260.84 649.494 272.594C650.355 272.904 653.576 273.999 654.188 274.441L657.832 269.684L658.432 269.786L657.791 272.147L659.067 274.851L660.402 275.066L661.143 274.37L661.496 275.441C668.21 262.18 669.901 237.004 671.267 222.413C672.028 225.51 672.536 227.176 672.59 230.38L673.657 235.945L674.15 236.077C675.4 234.211 675.247 233.786 676.966 232.921C677.205 235.892 675.175 242.339 674.097 245.226L675.617 245.395C676.295 247.616 676.224 247.962 676.229 250.328C677.215 247.095 678.633 240.573 680.222 238.051L681.046 238.564L681.281 240.384C682.199 241.568 682.323 241.852 683.55 242.758C682.581 244.28 681.952 245.436 680.68 246.722L680.019 246.395C678.933 247.777 678.611 251.578 677.357 254.712L673.619 264.467C678.765 259.758 684.641 250.878 687.661 248.641L688.229 249.07C686.585 256.666 682.472 260.763 677.523 266.47L678.068 268.598C676.468 269.488 673.347 271.494 671.766 271.689L671.133 272.976C671.955 274.013 671.896 274.005 673.003 274.712C670.976 275.887 668.018 277.234 666.891 279.092C668.8 279.371 674.206 277.262 676.425 276.561L676.622 278.436C670.877 281.275 661.695 284.703 656.735 287.93C636.184 301.308 624.667 319.894 619.404 343.483L620.369 346.174C624.283 338.411 633.411 315.011 637.245 309.662C634.648 320.241 629.056 335.567 624.719 345.398L625.758 346.141C637.055 326.764 638.363 312.192 654.694 295.765C648.805 306.181 642.204 316.661 638.476 328.023C637.105 332.195 635.728 336.361 634.383 340.541C639.009 336.064 644.318 331.609 649.209 327.356C650.087 309.15 657.481 296.882 673.715 288.449C681.312 284.5 691.624 275.297 699.767 273.331C699.694 273.357 695.789 277.283 694.38 278.243C685.784 284.093 667.127 292.161 662.223 300.788C661.41 302.796 662.059 303.037 661.886 304.71C660.494 306.937 659.775 307.952 658.889 310.494C659.152 311.721 659.499 311.873 660.386 312.778L660.631 314.617C653.784 318.116 654.968 321.723 654.629 328.812C669.358 319.72 678.389 308.829 690.378 296.452C692.43 294.333 698.738 285.622 700.423 285.232C699.109 292.923 683.665 307.354 677.822 315.134L676.571 316.23C676.827 317.79 676.785 317.683 677.798 318.902C673.697 320.469 672.661 321.217 669.948 324.987C670.398 326.861 670.61 328.73 671.81 330.154L672.314 330.112L673.19 331.596L670.661 333.198C668.692 334.683 666.907 336.199 664.682 337.229C661.649 340.34 654.664 342.378 650.767 344.018C639.793 348.638 630.215 359.978 624.743 370.348C629.105 366.639 634.442 358.686 638.94 356.075C659.355 344.21 672.322 337.831 688.39 320.362L689.383 321.688C669.409 346.074 648.679 351.297 631.89 371.631L632.971 372.705C650.442 358.873 662.05 362.782 677.171 340.754L678.513 341.56C675.256 346.877 672.443 350.416 667.789 354.534C667.064 355.175 663.673 358.059 663.168 358.69C664.147 361.085 663.845 362.458 663.7 365.043C681.157 357.172 687.493 346.393 692.5 328.349L694.162 328.669C690.702 344.281 688.419 356.655 674.627 366.052C658.795 376.843 637.984 373.529 634.511 395.424C634.198 397.41 634.154 397.795 635.078 399.68L636.255 400.272C640.978 398.249 643.228 386.456 646.428 384.649C647.438 392.353 641.618 401.521 639.671 408.362C656.728 393.528 653.713 388.309 664.103 373.681C659.198 388.677 656.749 397.389 646.032 409.332C650.927 416.421 654.309 416.093 661.906 420.168C660.187 413.31 659.126 407.824 657.934 400.843C661.127 407.639 662.34 413.922 665.043 419.982C669.956 417.853 672.217 416.707 676.841 414.003C671.493 405.687 668.07 400.901 664.434 391.719C668.583 396.882 676.128 408.881 680.9 411.376C683.255 411.45 682.37 411.596 684.632 409.818C685.099 406.523 679.738 398.973 678.537 394.947C677.44 391.31 677.02 389.495 676.415 385.671C680.991 395.142 682.755 400.982 689.913 409.157C688.411 401.093 687.733 396.997 688.065 388.584C688.884 387.172 688.317 387.695 689.907 387.049L690.348 391.982L691.657 391.05C694.143 396.963 697.844 394.176 699.11 402.49C699.487 402.07 702.487 400.638 703.212 400.255C705.267 398.708 706.723 397.866 707.902 395.542L709.757 394.084C711.813 393.307 711.133 393.639 712.666 391.749C713.872 389.868 713.248 390.224 715.016 389.681C717.368 386.163 720.946 381.576 720.728 377.349L721.108 375.071C723.238 368.491 714.605 357.695 711.02 350.919L712.099 349.429C715.487 354.657 718.995 360.381 722.94 365.133C724.379 359.271 726.782 351.362 724.764 345.642L726.469 344.075C727.119 341.926 726.931 341.581 726.574 339.281C726.563 338.126 727.307 337.413 728.02 336.433C729.143 332.786 732.875 322 732.33 318.874L733.229 316.737C735.812 315.909 735.927 313.852 736.788 311.407C737.125 310.211 737.85 309.416 738.595 308.407L738.736 307.794L740.614 304.74C745.14 296.54 752.375 289.802 755.247 280.796C757.723 273.039 758.71 264.871 759.723 256.824C753.487 253.637 746.934 252.306 740.043 251.588C737.669 250.888 736.496 250.675 734.463 249.16C731.35 248.881 730.632 250.443 727.659 249.042L727.299 247.013C726.409 246.821 726.223 246.612 725.564 246.826C722.088 248.105 719.172 249.078 715.624 250.12C714.833 248.992 715.051 249.616 715.05 248.15L717.715 246.143C723.287 246.042 724.967 244.061 729.565 243.927L730.041 241.61C732.614 239.474 733.499 240.097 736.881 240.21L736.181 239.064L737.292 238.356C736.495 237.48 736.145 235.508 735.818 234.257L734.516 234.527C733.359 236.516 733.77 236.5 732.053 237.466C729.519 235.936 724.111 236.84 720.872 237.279C715.462 235.55 716.358 233.356 712.746 231.876L711.029 232.621L710.415 230.2L710.64 229.282C708.513 223.931 700.309 223.617 694.999 222.631L695.103 221.884L693.997 222.016C690.246 219.558 687.953 216.647 685.152 213.213C684.559 212.299 684.158 211.85 683.448 211.018C682.654 209.716 682.115 207.997 681.583 206.531L679.393 204.389L680.772 200.762C681.739 198.077 681.107 198.474 683.029 197.467C686.181 199.892 691.329 203.26 693.979 205.415L694.88 203.746C703.086 210.374 701.978 220.187 715.888 221.439C715.234 219.311 715.164 220.24 716.268 218.065L714.316 215.925C710.983 211.682 706.536 209.969 702.132 204.603C706.562 206.704 712.823 210.969 717.664 213.608C717.125 210.487 716.932 207.046 716.689 203.871L714.628 202.688L714.82 202.129L719.118 202.07C719.672 204.151 720.163 208.45 720.484 210.761C724.139 212.123 727.355 213.753 730.851 215.458C739.588 214.104 744.553 211.768 751.545 218.042L753.124 217.899C752.8 214.646 752.559 212.934 753.015 209.697L753.106 209.058C748.489 207.929 742.073 205.787 737.372 204.383C738.667 203.562 739.291 203.5 740.753 203.14L754.523 205.662C745.244 196.263 730.204 190.158 717 192.407L717.266 190.049L717.053 188.921C714.968 187.869 700.996 185.218 697.241 184.325L698.211 182.138L698.126 181.347C693.128 180.11 685.78 180.942 680.528 181.375C678.999 179.524 679.792 180.092 677.451 179.284C673.4 178.999 672.896 179.036 669.174 177.415C670.31 176.977 672.389 177.142 673.705 177.163C675.858 176.747 677.591 176.614 679.401 175.438C678.709 173.513 677.284 173.086 675.276 171.694L676.296 170.851C679.203 171.618 683.249 172.811 686.098 173.343C686.42 170.94 686.322 169.481 687.948 167.756L687.515 167.151C681.39 164.872 678.468 163.818 675.293 158.213L678.193 156.698L677.925 152.852L678.514 152.204C680.225 154.877 682.353 159.263 684.731 160.832C685.941 158.041 688.241 142.852 687.114 140.631C687.309 136.38 688.619 132.387 689.759 128.286L691.274 128.153C689.744 134.03 688.866 138.556 689.447 144.686C690.341 145.515 690.596 145.648 691.299 146.666C690.766 148.994 690.494 153.74 690.066 155.242C687.047 165.782 692.99 164.046 697.096 170.509L697.572 170.915C698.422 168.967 698.568 168.767 700.363 167.636C703.258 176.376 709.133 180.191 716.928 184.594C718.105 168.669 714.873 170.801 707.497 158.614L709.041 158.182C710.733 161.213 716.206 165.949 719.653 166.591C723.274 160.484 711.01 151.178 709.119 141.206C706.516 127.466 709.896 123.475 711.073 110.933C711.21 109.421 710.358 95.5583 710.314 92.3765L711.954 93.5544C711.958 97.8352 712.093 98.7637 713.069 102.941L713.269 103.404C716.643 126.145 700.129 137.347 723.767 157.93C729.62 146.343 729.542 137.789 732.637 125.145C726.509 122.513 726.906 120.515 723.822 118.903L723.047 118.533C723.383 116.088 723.359 115.337 724.731 113.328C726.2 116.642 726.467 117.556 728.995 120.11L730.458 120.664C731.678 119 731.317 119.627 731.269 117.131L731.558 117.001C732.81 117.518 732.741 117.596 734.045 117.317L734.136 115.685C735.211 111.712 735.957 110.22 734.806 106.328C735.981 104.058 736.324 103.198 735.871 100.975L735.52 96.8377L736.997 94.5198C739.776 107.49 738.993 112.497 733.727 124.111C743.797 113.126 748.779 110.073 741.475 96.3582C740.849 95.1848 739.237 89.2571 738.578 87.4497L740.057 85.4506C742.126 91.5161 742.159 95.4986 746.503 100.746L747.292 100.709C749.394 94.2448 744.671 85.1952 742.364 79.2716L744.946 77.4556C747.648 80.7284 748.259 86.8036 749.851 91.2198C749.83 93.5751 750.182 94.7268 751.276 96.8699L753.605 98.4046C751.234 100.85 749.006 106.16 748.028 109.496C745.376 118.493 737.237 124.893 735.442 133.634L734.605 134.704C735.492 135.464 735.592 135.55 736.612 136.107L736.971 137.181C743.242 128.596 749.401 123.814 753.006 113.708L754.83 114.666C753.829 121.291 752.58 127.375 757.589 132.965L759.298 132.114L759.699 130.465C759.562 124.329 760.225 118.203 761.663 112.238C763.848 106.902 764.556 105.06 767.285 99.8756L768.921 99.3061L769.317 99.7433C767.912 103.217 765.767 108.076 764.633 111.524C765.62 113.542 765.049 112.844 766.96 114.062C767.516 119.077 766.101 124.367 763.76 128.785C763.131 131.593 761.638 136.097 764.263 137.798C766.819 137.187 768.19 135.444 770.156 133.573C770.854 118.324 768.835 120.405 773.037 102.921L774.435 104.302C773.239 110.104 769.668 124.586 773.823 128.943L775.081 128.102C778.986 121.526 782.478 100.668 782.635 93.0153C782.983 89.5161 782.575 87.5627 781.766 84.2114C783.19 80.7867 785.483 66.3683 786.319 61.8509L786.428 62.6604C787.393 70.3513 782.786 107.429 783.742 110.019C788.954 108.516 790.891 92.0919 790.798 87.0794C792.162 84.7054 792.138 85.7569 793.365 84.0922C796.563 79.7561 797.56 76.829 798.514 71.636L799.329 71.4268C799.179 78.0878 799.554 84.4066 794.446 89.3202C793.654 90.0698 792.845 90.7993 792.02 91.5074C791.699 106.374 782.258 119.219 775.467 132.378C769.428 144.089 758.511 144.313 768.621 158.824L769.86 159.41C771.24 157.726 770.984 155.834 771.084 153.53L772.934 151.882C773.332 154.583 773.524 158.699 773.742 161.528L781.247 169.188C781.692 163.395 782.713 152.991 781.824 147.644L783.737 147.015C784.745 146.236 787.395 136.621 788.346 134.202C787.99 140.508 787.24 146.913 786.889 153.445C789.65 148.122 797.002 134.211 791.643 128.742L793.277 127.122C793.19 115.494 798.367 109.691 797.977 101.023L800.168 100.62C800.974 101.783 800.474 101.281 801.917 101.869C804.987 99.4034 805.409 92.6374 808.534 88.7662C810.141 87.6591 810.071 87.7401 810.971 86.0067C815.857 81.1501 822.597 76.8719 826.61 72.1408C827.44 74.2391 827.352 74.6032 827.077 76.8618L828.24 76.6462L827.994 78.4142L826.795 79.2688C823.451 82.6287 821.926 84.9873 820.275 89.4593L821.067 92.2741C820.624 94.8907 818.666 105.363 818.664 107.321C820.369 103.958 822.207 100.494 823.614 97.0117L824.263 97.5122C824.082 99.3016 823.674 101.835 824.038 103.51C830.91 101.462 837.953 92.4561 840.903 86.2232C841.701 83.4505 842.041 80.0361 842.43 77.1236L845.002 76.2434L846.675 76.2495C845.839 79.2222 843.103 87.242 843.915 89.6227C845.882 89.1804 845.68 88.8742 847.426 87.309C847.918 85.7868 847.819 85.7705 847.556 84.2527L849.675 81.9216Z" fill="#EAAC00"/>
<path d="M492.892 268.341C497.046 275.946 503.5 283.148 509.31 289.642C509.38 292.159 509.397 294.63 509.752 297.126C502.064 289.899 493.174 279.925 488.36 270.528L492.892 268.341Z" fill="black"/>
<path d="M460.397 254.593C461.661 256.672 465.914 263.878 467.491 265.234C470.895 268.163 482.964 273.604 484.899 277.821C481.137 278.943 468.493 272.469 464.806 270.246C461.9 264.942 460.876 262.981 456.999 258.249C458.168 256.889 459.129 255.862 460.397 254.593Z" fill="black"/>
<path d="M504.033 305.234L511.035 305.066C510.65 329.757 515.034 319.261 524.078 334.652C517.987 330.474 513.319 326.428 508.527 320.679C505.95 317.586 503.363 313.622 500.532 310.911C501.29 309.915 501.016 310.268 501.206 308.834C502.098 307.399 502.372 307.156 502.485 305.433L504.033 305.234Z" fill="black"/>
<path d="M502.484 305.434L504.031 305.234L504.255 306.253L506.062 306.349L506.713 307.654C505.928 309.73 506.588 308.952 504.658 310.06C502.836 309.975 502.774 309.876 501.205 308.835C502.097 307.399 502.37 307.156 502.484 305.434Z" fill="black"/>
<path d="M480.182 306.246C484.523 308.198 496.147 313.317 498.365 317.075L497.715 317.822C491.397 318.176 483.597 313.667 478.052 311.25C477.541 310.02 477.314 309.057 476.976 307.786L477.65 306.736L480.182 306.246Z" fill="black"/>
<path d="M500.864 296.663C504.139 296.357 505.149 298.207 507.398 300.501C510.452 302.114 507.37 302.087 511.043 305.069L504.041 305.236L502.493 305.436C500.782 304.88 498.842 304.024 497.151 303.335C496.268 302.616 492.945 301.059 491.093 299.688C492.33 298.781 493.583 299.058 495.192 299.104C497.452 299.545 499.373 300.156 501.161 298.727L500.864 296.663Z" fill="#EAAC00"/>
<path d="M500.873 296.667C504.148 296.361 505.158 298.211 507.407 300.505L507.448 301.558C504.474 303.455 497.938 300.944 495.201 299.108C497.461 299.549 499.382 300.159 501.17 298.731L500.873 296.667Z" fill="black"/>
<path d="M497.147 303.334C498.838 304.022 500.778 304.879 502.489 305.434C502.376 307.156 502.102 307.4 501.211 308.835C501.02 310.269 501.294 309.916 500.536 310.912L494.567 306.987C495.587 305.102 495.696 304.879 497.147 303.334Z" fill="black"/>
<path d="M485.76 265.942C487.503 264.82 488.705 264.5 490.619 263.833L492.876 268.336L488.344 270.524L485.76 265.942Z" fill="black"/>
<path d="M493.038 206.998C500.366 218.708 506.998 232.287 513.429 244.545C516.273 249.965 519.834 255.454 522.872 261.106C521.934 262.401 521.755 262.527 520.621 263.566L518.849 260.929L518.802 260.099C512.823 257.497 500.8 245.621 498.068 239.833C493.014 229.124 482.658 216.463 480.606 205.035C486.508 214.962 492.542 224.804 498.535 234.671C502.849 241.773 505.402 244.072 511.997 248.698C506.751 238.513 495.388 216.985 493.038 206.998Z" fill="#EAAC00"/>
<path d="M65.0835 85.7382L69.1321 86.3457C66.229 90.9828 61.2122 94.3244 56.392 96.8205C51.6558 98.061 36.1083 101.846 35.5157 93.5878C46.1858 90.015 49.7384 93.465 65.0835 85.7382Z" fill="#EAAC00"/>
<path d="M91.6821 211.682C126.945 213.717 115.351 199.728 136.416 192.826C124.767 205.645 116.516 214.148 98.1369 214.387C95.612 214.42 94.7762 214.381 92.2289 213.733C91.3105 212.499 91.4708 213.166 91.6821 211.682Z" fill="#EAAC00"/>
<path d="M488.753 338.647C485.258 343.75 472.746 344.396 467.039 345.069C466.719 345.872 466.557 346.34 466.321 347.171L464.542 347.008C461.642 344.78 451.5 348.249 449.387 344.093C453.578 341.043 465.854 344.581 471.989 343.612C478.582 342.571 482.675 340.298 488.753 338.647Z" fill="#EAAC00"/>
<path d="M494.54 195.211C503.11 204.481 510.388 216.298 518.246 225.242L517.915 226.817L516.656 227.441C512.457 223.28 496.773 201.095 494.54 195.211Z" fill="#EAAC00"/>
<path d="M458.507 316.031C454.217 320.889 439.124 316.448 439.55 308.449C444.346 312.633 447.977 314.195 454.568 314.134L455.329 314.123L458.507 316.031Z" fill="#EAAC00"/>
<path d="M138.482 244.073C145.106 238.366 153.585 234.649 161.538 231.075C157.662 235.402 156.437 236.158 151.618 239.371C150.185 240.237 149.629 240.946 148.276 240.864C145.028 241.647 141.652 242.942 138.482 244.073Z" fill="#EAAC00"/>
<path d="M463.562 222.953C466.93 227.673 473.546 243.113 478.003 250.549L478.787 250.469L479.001 251.75C478.335 252.279 477.835 252.731 477.111 253.157C471.858 245.027 466.633 232.073 463.562 222.953Z" fill="#EAAC00"/>
<path d="M446.295 322.388L449.393 323.611C453.008 323.847 451.318 325.567 454.923 326.862C452.363 328.391 449.168 328.241 446.312 327.622C442.878 326.876 443.12 326.582 441.492 324.105C443.716 323.795 444.758 323.9 446.295 322.388Z" fill="#EAAC00"/>
<path d="M446.295 322.388L449.393 323.611C446.739 324.653 444.317 324.386 441.492 324.105C443.716 323.795 444.758 323.9 446.295 322.388Z" fill="black"/>
<path d="M458.683 269.33C455.776 268.39 445.967 261.544 445.734 257.948C450.319 260.141 453.626 265.175 458.454 265.884C458.091 267.277 457.904 268.068 458.683 269.33Z" fill="#EAAC00"/>
<path d="M70.4912 78.1329C69.9328 79.9077 68.997 80.9376 67.8499 82.3816C69.3303 84.2933 71.4417 82.5848 69.1201 86.3489L65.0715 85.7413L65.6966 84.1619L64.3598 82.6803C66.1675 80.9251 68.3915 79.5572 70.4912 78.1329Z" fill="black"/>
<path d="M231.704 28.7211C236.971 27.346 240.553 26.7548 245.905 25.9357L245.383 28.146C239.546 29.0902 237.642 29.2598 231.704 28.7211Z" fill="#EAAC00"/>
<path d="M99.5498 151.122C101.431 150.024 102.636 148.023 103.938 146.279L103.757 146.871C103.204 148.757 102.906 149.143 103.521 150.864C105.344 151.957 112.1 152.193 116.243 153.785C111.95 153.439 104.046 151.878 99.5498 151.122Z" fill="black"/>
<path d="M488.002 107.308L489.384 103.363C489.077 105.912 487.721 112.144 488.619 113.85C488.33 115.039 485.329 119.868 484.517 121.236C485.826 116.632 486.988 111.987 488.002 107.308Z" fill="#EAAC00"/>
<path d="M237.482 74.5575C235.511 76.4118 232.15 80.1645 229.383 79.6716C228.99 76.8171 232.332 72.2348 233.892 69.8526C232.684 69.4005 233.221 69.7189 232.392 68.7239C233.505 62.9037 240.391 59.8032 245.349 58.9785C269.045 55.0357 295.999 50.9144 315.725 68.0904C321.265 72.9153 332.907 78.9412 340.299 79.1685C343.433 79.2652 349.644 77.0823 353.199 76.2022C333.996 90.0811 314.031 72.9764 296.302 64.8252C286.634 61.24 273.43 59.4622 263.418 61.4864C252.759 63.6411 258.129 74.0937 247.9 76.2585L248.658 76.9364C245.15 81.4179 245.056 83.0201 244.61 88.7806L243.188 89.6055C243.447 90.8878 243.695 92.3797 244.099 93.5954C243.814 95.6357 243.918 96.1545 242.651 97.6451L241.557 97.6134C237.024 92.4946 236.292 81.1377 237.482 74.5575Z" fill="#EAAC00"/>
<path d="M243.202 89.6047C242.191 83.2847 241.231 78.6759 247.914 76.2578L248.673 76.9357C245.164 81.4172 245.071 83.0193 244.625 88.7799L243.202 89.6047Z" fill="black"/>
<path d="M163.472 211.136C159.423 212.146 148.483 217.147 145.585 215.692L145.656 213.889C146.851 211.858 149 210.225 150.604 209.569C162.791 204.579 167.327 201.603 178.114 208.455C181.273 210.463 191.147 203.629 197.219 214.654C196.04 215.604 194.19 215.252 192.331 215.267L191.052 217.46L190.999 218.421C192.864 219.416 196.316 221.147 197.891 222.28L197.73 224.583C198.195 227.061 198.463 226.46 197.616 228.404L196.122 228.88C191.963 228.173 187.296 224.169 183.873 222.92C180.037 221.519 172.513 223.104 168.844 219.91L168.614 217.231C165.117 218.253 153.691 221.927 151.122 219.978C153.109 216.095 159.821 214.065 163.472 211.136Z" fill="#EAAC00"/>
<path d="M178.113 215.543C182.918 214.547 187.476 214.721 192.31 215.266L191.031 217.459L190.978 218.42C192.843 219.415 196.295 221.146 197.87 222.279L197.709 224.582C198.174 227.06 198.442 226.459 197.595 228.403L196.101 228.879C191.942 228.172 187.275 224.168 183.852 222.919C180.016 221.518 172.492 223.103 168.823 219.909L168.593 217.23L178.113 215.543Z" fill="#EAAC00"/>
<path d="M178.104 215.537C182.91 214.541 187.468 214.716 192.301 215.26L191.023 217.454L190.969 218.414L190.155 219.259C186.153 217.216 183.002 217.198 178.638 217.201L178.104 215.537Z" fill="black"/>
<path d="M168.592 217.226L178.112 215.539L178.646 217.203C175.032 217.528 171.541 217.431 168.823 219.905L168.592 217.226Z" fill="black"/>
<path d="M190.981 218.42C192.847 219.416 196.299 221.146 197.873 222.279L197.712 224.583C194.874 221.9 193.597 221.236 190.166 219.265L190.981 218.42Z" fill="black"/>
<path d="M407.728 255.647C403.216 254.009 405.175 256.692 400.647 257.672L400.457 257.155C401.388 256.427 402.257 255.91 402.779 254.872C400.261 254.302 398.27 256.45 396.792 255.685L398.91 253.872L398.72 253.095C396.996 253.725 396.097 254.24 394.316 254.104C391.515 248.468 394.171 243.492 398.175 239.463L398.721 238.92C397.282 238.072 397.296 238.154 396.321 236.677C396.912 234.64 396.571 235.363 398.202 233.796C399.461 234.617 400.157 236.914 400.792 238.411C403.521 235.503 398.56 234.441 406.863 231.372C407.299 230.475 407.628 229.587 407.908 228.631L409.124 228.462C413.352 236.851 414.489 235.587 421.461 241.181C426.097 244.899 431.716 249.76 435.855 253.926L435.718 254.576C429.05 252.623 427.672 248.937 422.36 245.147L422.297 242.761C419.621 239.378 418.274 243.616 414.848 242.602C416.239 241.448 416.663 241.034 417.858 239.676L417.146 238.677C410.924 237.304 414.744 239.967 409.505 239.158L406.572 239.357C409.201 241.944 414.262 247.961 416.663 249.687C421.621 253.251 427.692 253.4 430.881 259.567L430.815 261.319L429.29 262.527L429.56 264.698L428.894 265.286C419.34 260.963 419.097 259.649 408.374 256.864L407.728 255.647Z" fill="#EAAC00"/>
<path d="M429.29 262.526C424.442 260.87 419.41 258.165 414.213 257.016C409.645 256.005 412.46 254.192 409.897 252.216C408.772 252.87 408.591 253.072 407.295 253.333C406.274 251.176 406.336 252.055 406.691 249.867C414.938 244.529 424.146 258.737 430.815 261.318L429.29 262.526Z" fill="black"/>
<path d="M406.567 239.355L405.543 240.132L404.386 239.887C403.206 238.209 403.405 237.777 403.479 235.591C404.667 233.424 405.124 233.76 407.736 232.57L408.293 233.212C407.434 234.249 406.732 234.851 405.75 235.745C408.283 237.255 407.533 234.733 411.874 235.571L412.148 236.224L409.5 239.156L406.567 239.355Z" fill="black"/>
<path d="M400.969 239.083C401.532 242.01 399.65 240.599 398.805 243.83C399.007 243.541 399.21 243.252 399.412 242.962C399.585 242.997 401.571 243.407 401.571 243.407C403.909 242.469 406.637 241.432 408.954 240.543C406.728 242.896 401.785 246.435 399.076 248.53C402.451 247.397 405.186 245.675 408.65 245.202L409.452 246.29C406.607 247.965 405.842 249.373 403.479 250.918C400.483 252.879 400.63 246.992 398.536 246.147L396.699 249.708C394.231 244.562 397.515 241.732 400.969 239.083Z" fill="black"/>
<path d="M68.1248 112.392C72.7511 110.463 84.3878 107.712 89.2468 108.549L90.0491 109.248L89.638 110.414C85.3208 111.751 81.5599 111.767 77.8002 113.504C64.6153 119.597 55.058 130.43 39.9362 132.017C37.8236 132.239 35.8666 132.778 33.9494 131.87C35.1446 129.985 41.0138 128.65 43.1391 128.647C41.8365 127.363 40.626 126.303 39.2476 125.102C38.4959 117.817 62.1073 104.348 69.6581 108.648L69.6531 109.691L67.0212 111.461L68.1248 112.392Z" fill="#EAAC00"/>
<path d="M39.263 125.102C38.5113 117.818 62.1226 104.349 69.6734 108.649L69.6684 109.691L67.0365 111.461L68.1402 112.393C64.178 114.353 62.0612 115.417 58.393 117.841C54.4326 120.457 47.0266 127.167 43.1545 128.647C41.8518 127.364 40.6413 126.304 39.263 125.102Z" fill="#EAAC00"/>
<path d="M67.0273 111.463L68.131 112.394C64.1688 114.354 62.052 115.419 58.3838 117.842C54.4234 120.459 47.0174 127.168 43.1453 128.649C41.8427 127.365 40.6322 126.305 39.2538 125.104C47.0283 123.527 59.4856 115.584 67.0273 111.463Z" fill="black"/>
<path d="M178.618 146.535C176.928 145.791 177.108 146.197 176.538 144.921C179.689 144.698 181.133 145.287 184.158 146.171C187.875 149.327 205.718 167.445 208.45 171.342L209.157 172.766C210.224 171.917 210.86 171.628 212.041 171.009C213.35 173.811 215.289 178.313 216.781 180.868L218.072 180.567C223.43 188.261 225.013 190.118 228.086 199.099L226.598 201.115C226.246 203.46 226.65 203.052 225.348 204.64C223.819 203.655 219.898 191.166 217.111 187.11C212.988 179.957 203.938 176.022 199.044 169.793C190.696 159.166 191.652 152.604 178.618 146.535Z" fill="#EAAC00"/>
<path d="M216.799 180.872L218.091 180.572C223.448 188.266 225.031 190.123 228.104 199.103L226.617 201.119C224.852 194.411 220.47 186.781 216.799 180.872Z" fill="black"/>
<path d="M178.618 146.535C176.928 145.791 177.108 146.197 176.538 144.921C179.689 144.698 181.133 145.287 184.158 146.171C182.647 146.182 179.924 146.057 178.618 146.535Z" fill="#EAAC00"/>
<path d="M163.282 143.303C166.205 143.571 169.438 145.626 171.997 146.842C185.292 152.61 190.366 161.519 198.746 172.221C205.869 181.316 215.272 182.375 215.655 196.362C209.995 193.949 202.433 181.387 197.568 176.822C189.503 169.256 182.597 162.962 176.927 153.422C175.616 151.216 166.039 147.286 163.282 143.303Z" fill="#EAAC00"/>
<path d="M210.538 157.878C217.369 164.987 219.59 169.064 224.669 177.449C225.695 179.219 226.765 180.985 227.659 182.822C233.308 195.259 238.18 207.625 239.06 221.279C235.412 213.272 232.447 206.799 228.092 199.098C225.019 190.117 223.436 188.26 218.079 180.566C215.042 174.408 212.661 164.777 210.538 157.878Z" fill="#EAAC00"/>
<path d="M248.659 76.9334C249.973 77.4399 251.47 77.6563 251.746 78.8703C252.522 82.2759 251.25 86.6744 251.127 90.2526C258.51 105.181 266.038 105.316 269.146 118.99C261.745 112.245 248.964 101.563 245.028 93.0504L244.099 93.5923C243.696 92.3766 243.448 90.8848 243.188 89.6024L244.611 88.7776C245.057 83.017 245.151 81.4148 248.659 76.9334Z" fill="#EAAC00"/>
<path d="M244.61 88.778L245.027 93.0509L244.098 93.5927C243.695 92.377 243.447 90.8852 243.188 89.6028L244.61 88.778Z" fill="black"/>
<path d="M155.018 150.275C163.582 155.643 179.609 171.444 183.558 179.786L184.133 184.1L183.281 184.552L179.953 183.414L178.688 183.096C176.144 179.904 172.366 176.523 170.048 173.549C165.258 167.404 158.129 157.181 155.018 150.275Z" fill="#EAAC00"/>
<path d="M144.374 76.9098C147.378 76.4436 150.399 77.6401 152.268 80.0369C154.137 82.4337 154.562 85.6546 153.377 88.4532C152.192 91.2524 149.584 93.1896 146.562 93.5164C142.037 94.0053 137.949 90.7931 137.355 86.2813C136.76 81.7694 139.877 77.6088 144.374 76.9098Z" fill="#EAAC00"/>
<path d="M226.215 177.176C224.583 174.283 221.894 169.531 222.158 166.122L223.132 165.436C225.806 166.456 228.897 172.535 230.656 174.959C238.674 186.012 241.617 199.225 241.758 212.701C238.361 204.614 232.68 189.283 229.133 182.598L227.66 182.826C226.766 180.988 225.697 179.223 224.671 177.452L226.215 177.176Z" fill="#EAAC00"/>
<path d="M226.215 177.175L229.132 182.598L227.66 182.825C226.766 180.988 225.696 179.222 224.67 177.452L226.215 177.175Z" fill="black"/>
<path d="M256.479 86.5805C261.994 88.0664 260.557 91.9622 263.425 95.1044C270.735 103.115 289.669 116.072 285.878 128.913C282.147 125.707 280.436 117.04 276.691 112.908C269.006 104.43 253.148 101.064 256.479 86.5805Z" fill="#EAAC00"/>
<path d="M166.645 150.067L167.159 150.638C170.572 154.385 173.339 155.634 176.417 158.416C182.498 163.914 196.423 178.196 198.801 185.399L198.515 186.679C196.449 185.772 193.046 179.836 191.795 179.216C176.261 171.518 174.65 164.458 165.641 150.942L166.645 150.067Z" fill="#EAAC00"/>
<path d="M159.744 173.311C161.457 170.737 160.549 171.437 163.091 170.285L164.604 171.267L164.428 170.381L165.064 171.046L164.676 171.862C168.28 174.735 177.864 184.398 177.269 189.115L177.029 188.436L176.967 189.714L176.893 188.826L174.972 189.366C173.192 188.263 172.435 187.841 170.902 186.447L170.178 187.499C171.097 189.48 171.199 189.604 171.387 191.74L170.609 192.504C166.6 191.145 162.371 183.53 160.842 179.698C160.115 178.003 158.845 176.041 157.873 174.424L159.458 173.26L159.744 173.311Z" fill="#EAAC00"/>
<path d="M162.062 177.86C164.937 181.126 167.482 184.054 170.174 187.5C171.092 189.481 171.194 189.605 171.382 191.742L170.605 192.505C166.595 191.146 162.366 183.532 160.838 179.7L162.062 177.86Z" fill="#EAAC00"/>
<path d="M159.744 173.311C161.457 170.737 160.549 171.437 163.091 170.285L164.604 171.267L164.428 170.381L165.064 171.046L164.676 171.862L162.715 171.355L161.837 172.003C161.617 175.643 168.414 183.21 170.902 186.447L170.178 187.499C167.486 184.052 164.941 181.125 162.067 177.859L160.842 179.698C160.115 178.003 158.845 176.041 157.873 174.424L159.458 173.26L159.744 173.311Z" fill="black"/>
<path d="M159.458 173.263L159.744 173.314C160.498 174.834 161.241 176.382 162.067 177.861L160.842 179.701C160.116 178.005 158.845 176.043 157.873 174.427L159.458 173.263Z" fill="#EAAC00"/>
<path d="M140.135 164.352C145.359 175.695 152.005 191.092 146.46 203.251C143.859 208.955 141.265 219.79 138.338 224.483L137.69 224.622C134.293 213.039 145.994 199.315 145.208 186.363C144.516 174.976 141.431 173.545 138.896 165.969L140.135 164.352Z" fill="#EAAC00"/>
<path d="M190.024 204.16C198.075 205.195 202.417 206.941 208.822 212.583C212.865 216.143 217.502 222.495 219.193 227.73C219.561 228.867 218.948 231.346 219.216 232.596C219.618 234.461 221.435 236.25 221.456 238.095C221.469 239.167 221.488 238.761 220.562 239.677C219.11 239.205 217.996 237.19 217.032 235.849C215.781 233.598 213.604 230.088 213.988 227.614L216.391 228.859L216.43 227.604C213.93 221.818 202.182 212.514 196.564 209.272C194.799 208.254 189.629 207.838 186.571 206.284C187.237 204.792 188.071 204.916 190.024 204.16Z" fill="#EAAC00"/>
<path d="M70.8759 121.837C73.0826 122.585 72.6255 122.054 73.5134 123.663C72.2145 131.841 50.0028 138.911 42.792 139.95C40.4967 138.526 40.902 139.208 39.7871 137.082C42.0632 134.804 64.0742 128.12 70.8759 121.837Z" fill="#EAAC00"/>
<path d="M82.8326 79.2855L84.5704 79.2621C87.5063 84.3195 60.3047 109.99 56.9167 98.0776C67.1262 93.9637 72.6789 84.3161 82.8326 79.2855Z" fill="#EAAC00"/>
<path d="M401.072 277.869C406.319 278.551 418.067 277.749 424.02 277.779L424.905 278.949C423.936 280.006 423.653 279.904 422.24 280.192L422.409 282.047L422.945 283.685C420.34 286.93 406.515 287.939 401.65 288.463C400.462 288.586 399.271 288.673 398.08 288.722C401.863 287.394 405.722 285.841 409.688 285.383C408.171 284.904 407.551 284.84 406.377 283.737L406.68 282.818L406.944 284.17C407.866 282.983 408.682 281.918 409.539 280.684L409.298 279.952C406.871 279.983 403.353 283.03 399.906 283.981L398.52 282.806C397.544 281.444 397.629 281.355 397.335 279.761C398.607 278.161 398.65 278.588 401.072 277.869Z" fill="#EAAC00"/>
<path d="M422.401 282.046L422.937 283.684C420.332 286.929 406.508 287.938 401.642 288.462C400.455 288.585 399.264 288.672 398.072 288.721C401.855 287.394 405.715 285.84 409.68 285.382C411.839 285.344 419.851 282.781 422.401 282.046Z" fill="#EAAC00"/>
<path d="M406.947 284.172C415.671 283.643 410.752 278.229 422.242 280.194L422.412 282.049C419.861 282.784 411.849 285.347 409.691 285.385C408.174 284.907 407.553 284.842 406.379 283.739L406.683 282.82L406.947 284.172Z" fill="black"/>
<path d="M398.522 282.811C397.545 281.448 397.63 281.36 397.336 279.766C398.608 278.166 398.652 278.593 401.073 277.874C400.741 280.298 400.041 280.919 398.522 282.811Z" fill="#EAAC00"/>
<path d="M407.454 268.884L406.932 267.659L408.512 265.92L407.847 264.798L406.629 264.739C405.477 265.884 404.817 266.778 403.278 267.265L402.43 266.667L402.359 264.323L401.862 263.966L399.039 266.05C395.787 265.713 392.921 261.025 392.875 257.896L393.591 257.208C395.912 260.833 419.203 264.592 426.784 269.045L426.897 270.31L425.703 271.381L423.382 271.9C417.575 270.389 411.706 270.625 407.802 269.486L407.454 268.884Z" fill="#EAAC00"/>
<path d="M407.476 268.887C408.144 268.787 408.852 268.73 409.378 268.221C414.507 263.246 421.029 268.731 425.725 271.384L423.404 271.903C417.597 270.392 411.728 270.628 407.824 269.489L407.476 268.887Z" fill="black"/>
<path d="M321.943 275.873C323.794 277.186 326.776 279.31 327.711 281.331C331.927 290.44 339.866 303.286 337.577 313.383C333.492 310.087 324.146 282.569 321.943 275.873Z" fill="#EAAC00"/>
<path d="M296.548 255.339C303.62 259.672 309.177 280.485 311.563 288.724C301.157 284.022 297.844 265.789 296.548 255.339Z" fill="#EAAC00"/>
<path d="M140.036 237.705L140.063 238.571C131.469 251.182 125.179 256.546 111.071 261.523C111.844 258.216 129.013 244.152 132.656 241.663C134.242 240.581 138.133 238.6 140.036 237.705Z" fill="#EAAC00"/>
<path d="M99.4797 120.348C101.576 121.089 101.123 120.583 102.144 122.139C100.051 129.315 77.5674 139.085 70.2213 141.388L68.7262 141.789L68.353 141.003C70.8281 137.539 80.3589 133.819 84.5546 131.072C89.9159 127.56 94.0176 123.353 99.4797 120.348Z" fill="#EAAC00"/>
<path d="M86.9276 121.502C88.2004 123.271 87.9326 122.309 87.7447 124.491C83.3934 131.665 62.8314 139.479 54.5817 141.608L53.415 141.208L53.88 140.254C58.1871 137.158 63.6125 136.173 68.9945 132.976C77.0127 128.214 77.938 123.82 86.9276 121.502Z" fill="#EAAC00"/>
<path d="M140.999 63.8052L141.602 63.4418C147.005 60.1424 153.427 51.117 161.249 55.474L161.568 56.653C159.323 60.2327 139.577 67.7044 133.053 72.6595C134.468 70.5704 136.266 67.7635 137.767 65.8343L136.984 65.1193L139.67 62.7591L140.999 63.8052Z" fill="#EAAC00"/>
<path d="M136.983 65.1201L139.669 62.7598L140.998 63.8059L137.765 65.8351L136.983 65.1201Z" fill="black"/>
<path d="M310.49 150.023C315.627 157.084 322.647 178.928 323.036 187.422C314.204 183.422 312.477 159.163 310.49 150.023Z" fill="#EAAC00"/>
<path d="M284.954 238.938C288.026 241.915 289.293 246.855 289.833 251.012C290.929 259.418 294.001 267.973 295.357 276.152C287.903 274.574 284.525 245.846 284.954 238.938Z" fill="#EAAC00"/>
<path d="M98.3531 78.0245L98.8118 78.7783C98.6766 85.2911 83.9836 95.0547 77.7589 96.884C77.6008 96.1641 77.169 94.8601 77.7342 94.325C83.2234 89.1363 91.3826 79.9084 98.3531 78.0245Z" fill="#EAAC00"/>
<path d="M225.317 213.775C232.36 217.237 239.03 250.517 238.027 258.207L237.393 257.879C235.571 255.637 232.915 238.459 231.479 233.595C229.729 227.674 225.938 219.146 225.317 213.775Z" fill="#EAAC00"/>
<path d="M318.52 149.286C321.29 152.167 333.021 180.753 334.594 186.302C333.404 185.973 332.322 185.535 331.45 184.658C326.868 180.041 318.523 154.762 318.52 149.286Z" fill="#EAAC00"/>
<path d="M154.45 160.923C151.538 156.928 144.085 147.872 142.242 144.006L142.865 143.631C148.107 146.694 159.847 160.304 160.551 166.41L161.305 165.211C161.041 166.889 161.42 166.172 159.937 167.316L158.067 167.615C156.862 165.973 154.685 163.521 153.317 161.887L154.45 160.923Z" fill="#EAAC00"/>
<path d="M153.296 161.889L154.429 160.925C156.318 162.838 158.258 165.065 160.53 166.411L161.284 165.212C161.02 166.89 161.399 166.174 159.916 167.318L158.047 167.616C156.842 165.975 154.664 163.523 153.296 161.889Z" fill="black"/>
<path d="M203.193 159.492C199.08 157.262 189.248 151.149 189.353 145.914L190.528 145.075C196.45 145.194 201.95 151.687 203.715 156.938L203.193 159.492Z" fill="#EAAC00"/>
<path d="M423.39 271.898C428.004 273.776 425.943 270.645 428.815 273.434C425.774 275.2 419.383 272.717 416.143 271.59C414.329 272.693 410.826 275.113 408.919 275.311C408.694 273.797 409.239 273.517 410.12 271.805C407.788 271.398 405.42 274.467 403.576 273.929L404.253 271.472C401.696 270.56 398.243 273.425 394.839 270.941L394.692 269.429C397.577 266.935 403.928 269.136 407.81 269.484C411.713 270.624 417.583 270.388 423.39 271.898Z" fill="#EAAC00"/>
<path d="M310.606 266.148C312.626 267.075 314.428 267.9 315.157 270.073C318.477 279.97 320.083 289.276 326.052 298.233C327.779 300.822 330.247 305.442 331.255 308.44C323.254 303.28 315.137 276.768 310.606 266.148Z" fill="#EAAC00"/>
<path d="M92.8895 111.962C94.9255 112.08 95.0786 112.033 96.8628 112.921L96.8365 113.99C93.1221 116.913 81.5095 117.734 75.5686 120.001L74.8686 120.275C73.9434 120.524 73.9124 120.467 73.0277 120.231L72.9259 120.697L72.1917 120.538L72.1438 119.62C76.8615 115.747 86.976 112.871 92.8895 111.962Z" fill="#EAAC00"/>
<path d="M106.52 126.585L109.502 127.37L109.942 128.392C108.331 131.211 97.2443 134.027 93.2415 136.607C92.0663 137.246 92.69 137.12 91.2942 136.899L91.4447 135.596C95.5485 129.844 99.8995 127.912 106.52 126.585Z" fill="#EAAC00"/>
<path d="M339.538 142.832C340.193 142.997 341.838 143.441 342.119 143.944C344.8 148.748 352.658 161.535 352.579 166.194C345.993 161.399 341.202 150.661 339.538 142.832Z" fill="#EAAC00"/>
<path d="M328.064 255.379C334.238 259.031 337.25 271.148 336.972 277.844C331.968 274.791 328.477 261.113 328.064 255.379Z" fill="#EAAC00"/>
<path d="M39.2669 107.287C39.6234 108.347 39.8707 108.459 39.7036 109.326C39.023 112.78 36.9616 115.807 33.9974 117.707C28.8501 121.047 25.2901 120.26 22.3497 115.204L22.3924 112.649L22.8486 112.372C24.2708 114.451 24.7736 115.533 26.9191 116.874C32.5163 116.428 33.2389 110.025 39.2669 107.287Z" fill="#EAAC00"/>
<path d="M146.594 156.799C148.744 158.286 151.196 160.264 153.307 161.889C154.675 163.523 156.852 165.975 158.058 167.616L159.458 173.264L157.872 174.428C151.291 168.891 149.65 164.595 146.594 156.799Z" fill="#EAAC00"/>
<path d="M312.721 92.2792C313.799 92.4175 313.464 92.3929 314.479 92.9909L313.861 93.7898C308.576 96.1719 296.449 94.2588 290.285 93.5986C289.179 93.0123 289.558 93.4445 289.137 92.2391C291.98 89.9474 308.599 91.7627 312.721 92.2792Z" fill="#EAAC00"/>
<path d="M417.161 218.905L418.637 218.644C420.792 221.717 424.782 228.97 425.567 232.655L425.081 234.162C422.844 234.584 423.632 234.51 421.261 233.686C421.534 231.914 421.75 232.148 423.014 230.507C420.728 227.872 419.746 230.957 418.754 228.313C417.96 226.239 413.603 223.311 415.282 219.019L417.161 218.905Z" fill="#EAAC00"/>
<path d="M418.757 228.311C417.963 226.237 413.606 223.309 415.286 219.017L417.164 218.903C418.591 221.856 419.799 223.805 419.923 227.081L418.757 228.311Z" fill="black"/>
<path d="M180.262 53.3577C184.411 53.8016 187.485 54.2437 189.778 58.1371L189.386 59.4103C187.643 60.2814 186.693 59.8376 184.649 59.456C181.813 58.6031 174.81 58.2471 173.613 55.8713C175.44 54.1863 177.752 53.9542 180.262 53.3577Z" fill="#EAAC00"/>
<path d="M357.686 144.729C365.789 148.792 374.726 160.562 374.676 169.864C373.75 169.554 372.504 168.816 372.129 167.887C368.411 158.675 364.185 152.225 357.686 144.729Z" fill="#EAAC00"/>
<path d="M277.374 235.063C279.168 237.967 280.699 258.53 280.24 262.271L279.055 261.411C275.962 254.612 275.409 242.532 277.374 235.063Z" fill="#EAAC00"/>
<path d="M304.023 239.938C307.374 243.166 310.524 254.94 312.003 259.689C303.944 257.058 303.868 247.33 304.023 239.938Z" fill="#EAAC00"/>
<path d="M258.624 72.9414C262.185 74.0059 264.526 77.4629 266.904 80.3206C268.35 78.3555 268.912 77.4613 270.86 75.8832L271.653 76.5525L271.664 78.9436C271.202 80.8845 271.062 82.2066 269.877 83.8232C264.557 85.43 259.783 77.1664 258.624 72.9414Z" fill="#EAAC00"/>
<path d="M123.6 239.933C123.926 240.719 124.241 241.01 123.851 241.637C118.111 250.887 112.475 256.063 103.751 260.896L103.62 260.472C104.143 258.615 107.457 256.757 109.455 254.869C114.656 249.953 118.189 244.62 123.6 239.933Z" fill="#EAAC00"/>
<path d="M86.1776 242.137C90.2574 242.822 94.9883 243.589 97.8902 246.528C98.7623 248.954 98.7109 247.875 97.5364 250.845C93.2178 250.414 86.4208 247.017 86.1776 242.137Z" fill="#EAAC00"/>
<path d="M311.143 299.062C311.664 299.3 312.168 299.576 312.648 299.891C315.792 301.901 324.921 313.924 325.792 317.662C318.375 314.562 314.739 305.922 311.143 299.062Z" fill="#EAAC00"/>
<path d="M424.099 126.376C427.164 126.347 429.104 128.069 428.884 131.236L427.966 131.753L425.455 129.309L424.188 129.392C423.294 130.535 423.322 130.63 422.122 131.403L419.176 130.673L417.828 130.183C415.987 130.9 415.07 131.474 413.17 131.281L412.885 129.925C415.49 126.392 419.196 127.197 424.099 126.376Z" fill="#EAAC00"/>
<path d="M120.557 120.192C120.888 122.009 119.988 122.929 121.027 124.713C124.026 125.3 127.599 125.844 128.801 128.951L128.173 129.717C125.428 126.914 126.06 127.717 121.802 126.587C120.18 127.706 122.175 126.758 120.482 128.916C117.506 129.249 115.628 128.956 113.74 126.528C113.589 124.538 113.307 125.366 114.403 123.902L115.484 124.389C117.738 123.852 118.684 122.149 120.557 120.192Z" fill="black"/>
<path d="M201.199 146.237C206.914 147.026 214.009 152.28 215.426 157.965C209.715 157.429 204.157 150.664 201.199 146.237Z" fill="#EAAC00"/>
<path d="M332.698 165.624C336.736 168.431 339.647 176.15 341.216 180.598C333.473 179.096 332.974 172.206 332.698 165.624Z" fill="#EAAC00"/>
<path d="M269.88 259.263C270.264 259.492 271.15 260.128 271.234 260.454C272.62 265.779 274.919 281.916 274.543 286.544C271.593 283.343 269.812 264.152 269.88 259.263Z" fill="#EAAC00"/>
<path d="M321.053 145.045C324.939 147.658 331.513 158.348 331.943 163.391C327.477 161.997 322.034 149.566 321.053 145.045Z" fill="#EAAC00"/>
<path d="M191.036 217.463C198.611 217.632 206.116 224.527 207.588 231.926L207.21 232.636C203.577 229.015 202.348 224.996 197.874 222.283C196.3 221.15 192.848 219.419 190.982 218.424L191.036 217.463Z" fill="#EAAC00"/>
<path d="M353.303 147.648C356.862 149.625 363.289 164.184 363.997 168.476C359.912 166.198 354.027 152.517 353.303 147.648Z" fill="#EAAC00"/>
<path d="M280.021 270.229C283.288 273.596 287.878 287.75 288.527 292.496C283.749 289.785 280.733 275.628 280.021 270.229Z" fill="#EAAC00"/>
<path d="M294.356 283.656C298.868 286.288 302.726 295.758 305.928 301.27C300.323 299.906 295.383 288.994 294.356 283.656Z" fill="#EAAC00"/>
<path d="M128.188 107.119C130.961 108.44 130.325 109.331 132.595 111.09C135.286 110.762 140.025 110.69 142.383 112.047L142.517 112.911L140.882 114.093L137.912 113.379C134.361 111.965 128.177 113.582 125.347 110.687C125.799 108.572 126.26 108.759 128.188 107.119Z" fill="black"/>
<path d="M238.147 224.325C241.699 228.121 243.82 240.87 243.322 246.092C240.727 243.165 237.65 228.351 238.147 224.325Z" fill="#EAAC00"/>
<path d="M346.47 188.602C349.365 189.744 357.376 198.082 357.305 201.371C351.993 199.476 346.621 194.569 346.47 188.602Z" fill="#EAAC00"/>
<path d="M276.923 82.6152C279.37 84.2479 279.209 87.4088 280.614 90.8525L278.816 92.3075L273.889 89.6083C272.824 88.1932 272.632 87.7438 271.863 86.1284C273.53 86.1321 273.946 86.1274 275.574 85.8176L276.923 82.6152Z" fill="#EAAC00"/>
<path d="M276.923 82.6152C276.58 86.0662 276.859 87.5101 273.889 89.6083C272.824 88.1932 272.632 87.7438 271.863 86.1284C273.53 86.1321 273.946 86.1274 275.574 85.8176L276.923 82.6152Z" fill="#EAAC00"/>
<path d="M159.22 227.482L160.394 228.076C158.206 230.904 148.095 229.755 139.638 235.741L138.661 235.719L138.642 234.791C144.69 228.317 150.503 229.807 159.22 227.482Z" fill="#EAAC00"/>
<path d="M394.804 67.6593C395.084 67.7709 395.675 68.3512 395.94 68.5847C394.971 72.2635 388.669 74.4828 385.209 74.8843C384.657 74.2998 384.737 74.1859 384.412 73.3732C386.41 70.2167 391.316 68.917 394.804 67.6593Z" fill="#EAAC00"/>
<path d="M374.341 149.4C380.264 150.913 383.285 159.195 383.774 164.694C381.328 163.205 375.481 152.364 374.341 149.4Z" fill="#EAAC00"/>
<path d="M183.559 179.781L183.909 180.372C187.235 185.874 191.61 186.994 193.207 192.956L192.707 193.653C187.721 190.711 190.495 187.773 182.429 185.936L179.954 183.409L183.282 184.547L184.134 184.094L183.559 179.781Z" fill="#EAAC00"/>
<path d="M350.354 204.839C351.348 208.078 346.783 215.923 345.311 219.712L343.387 220.417C342.373 216.132 347.365 207.904 350.354 204.839Z" fill="black"/>
<path d="M427.21 234.279C430.243 237.57 436.272 244.481 437.834 248.556L436.809 249.873C434.516 247.542 431.347 241.998 429.211 238.893L425.728 238.458L425.377 237.791L427.21 234.279Z" fill="#EAAC00"/>
<path d="M332.43 209.494C334.677 210.324 336.387 211.093 337.623 213.033C337.157 215.685 337.062 215.099 334.929 217.37C332.633 217.888 333.319 218.065 331.357 217.386C330.508 215.208 331.78 211.989 332.43 209.494Z" fill="black"/>
<path d="M441.767 206.137C444.637 207.637 455.891 213.097 456.923 215.691C455.241 216.003 453.59 214.826 451.979 213.995C451.477 215.551 451.479 215.998 450.153 216.969L449.139 216.77C447.762 214.877 447.999 214.351 448.077 211.848C445.954 209.965 443.851 208.062 441.767 206.137Z" fill="#EAAC00"/>
<path d="M448.083 211.85C449.273 212.552 450.747 213.503 451.985 213.997C451.483 215.553 451.485 216 450.159 216.971L449.144 216.772C447.768 214.879 448.005 214.353 448.083 211.85Z" fill="black"/>
<path d="M420.59 290.262L420.941 290.721L420.677 291.711C417.583 293.568 409.48 296.205 405.655 297.559L405.238 297.064L405.845 295.936C410.649 292.495 414.853 291.525 420.59 290.262Z" fill="#EAAC00"/>
<path d="M208.912 53.4271L208.334 54.822L207.022 55.3618C203.195 54.906 199.805 54.5034 196.802 51.8716L196.977 51.0146C200.789 50.4061 204.626 51.5454 208.217 52.6937L208.912 53.4271Z" fill="#EAAC00"/>
<path d="M342.581 304.708C345.69 305.991 349.128 312.314 350.27 315.422C343.417 314.511 343.305 310.841 342.581 304.708Z" fill="#EAAC00"/>
<path d="M327.435 135.354C331.099 138.247 335.071 146.258 335.935 151.022C331.791 148.576 328.22 139.935 327.435 135.354Z" fill="#EAAC00"/>
<path d="M203.721 156.938C206.521 162.521 209.421 164.955 212.049 171.01C210.867 171.629 210.232 171.918 209.164 172.767L208.458 171.343C207.481 166.226 206.235 163.694 203.199 159.493L203.721 156.938Z" fill="#EAAC00"/>
<path d="M315.752 247.497C318.357 249.461 322.199 264.642 322.348 268.256C319.734 266.778 316.054 250.672 315.752 247.497Z" fill="#EAAC00"/>
<path d="M367.383 201.151C371.883 203.008 375.056 210.091 375.924 214.634C371.112 211.771 369.651 206.387 367.383 201.151Z" fill="#EAAC00"/>
<path d="M190.22 40.9621C192.738 41.2341 195.237 41.1298 196.706 43.3245C194.535 44.4579 194.002 43.9925 191.303 43.8348C188.64 43.834 187.161 44.0781 184.788 42.8926L184.525 41.9763C186.746 40.695 187.653 40.9294 190.22 40.9621Z" fill="#EAAC00"/>
<path d="M181.757 48.0336C184.104 48.2644 184.383 48.3521 186.45 49.4865L186.315 50.4338C183.354 51.6994 180.557 51.1348 177.326 50.8418C175.714 50.7736 174.304 50.938 173.036 50.0508C175.5 48.798 178.941 48.4753 181.757 48.0336Z" fill="#EAAC00"/>
<path d="M403.357 86.9051L404.013 87.334L403.833 88.456C400.963 91.5193 396.797 92.3536 392.843 93.3606L391.842 92.7704C393.143 90.0729 400.187 88.0904 403.357 86.9051Z" fill="#EAAC00"/>
<path d="M335.047 199.361C340.355 200.505 342.071 206.467 343.737 210.989C339.455 209.343 336.652 203.382 335.047 199.361Z" fill="#EAAC00"/>
<path d="M138.909 165.97C135.823 159.278 126.997 154.797 126.193 152.355C132.793 155.615 136.01 158.157 140.148 164.353L138.909 165.97Z" fill="#EAAC00"/>
<path d="M372.759 176.229C377.784 178.761 377.773 182.44 377.653 187.448C373.24 184.942 373.101 180.758 372.759 176.229Z" fill="#EAAC00"/>
<path d="M438.193 237.231C435.286 230.363 429.815 227.24 429.726 217.579C431.303 219.027 431.96 223.934 433.631 226.675C435.336 229.471 437.208 231.667 438.668 234.474L438.193 237.231Z" fill="black"/>
<path d="M136.986 65.1195L135.796 65.3559L135.015 64.7439C136.093 61.4765 139.228 57.226 141.903 54.9814L142.43 55.183C141.628 58.8044 141.518 59.5557 139.672 62.7592L136.986 65.1195Z" fill="#EAAC00"/>
<path d="M346.645 64.356L347.584 64.3563L347.781 65.2718C345.172 67.0422 338.347 67.3613 335.16 67.4501L334.031 66.6022L334.238 65.6913C337.103 64.6611 343.339 64.5541 346.645 64.356Z" fill="#EAAC00"/>
<path d="M379.879 55.1342C381.627 55.8837 380.96 55.3124 381.985 56.8671L381.422 58.0088C378.888 59.8039 376.053 60.3572 373.05 61.1896L371.912 60.9267L371.818 60.1308C373.828 58.0565 377.244 56.5131 379.879 55.1342Z" fill="#EAAC00"/>
<path d="M111.662 111.851L113.707 112.942C113.067 114.465 111.467 118.055 111.29 119.651C111.225 120.233 112.575 120.151 112.612 122.784C111.405 123.924 110.57 125.064 109.006 125.223C108.253 122.618 110.799 114.542 111.662 111.851Z" fill="black"/>
<path d="M213.161 143.651C217.386 144.521 223.268 149.322 223.8 153.865C221.135 152.91 214.19 146.332 213.161 143.651Z" fill="#EAAC00"/>
<path d="M357.516 178.959C360.705 179.968 365.248 184.673 365.453 188.258C361.057 188.403 358.297 182.654 357.516 178.959Z" fill="#EAAC00"/>
<path d="M332.039 91.8155C333.974 92.2449 333.941 92.2306 335.669 93.1995C334.349 94.025 327.69 92.4172 323.306 93.3303C321.958 93.8443 322.034 93.7679 320.606 93.4554L320.397 92.4307C322.919 89.9088 328.787 91.3083 332.039 91.8155Z" fill="black"/>
<path d="M183.073 226.976C187.882 228.506 191.19 229.96 192.537 235.242C187.933 234.029 184.994 231.243 183.073 226.976Z" fill="#EAAC00"/>
<path d="M178.949 187.538C182.266 189.461 186.672 194.032 186.94 198.058C183.2 197.036 179.515 191.348 178.949 187.538Z" fill="#EAAC00"/>
<path d="M426.139 175.371C428.339 176.089 428.794 175.839 430.109 177.441C427.702 179.013 426.547 177.042 422.877 179.829C421.208 180.271 421.148 180.21 419.496 180.161L419.131 179.439C420.944 177.47 423.67 176.488 426.139 175.371Z" fill="#EAAC00"/>
<path d="M341.796 165.663C345.922 167.636 348.039 173.391 348.009 177.729C344.891 175.963 342.754 168.894 341.796 165.663Z" fill="#EAAC00"/>
<path d="M439.722 222.004C443.137 225.141 445.706 233.88 444.691 238.26C442.224 233.567 441.027 227.26 439.722 222.004Z" fill="#EAAC00"/>
<path d="M469.496 147.668C470.773 147.995 470.837 148.215 471.942 148.998L471.686 150.091C469.7 150.221 468.372 150.048 466.759 151.352L465.407 150.789C462.883 151.365 462.966 151.83 461.337 150.88L461.233 149.669C464.141 147.922 465.719 149.725 469.496 147.668Z" fill="#EAAC00"/>
<path d="M448.965 162.063L450.537 163.605C451.226 166.134 451.588 165.807 450.818 167.739L449.78 167.636L449.28 163.906L448.47 163.526L446.039 165.989C444.655 165.923 444.035 166.38 442.769 166.982L442.248 167.234L441.698 166.834C443.162 163.292 445.574 162.965 448.965 162.063Z" fill="#EAAC00"/>
<path d="M217.781 213.924C220.373 216.529 224.555 222.164 224.618 226.122L224.117 225.631C220.764 222.319 217.791 218.847 217.781 213.924Z" fill="#EAAC00"/>
<path d="M447.279 203.246C448.165 203.494 451.322 205.399 452.631 206.074C457.185 208.427 459.615 206.838 459.396 212.446C454.633 209.336 451.18 207.45 447.279 203.246Z" fill="#EAAC00"/>
<path d="M375.149 196.505C378.476 198.217 381.585 203.518 382.306 207.174C378.212 205.721 376.154 200.384 375.149 196.505Z" fill="#EAAC00"/>
<path d="M110.612 131.863C112.373 132.613 112.674 132.604 113.645 134.138C112.76 136.198 112.352 135.995 110.308 137.403C107.74 136.968 108.161 137.466 106.973 135.91C107.542 133.988 108.984 133.184 110.612 131.863Z" fill="#EAAC00"/>
<path d="M153.725 142.566C159.239 144.775 162.54 145.839 166.644 150.066L165.64 150.942C161.236 148.705 157.032 146.286 153.725 142.566Z" fill="#EAAC00"/>
<path d="M354.212 71.1765L354.869 71.4069L355.127 72.2221C352.733 74.4283 347.678 73.9895 344.622 73.8583L343.615 73.4965C345.684 71.4657 351.404 71.2781 354.212 71.1765Z" fill="#EAAC00"/>
<path d="M418.261 153.78L417.71 154.916C415.526 155.84 413.855 155.673 411.947 154.311L411.757 153.087C413.41 151.298 414.922 151.355 417.393 150.93C417.872 152.185 418.048 152.435 418.261 153.78Z" fill="#EAAC00"/>
<path d="M387.04 81.184L388.2 81.8151L387.679 83.0482C385.129 84.9261 384.438 85.0274 381.429 85.8596L379.855 84.6789L379.758 83.5954C381.381 82.1034 384.705 81.7066 387.04 81.184Z" fill="#EAAC00"/>
<path d="M253.725 125.254C257.528 127.202 260.524 130.859 261.052 135.16L259.872 134.846C257.058 132.538 255.207 128.518 253.725 125.254Z" fill="#EAAC00"/>
<path d="M47.7517 108.691C49.0101 109.522 48.5911 108.954 48.9446 110.519C47.6991 112.639 44.5899 114.56 42.463 116.106L41.53 115.639C42.1915 112.601 45.3521 110.47 47.7517 108.691Z" fill="#EAAC00"/>
<path d="M127.222 103.039C128.516 103.015 127.883 102.908 129.062 103.648C127.884 105.412 126.745 104.973 124.324 106.861L123.939 107.166C122.237 106.449 121.247 106.028 120.832 104.295C122.899 102.863 124.368 103.312 127.222 103.039Z" fill="black"/>
<path d="M467.583 192.779C469.279 193.599 469.301 193.53 470.58 194.856L468.284 196.646L468.919 199.365C467.238 199.325 466.158 198.651 465.077 197.613C465.323 195.078 465.914 195.027 467.583 192.779Z" fill="#EAAC00"/>
<path d="M268.512 241.514C271.032 244.275 271.125 248.915 271.171 252.445C267.46 251.337 268.381 244.418 268.512 241.514Z" fill="#EAAC00"/>
<path d="M324.263 191.253C327.725 193.076 329.523 194.306 331.365 197.96C329.004 197.328 328.085 197.139 325.892 195.977C324.359 194.242 324.513 193.701 324.263 191.253Z" fill="#EAAC00"/>
<path d="M380.425 66.5712L380.696 67.3847C378.218 69.1357 373.631 69.8283 370.634 70.0881L370.321 69.4695L370.74 68.491C373.714 67.1088 377.142 66.938 380.425 66.5712Z" fill="#EAAC00"/>
<path d="M132.496 117.7C134.364 118.713 138.081 122.82 139.329 124.699C136.958 124.869 136.736 125.006 134.834 123.798C133.207 121.901 133.033 120.115 132.496 117.7Z" fill="#EAAC00"/>
<path d="M371.75 214.953C375.01 216.1 378.27 218.326 378.208 221.956L376.986 221.944C373.806 220.349 373.041 218.092 371.75 214.953Z" fill="#EAAC00"/>
<path d="M149.505 122.557C153.179 124.188 154.532 124.354 155.695 128.345C153.442 128.324 153.342 128.19 151.307 127.065C149.77 125.275 149.757 124.926 149.505 122.557Z" fill="#EAAC00"/>
<path d="M410.684 75.316C410.646 75.7561 410.266 76.9711 410.127 77.4659C408.021 79.9438 406.838 80.361 403.96 81.8528L404.215 79.6968C405.727 77.5214 408.293 76.525 410.684 75.316Z" fill="#EAAC00"/>
<path d="M417.387 150.927C420.371 150.621 421.956 151.044 423.718 153.856L423.186 155.364L422.181 155.705L420.354 153.235L419.071 153.089L418.255 153.778C418.042 152.432 417.866 152.182 417.387 150.927Z" fill="#EAAC00"/>
<path d="M102.423 82.229L102.926 83.4782C101.916 85.826 99.3793 87.924 97.473 89.7964C97.0884 89.2489 97.0881 88.8603 96.9037 88.1471C97.8976 85.714 100.377 83.9707 102.423 82.229Z" fill="#EAAC00"/>
<path d="M111.671 111.851C111.152 110.775 110.825 110.435 109.93 109.644C109.971 107.745 109.647 107.982 110.622 106.943C112.58 108.163 112.768 108.682 113.935 110.708L113.717 112.942L111.671 111.851Z" fill="black"/>
<path d="M324.636 236.304C326.414 238.138 327.385 243.773 327.816 246.257C323.876 244.448 324.458 239.937 324.636 236.304Z" fill="#EAAC00"/>
<path d="M291.263 328.394C292.007 328.71 292.956 329.244 293.695 329.629C294.324 331.789 293.692 332.605 293.07 335.03C292.395 334.896 291.773 334.449 291.14 334.093C290.194 332.272 290.858 330.544 291.263 328.394Z" fill="black"/>
<path d="M455.307 193.307C457.884 193.722 459.261 193.446 460.806 194.988L460.614 197.623C456.652 196.882 455.913 197.397 455.307 193.307Z" fill="#EAAC00"/>
<path d="M151.67 198.619C154.464 200.347 154.664 203.173 155.066 206.132C153.864 205.813 153.683 205.626 152.599 204.989C151.292 202.935 151.625 201.131 151.67 198.619Z" fill="#EAAC00"/>
<path d="M293.958 234.014C296.108 236.642 296.449 241.579 295.91 244.85C293.695 240.989 293.871 238.305 293.958 234.014Z" fill="#EAAC00"/>
<path d="M339.138 271.581C341.964 273.269 343.125 277.918 343.638 280.975C340.547 279.043 339.961 275.016 339.138 271.581Z" fill="#EAAC00"/>
<path d="M352.191 217.58C356.116 218.866 357.648 220.518 358.726 224.387C355.162 222.464 353.958 221.032 352.191 217.58Z" fill="#EAAC00"/>
<path d="M140.473 119.76C143.773 121.363 145.167 122.503 145.794 126.227L143.703 125.476C141.624 123.469 141.416 122.409 140.473 119.76Z" fill="#EAAC00"/>
<path d="M173.69 193.442C177.681 194.392 178.874 196.353 180.879 199.653C176.93 198.007 175.68 197.428 173.69 193.442Z" fill="#EAAC00"/>
<path d="M457.34 188.89C460.552 189.791 462.336 189.562 462.616 193.153C458.822 192.415 458.038 192.695 457.34 188.89Z" fill="#EAAC00"/>
<path d="M337.821 284.88C341.003 286.924 341.072 289.17 340.974 292.669C338.349 290.505 338.207 288.05 337.821 284.88Z" fill="#EAAC00"/>
<path d="M438.678 234.476C439.931 236.873 441.517 239.227 441.274 241.869L440.71 242.262C439.132 240.46 438.943 239.48 438.204 237.233L438.678 234.476Z" fill="#EAAC00"/>
<path d="M446.875 192.993C449.369 194.468 452.184 196.777 453.934 199.105C448.927 198.383 448.993 197.383 446.875 192.993Z" fill="#EAAC00"/>
<path d="M117.037 109.07C117.623 108.761 117.468 108.912 118.336 108.981L120.855 113.168C118.863 113.264 117.338 112.095 116.359 110.473L117.037 109.07Z" fill="black"/>
<path d="M353.348 326.728C354.012 326.996 354.886 327.502 355.542 327.851C355.719 329.917 354.768 330.651 353.523 332.74L352.966 333.244C352.126 331.938 353.05 328.713 353.348 326.728Z" fill="black"/>
<path d="M157.429 121.537C160.589 122.692 161.275 124.129 162.563 127.153C158.794 126.236 158.421 125.085 157.429 121.537Z" fill="#EAAC00"/>
<path d="M475.422 196.361C478.717 197.587 478.883 197.862 479.953 200.959C478.842 200.798 477.946 200.532 476.863 200.254C475.269 198.287 475.723 199.22 475.422 196.361Z" fill="#EAAC00"/>
<path d="M420.887 298.252L421.442 299.154C420.672 300.962 418.138 302.57 416.462 303.879C416.297 303.619 416.189 302.898 416.112 302.546C417.436 300.246 418.697 299.661 420.887 298.252Z" fill="#EAAC00"/>
<path d="M396.427 55.5396L397.232 56.9671C396.076 58.9165 394.739 59.176 392.507 60.4383L392.06 59.6533C392.679 57.9177 394.841 56.697 396.427 55.5396Z" fill="#EAAC00"/>
<path d="M477.232 176.66C480.428 178.607 480.606 179.901 480.161 183.541C478.049 181.148 477.248 179.828 477.232 176.66Z" fill="#EAAC00"/>
<path d="M476.63 185.314C479.575 187.245 479.394 188.393 479.397 191.746C476.232 189.899 476.606 188.78 476.63 185.314Z" fill="#EAAC00"/>
<path d="M453.114 199.204C456.364 199.62 458.154 199.301 459.869 201.984C455.918 202.431 455.521 202.374 453.114 199.204Z" fill="#EAAC00"/>
<path d="M446.701 222.656C448.423 225.301 447.727 228.486 447.126 231.555C445.586 227.921 445.765 226.318 446.701 222.656Z" fill="black"/>
<path d="M116.414 135.451L118.73 136.702L118.813 137.977L117.172 139.642L114.731 138.148L114.543 137.184L116.414 135.451Z" fill="#EAAC00"/>
<path d="M345.236 289.889C347.688 292.792 348.994 294.429 348.792 298.368C348.426 297.804 348.064 297.238 347.707 296.668C346.422 294.615 344.69 292.24 345.236 289.889Z" fill="#EAAC00"/>
<path d="M451.056 187.024C453.986 188.774 454.609 189.212 454.972 192.445C451.976 190.74 450.752 190.56 451.056 187.024Z" fill="#EAAC00"/>
<path d="M467.929 180.582C471.812 181.593 472.681 182.047 473.697 185.865C471.176 185.209 469.301 182.647 467.929 180.582Z" fill="#EAAC00"/>
<path d="M208.219 52.6975C209.387 50.5048 209.317 49.7201 211.237 48.7288L211.892 49.6924C211.407 51.8754 211.363 52.639 208.914 53.431L208.219 52.6975Z" fill="black"/>
<path d="M453.187 183.276C456.124 184.367 456.744 185.605 457.821 188.472C454.275 187.289 454.172 186.575 453.187 183.276Z" fill="#EAAC00"/>
<path d="M498.037 172.75L499.393 173.565C500.481 175.467 500.103 177.114 499.981 179.381L498.892 178.594C497.731 176.814 498.035 174.975 498.037 172.75Z" fill="black"/>
<path d="M457.402 179.118C460.267 180.176 460.799 181.372 461.747 184.227L460.155 183.96C457.977 182.12 458.486 182.145 457.402 179.118Z" fill="#EAAC00"/>
<path d="M475.954 168.667C479.01 170.525 478.37 172.144 478.293 175.29C476.114 173.738 476.242 171.135 475.954 168.667Z" fill="#EAAC00"/>
<path d="M51.7486 150.3C53.7572 152.598 53.4225 153.789 52.6954 156.615L51.6516 155.599C50.6785 153.369 51.0601 152.693 51.7486 150.3Z" fill="#EAAC00"/>
<path d="M280.61 90.855C282.845 91.1732 282.363 90.7651 283.705 92.0741C282.132 93.5645 280.823 92.9017 278.812 92.3099L280.61 90.855Z" fill="#EAAC00"/>
<path d="M483.311 174.351C486.34 176.201 486.517 176.848 486.91 180.117C484.297 179.435 483.915 176.581 483.311 174.351Z" fill="#EAAC00"/>
<path d="M461.155 200.709C464.652 200.913 465.669 200.807 467.798 203.057C464.584 203.444 463.488 202.941 461.155 200.709Z" fill="#EAAC00"/>
<path d="M147.334 107.342L147.976 108.037C148.568 109.875 147.691 112.06 147.168 114.059L146.447 113.206C145.8 111.211 146.678 109.462 147.334 107.342Z" fill="black"/>
<path d="M122.565 80.8389L124.184 81.7325C125.113 83.6852 124.641 83.8863 124.188 86.3372C122.402 84.9732 122.727 82.9184 122.565 80.8389Z" fill="black"/>
<path d="M500.47 166.029L501.02 166.852C501.159 169.092 500.739 168.992 499.468 171.164L498.603 169.958C498.668 167.555 498.622 168.334 500.47 166.029Z" fill="#EAAC00"/>
<path d="M481.347 185.006L482.784 185.633C483.975 187.472 483.547 187.657 483.45 190.153C481.455 188.838 481.649 187.143 481.347 185.006Z" fill="#EAAC00"/>
<path d="M122.952 98.9668C123.769 98.8955 124.504 99.467 124.637 100.276C124.77 101.086 124.256 101.862 123.459 102.056C122.887 102.195 122.284 102.002 121.899 101.556C121.514 101.11 121.412 100.485 121.634 99.9389C121.855 99.3933 122.364 99.018 122.952 98.9668Z" fill="black"/>
<path d="M227.231 235.83C229.338 237.339 228.701 239.853 228.53 242.037C226.928 239.811 227.244 238.626 227.231 235.83Z" fill="black"/>
<path d="M98.6527 135.137C100.655 136.937 100.069 138.435 99.7829 140.769C98.0208 138.92 98.3334 137.48 98.6527 135.137Z" fill="black"/>
<path d="M165.628 125.25C168.897 125.742 168.834 126.375 170.182 129.023C167.563 128.01 167.271 127.461 165.628 125.25Z" fill="#EAAC00"/>
<path d="M150.43 99.8379C152.499 101.653 151.983 102.908 152.068 105.427C150.161 103.878 150.421 102.055 150.43 99.8379Z" fill="black"/>
<path d="M484.493 166.515C486.007 168.344 485.763 169.49 485.839 171.918C483.288 170.042 484.038 169.231 484.493 166.515Z" fill="#EAAC00"/>
<path d="M407.727 255.649L408.373 256.866C406.341 258.281 406.467 258.744 404.594 258.584C405.461 256.59 405.498 257.07 407.727 255.649Z" fill="black"/>
<path d="M132.67 104.743C133.544 107.332 133.352 107.163 132.057 109.323C131.279 108.332 131.523 108.669 131.106 107.424L132.67 104.743Z" fill="black"/>
<path d="M339.014 220.412L339.825 220.075L340.487 220.538L339.668 223.369L338.513 223.238L338.013 222.293L339.014 220.412Z" fill="black"/>
<path d="M468.959 171.814C469.551 172.179 470.58 173.053 471.169 173.52L471.262 174.905L470.566 175.198L469.56 174.743L468.959 171.814Z" fill="#EAAC00"/>
<path d="M110.39 97.9483C110.486 99.363 110.483 98.8658 110.053 100.287L108.341 100.072L107.671 99.132L110.39 97.9483Z" fill="black"/>
<path d="M80.7212 75.6016L82.4987 76.4741C82.5396 77.1649 82.6374 78.1887 82.6073 78.8479L80.9026 77.7731L80.7212 75.6016Z" fill="black"/>
<path d="M314.304 234.736L315.282 235.333L315.112 237.119L314.464 237.307L313.661 236.791L314.304 234.736Z" fill="black"/>
</g>
<defs>
<clipPath id="clip0_1736_33090">
<rect width="502" height="341" fill="white" transform="matrix(-1 0 0 1 502 0)"/>
</clipPath>
</defs>
</svg>
