<svg width="126" height="350" viewBox="0 0 126 350" fill="none" xmlns="http://www.w3.org/2000/svg">
<g clip-path="url(#clip0_6_640)">
<path d="M0 0H27.3901H123.442H152.5V27.8653V125.219V152.5H122.879H28.0091H0V123.591V95.4354V93.2581V57.5348V55.3584V29.5238V0Z" fill="#9A1356"/>
<path d="M152.498 27.8657V125.219L152.15 124.869C152.133 124.933 152.096 124.997 152.066 125.059C151.082 124.545 149.921 122.503 149.192 121.861L149.115 122.033C148.983 121.973 148.678 121.843 148.582 121.746C146.968 120.1 145.438 118.36 143.671 116.874C143.389 116.636 143.085 116.361 142.913 116.035L143.067 115.624C141.682 114.078 139.764 112.262 138.262 110.759L125.865 98.5342L122.528 95.2184C122.124 94.8133 121.265 93.9905 120.936 93.5794C121.589 92.6405 121.166 93.1252 121.864 92.8639C121.473 92.4915 120.753 92.7618 120.297 92.9003C119.807 92.5079 119.114 91.7782 118.641 91.3068L115.439 88.102L103.82 76.4999C104.514 75.7255 105.601 74.7128 106.356 73.9599L111.022 69.2982L122.982 57.3375L142.527 37.7962C145.829 34.4636 149.152 31.1533 152.498 27.8657Z" fill="#781041"/>
<path d="M27.3867 0H123.439C122.997 0.57058 122.06 1.45257 121.522 1.9806C121.932 2.87424 120.629 2.96788 120.305 3.25993C119.662 3.83851 119.079 4.49623 118.428 5.08856L118.048 5.49751L117.938 5.65552L117.97 5.70742C117.727 6.14196 117.309 6.98708 116.825 7.18031C116.214 7.42454 116.597 6.93196 115.957 7.53609C114.992 8.66398 106.935 16.415 106.849 16.7506L106.948 16.829C106.533 17.3731 106.005 17.9291 105.563 18.4778C105.306 18.7967 104.673 18.4513 104.444 19.2131C104.22 19.9601 104.129 20.3363 103.327 20.1995C100.778 22.6512 98.3443 25.2985 95.7753 27.727C94.7916 28.8508 93.4684 29.8412 92.6181 31.0608C92.3656 31.4236 92.5146 31.6452 91.9918 31.8769C91.8638 31.7867 91.8869 31.8236 91.8027 31.7019L90.9389 32.5688C90.6999 32.8241 90.4557 33.0748 90.2062 33.3209L90.4132 33.6085C90.3745 33.7721 88.8287 34.9165 88.7304 35.2999C88.7669 35.1592 88.1362 35.867 88.1034 35.9104C87.9083 35.9218 87.9597 35.9461 87.7988 35.8795L87.7638 35.7495C84.5336 39.1455 81.0182 42.3778 77.756 45.7556C76.9824 46.5568 76.2109 47.2617 75.473 48.1089C72.601 45.3722 69.6455 42.334 66.8368 39.5122C66.8172 39.0941 67.0149 38.9128 66.609 38.6669C66.2345 38.6983 65.9995 38.7112 65.7142 38.4201C64.9616 37.6522 64.2105 36.8837 63.4518 36.1218L58.7564 31.4325L45.7169 18.377L32.069 4.74042C30.5434 3.19242 28.8345 1.60564 27.3867 0Z" fill="#781041"/>
<path d="M90.5292 120.098C90.5388 119.591 90.5016 117.767 90.5448 117.428L90.5671 117.799C90.6915 116.162 90.6215 113.681 90.6208 111.986L90.6222 101.99L90.623 96.2329C90.623 95.8241 90.6483 93.9164 90.5731 93.6453L90.518 94.6491C90.4875 94.4011 90.3668 93.4555 90.4845 93.2983L90.7161 93.343C90.7585 93.9916 90.693 94.8338 90.693 95.5002C90.6937 96.6939 90.6945 97.889 90.6945 99.0826L90.696 113.547C90.6952 115.209 90.7138 116.865 90.6379 118.526C90.6185 118.959 90.6386 119.438 90.6595 119.873L90.4852 120.035C90.5582 120.227 95.9292 125.53 96.6024 126.205L122.877 152.5H28.0078C28.8166 151.526 30.5754 149.869 31.5225 148.927L37.8622 142.596L58.4154 122.048L70.6439 109.663L73.4868 106.825C74.062 106.247 74.8614 105.383 75.4944 104.911C76.3842 105.915 77.5659 107.023 78.5347 107.994L84.5312 113.989C86.357 115.821 88.5969 118.43 90.5292 120.098Z" fill="#781041"/>
<path d="M0 29.5244C2.36366 31.6275 5.33516 34.8122 7.65784 37.13L23.2836 52.7549L39.9934 69.4656L44.5903 74.043C45.351 74.7986 46.3511 75.7368 47.0465 76.5239C46.0903 77.4316 37.5873 85.7365 37.5756 86.0902C37.5694 86.2815 37.5997 86.5593 37.4447 86.6978L36.0202 87.9465C35.8183 87.913 35.8277 87.9026 35.6265 87.9361C34.1103 89.3233 32.5334 90.9727 31.0758 92.4396L24.8057 98.7109L20.5425 102.971C19.9842 103.528 18.8569 104.581 18.3977 105.124L18.5075 105.261C18.0861 106.046 17.9831 106.029 17.304 106.611C17.1591 106.552 17.2242 106.596 17.1347 106.438C16.6896 106.69 14.5023 109.009 14.0019 109.508L4.06694 119.615C2.98225 120.697 1.07147 122.702 0 123.592V95.436V93.2587V57.5354V55.359V29.5244Z" fill="#781041"/>
<path d="M0 55.3589C0.415574 55.6791 0.734073 56.0417 1.07664 56.4378C0.726289 56.8119 0.367312 57.1778 0 57.5353V55.3589Z" fill="#9A1356"/>
<path d="M0 93.2588C0.28082 93.4636 0.847097 94.0168 1.09525 94.2953C0.720078 94.6758 0.359153 95.0407 0 95.4361V93.2588Z" fill="#9A1356"/>
</g>
<g clip-path="url(#clip1_6_640)">
<path d="M0 152.5H27.3901H123.442H152.5V180.365V277.719V305H122.879H28.0091H0V276.091V247.935V245.758V210.035V207.858V182.024V152.5Z" fill="#9A1356"/>
<path d="M152.498 180.366V277.719L152.15 277.369C152.133 277.433 152.096 277.497 152.066 277.559C151.082 277.045 149.921 275.003 149.192 274.361L149.115 274.533C148.983 274.473 148.678 274.343 148.582 274.246C146.968 272.6 145.438 270.86 143.671 269.374C143.389 269.136 143.085 268.861 142.913 268.535L143.067 268.124C141.682 266.578 139.764 264.762 138.262 263.259L125.865 251.034L122.528 247.718C122.124 247.313 121.265 246.49 120.936 246.079C121.589 245.14 121.166 245.625 121.864 245.364C121.473 244.992 120.753 245.262 120.297 245.4C119.807 245.008 119.114 244.278 118.641 243.807L115.439 240.602L103.82 229C104.514 228.225 105.601 227.213 106.356 226.46L111.022 221.798L122.982 209.838L142.527 190.296C145.829 186.964 149.152 183.653 152.498 180.366Z" fill="#781041"/>
<path d="M27.3867 152.5H123.439C122.997 153.071 122.06 153.953 121.522 154.481C121.932 155.374 120.629 155.468 120.305 155.76C119.662 156.339 119.079 156.996 118.428 157.589L118.048 157.998L117.938 158.156L117.97 158.207C117.727 158.642 117.309 159.487 116.825 159.68C116.214 159.925 116.597 159.432 115.957 160.036C114.992 161.164 106.935 168.915 106.849 169.251L106.948 169.329C106.533 169.873 106.005 170.429 105.563 170.978C105.306 171.297 104.673 170.951 104.444 171.713C104.22 172.46 104.129 172.836 103.327 172.699C100.778 175.151 98.3443 177.798 95.7753 180.227C94.7916 181.351 93.4684 182.341 92.6181 183.561C92.3656 183.924 92.5146 184.145 91.9918 184.377C91.8638 184.287 91.8869 184.324 91.8027 184.202L90.9389 185.069C90.6999 185.324 90.4557 185.575 90.2062 185.821L90.4132 186.108C90.3745 186.272 88.8287 187.416 88.7304 187.8C88.7669 187.659 88.1362 188.367 88.1034 188.41C87.9083 188.422 87.9597 188.446 87.7988 188.379L87.7638 188.249C84.5336 191.646 81.0182 194.878 77.756 198.256C76.9824 199.057 76.2109 199.762 75.473 200.609C72.601 197.872 69.6455 194.834 66.8368 192.012C66.8172 191.594 67.0149 191.413 66.609 191.167C66.2345 191.198 65.9995 191.211 65.7142 190.92C64.9616 190.152 64.2105 189.384 63.4518 188.622L58.7564 183.932L45.7169 170.877L32.069 157.24C30.5434 155.692 28.8345 154.106 27.3867 152.5Z" fill="#781041"/>
<path d="M90.5292 272.598C90.5388 272.091 90.5016 270.267 90.5448 269.928L90.5671 270.299C90.6915 268.662 90.6215 266.181 90.6208 264.486L90.6222 254.49L90.623 248.733C90.623 248.324 90.6483 246.416 90.5731 246.145L90.518 247.149C90.4875 246.901 90.3668 245.955 90.4845 245.798L90.7161 245.843C90.7585 246.492 90.693 247.334 90.693 248C90.6937 249.194 90.6945 250.389 90.6945 251.583L90.696 266.047C90.6952 267.709 90.7138 269.365 90.6379 271.026C90.6185 271.459 90.6386 271.938 90.6595 272.373L90.4852 272.535C90.5582 272.727 95.9292 278.03 96.6024 278.705L122.877 305H28.0078C28.8166 304.026 30.5754 302.369 31.5225 301.427L37.8622 295.096L58.4154 274.548L70.6439 262.163L73.4868 259.325C74.062 258.747 74.8614 257.883 75.4944 257.411C76.3842 258.415 77.5659 259.523 78.5347 260.494L84.5312 266.489C86.357 268.321 88.5969 270.93 90.5292 272.598Z" fill="#781041"/>
<path d="M0 182.024C2.36366 184.127 5.33516 187.312 7.65784 189.63L23.2836 205.255L39.9934 221.966L44.5903 226.543C45.351 227.299 46.3511 228.237 47.0465 229.024C46.0903 229.932 37.5873 238.236 37.5756 238.59C37.5694 238.782 37.5997 239.059 37.4447 239.198L36.0202 240.447C35.8183 240.413 35.8277 240.403 35.6265 240.436C34.1103 241.823 32.5334 243.473 31.0758 244.94L24.8057 251.211L20.5425 255.471C19.9842 256.028 18.8569 257.081 18.3977 257.624L18.5075 257.761C18.0861 258.546 17.9831 258.529 17.304 259.111C17.1591 259.052 17.2242 259.096 17.1347 258.938C16.6896 259.19 14.5023 261.509 14.0019 262.008L4.06694 272.115C2.98225 273.197 1.07147 275.202 0 276.092V247.936V245.759V210.035V207.859V182.024Z" fill="#781041"/>
<path d="M0 207.859C0.415574 208.179 0.734073 208.542 1.07664 208.938C0.726289 209.312 0.367312 209.678 0 210.035V207.859Z" fill="#9A1356"/>
<path d="M0 245.759C0.28082 245.964 0.847097 246.517 1.09525 246.795C0.720078 247.176 0.359153 247.541 0 247.936V245.759Z" fill="#9A1356"/>
</g>
<defs>
<clipPath id="clip0_6_640">
<rect width="152.5" height="152.5" fill="white"/>
</clipPath>
<clipPath id="clip1_6_640">
<rect width="152.5" height="152.5" fill="white" transform="translate(0 152.5)"/>
</clipPath>
</defs>
</svg>
