<svg width="124" height="350" viewBox="0 0 124 350" fill="none" xmlns="http://www.w3.org/2000/svg">
<g clip-path="url(#clip0_6_678)">
<path d="M-0.453125 0.20752H298.412V208.959V211.312V211.479V299.675H211.112H145.805H58.0373H-0.453125V219.833V211.34V10.6446V0.20752Z" fill="#294920"/>
<path d="M-0.453125 7.82422C4.34017 12.3632 9.21596 17.3758 13.9059 22.0548L38.1882 46.2699L111.224 119.102L136.519 144.332C137.661 145.471 144.784 152.319 145.238 153.217L145.185 153.384C143.68 153.517 143.015 153.706 141.325 153.789L141.272 154.129C140.097 154.4 131.051 154.317 129.355 154.314L102.792 154.307L34.2963 154.308L11.5896 154.307C7.68292 154.307 3.43174 154.384 -0.453125 154.286V7.82422Z" fill="#203A1D"/>
<path d="M-0.453125 153.333C4.34017 157.872 9.21596 162.885 13.9059 167.564L38.1882 191.779L111.224 264.611L136.519 289.841C137.661 290.981 144.784 297.828 145.238 298.726L145.185 298.893C143.68 299.026 143.015 299.215 141.325 299.298L141.272 299.638C140.097 299.909 131.051 299.826 129.355 299.823L102.792 299.816L34.2963 299.817L11.5896 299.816C7.68292 299.816 3.43174 299.893 -0.453125 299.796V153.333Z" fill="#203A1D"/>
</g>
<defs>
<clipPath id="clip0_6_678">
<rect width="124" height="350" fill="white"/>
</clipPath>
</defs>
</svg>
