<svg width="124" height="350" viewBox="0 0 124 350" fill="none" xmlns="http://www.w3.org/2000/svg">
<g clip-path="url(#clip0_6_622)">
<path d="M-0.453125 -0.0458984H94.0507H185.392H283.652H294.03V99.7328V203.434V304.995H192.195H93.6179H-0.453125V297.919V203.667V107.479V102.284V93.6914V-0.0458984Z" fill="#743E79"/>
<path d="M241.369 203.701C241.251 203.323 241.25 203.336 241.247 202.94C241.616 202.804 241.393 202.821 241.663 202.869C243.581 203.207 246.011 202.95 247.985 202.907C248.102 203.065 248.219 203.223 248.336 203.381L248.308 203.703L292.331 203.676C282.989 212.922 273.678 222.52 264.431 231.891L215.338 281.615C207.667 289.384 199.949 297.333 192.194 304.995H93.6172C95.6703 302.723 98.6399 299.887 100.832 297.667L115.309 283.004L159.298 238.458L182.639 214.82L189.273 208.08C190.552 206.781 192.457 204.741 193.872 203.689C198.893 203.496 205.1 203.686 210.231 203.686L241.369 203.701Z" fill="#5A305E"/>
<path d="M-0.453125 102.283L62.5894 102.293L81.847 102.289C84.7343 102.288 89.904 102.147 92.6314 102.434C94.3824 103.697 99.942 109.626 101.83 111.537L122.323 132.297L167.833 178.386C175.883 186.537 184.219 194.805 192.151 203.046C189.403 203.201 186.049 203.128 183.268 203.128H168.586L119.739 203.123L103.642 203.125C100.599 203.125 97.1441 203.062 94.1178 203.192L92.8049 201.878C92.7189 201.914 92.466 201.936 92.3607 201.951C91.712 201.75 91.4757 201.2 91.0261 200.768C90.914 200.661 90.2023 200.739 89.8884 200.401L90.0525 200.103L89.8975 199.933L89.5319 200.054C88.9446 199.476 87.9298 197.752 87.3414 197.033C86.4892 195.989 85.5817 195.094 84.6337 194.142L23.4338 132.235C18.3485 127.149 13.2997 122.026 8.28806 116.866C7.07257 115.611 5.62925 114.28 4.39787 113.022C4.25828 112.88 4.20792 112.313 4.18427 112.084C2.66782 110.519 1.12173 108.984 -0.453125 107.479V102.283Z" fill="#5A305E"/>
<path d="M4.18359 112.084C9.12324 116.875 14.1645 122.142 19.0181 127.058L46.459 154.846L57.3487 165.877C58.9105 167.466 61.7778 170.57 63.3608 171.854L63.7373 171.716C64.3167 172.358 64.5323 172.773 65.2776 173.131C65.8254 174.647 66.5051 175.202 67.6297 176.322C68.7061 177.393 69.7542 178.533 70.918 179.507C71.5914 180.073 72.724 180.45 73.2952 181.142C72.9611 181.175 73.0505 181.16 72.706 181.08L72.6459 181.23C73.2413 182.139 76.52 185.302 77.4987 186.285L87.4937 196.394C88.8532 197.771 91.6461 200.449 92.8043 201.879C92.7182 201.914 92.4654 201.937 92.3601 201.952C91.7114 201.75 91.475 201.201 91.0255 200.769C90.9134 200.662 90.2016 200.739 89.8877 200.401L90.0518 200.103L89.8968 199.933L89.5313 200.054C88.9439 199.476 87.9291 197.753 87.3408 197.033C86.4885 195.989 85.5811 195.094 84.633 194.142L23.4331 132.235C18.3478 127.149 13.2991 122.026 8.28738 116.866C7.07189 115.611 5.62857 114.281 4.39719 113.023C4.2576 112.88 4.20725 112.313 4.18359 112.084Z" fill="#5A305E"/>
<path d="M185.389 -0.0458984H283.65C285.521 0.269346 288.877 0.469332 290.8 0.42895C284.003 7.7055 276.19 15.2984 269.152 22.4201L228.867 63.2171L203.627 88.7844L195.649 96.8692C194.477 98.0587 192.739 99.9521 191.541 100.987C189.489 100.653 184.03 100.791 181.657 100.791L163.085 100.797L122.241 100.8C115.502 100.801 108.578 100.715 101.853 100.802C100.636 100.742 97.1101 100.839 96.145 100.574C96.9126 98.7182 96.4301 99.832 95.8242 98.6458L166.939 26.5962L184.014 9.31044C185.866 7.4372 191.372 2.09892 192.534 0.296536C190.383 -0.00733976 187.2 0.342984 185.389 -0.0458984Z" fill="#5A305E"/>
<path d="M-0.453125 203.667L61.9962 203.691L81.5922 203.684C85.0472 203.684 89.2881 203.575 92.6867 203.76C88.6339 207.401 83.4648 212.967 79.4929 216.992L55.1088 241.693L16.9508 280.343C11.3048 286.061 5.01934 292.153 -0.453125 297.919V203.667Z" fill="#5A305E"/>
<path d="M-0.453125 -0.0458984H94.0507L92.9541 0.125699C92.1954 0.240173 91.7119 0.465792 91.1482 1.01346C88.1279 3.94795 85.1547 7.04198 82.1974 10.0384L64.3871 28.076L22.393 70.6044C14.8638 78.2307 7.18005 86.2063 -0.453125 93.6914V-0.0458984Z" fill="#5A305E"/>
<path d="M93.6641 100.816L95.8274 98.6455C96.4333 99.8317 96.9157 98.7179 96.1482 100.574C97.1133 100.839 100.639 100.742 101.856 100.802C101.25 100.893 100.414 100.876 99.9794 101.285C98.0672 103.083 98.1872 101.4 96.3528 101.677C95.9359 101.74 95.5991 101.816 95.158 101.849L95.0697 101.625C95.5205 100.846 97.0066 101.653 97.6975 101.166L97.5874 101.038C96.2813 100.989 95.0059 100.86 93.6641 100.816Z" fill="#5A305E"/>
</g>
<defs>
<clipPath id="clip0_6_622">
<rect width="124" height="350" fill="white"/>
</clipPath>
</defs>
</svg>
