<svg width="50" height="40" fill="none" xmlns="http://www.w3.org/2000/svg"><path d="M18.744 36.547h0l-.007.007C17.074 38.197 15.136 39 12.874 39c-3.718 0-6.462-1.278-8.38-3.77C2.54 32.69 1.5 29.098 1.5 24.33c0-4.274 1.71-8.658 5.265-13.168 3.401-4.27 7.439-7.554 12.117-9.865L20.27 3.65c-3.738 2.024-6.74 4.369-8.978 7.048-2.458 2.944-3.866 6.503-4.244 10.635l-.1 1.091h4.135c2.175 0 3.87.26 5.128.734 1.29.486 2.288 1.146 3.034 1.961.737.808 1.236 1.683 1.515 2.629l.005.014.004.014a9.87 9.87 0 01.493 3.107c0 2.138-.814 4.013-2.518 5.664zm27.238 0h0l-.007.007C44.312 38.197 42.374 39 40.111 39c-3.718 0-6.461-1.278-8.379-3.77-1.955-2.54-2.994-6.133-2.994-10.9 0-4.274 1.71-8.658 5.265-13.168 3.4-4.27 7.438-7.554 12.117-9.865l1.388 2.353c-3.738 2.024-6.741 4.369-8.978 7.048-2.459 2.944-3.866 6.503-4.245 10.635l-.1 1.091h4.136c2.175 0 3.87.26 5.128.734 1.289.486 2.288 1.146 3.033 1.961.738.808 1.237 1.683 1.516 2.629l.005.014.004.014c.328 1 .493 2.034.493 3.107 0 2.138-.814 4.013-2.518 5.664z" stroke="#fff" stroke-width="2"/></svg>