<svg width="478" height="305" fill="none" xmlns="http://www.w3.org/2000/svg"><path d="M293.93 27.183l.006-.007C311.754 9.714 332.857 1 357.295 1c38.564 0 68.075 13.309 88.68 39.857C466.617 67.453 477 104.328 477 151.603c0 43.816-17.704 88.072-53.251 132.786-35.712 44.478-78.552 78.249-128.525 101.326l-22.287-37.449c39.515-20.15 70.55-43.586 93.064-70.327 22.732-27 35.861-59.724 39.407-98.129l.101-1.092h-30.744c-21.815 0-39.508-2.566-53.12-7.655-13.643-5.1-24.62-12.186-32.967-21.24-8.023-8.718-13.589-18.325-16.718-28.827l-.005-.014-.004-.014c-3.496-10.556-5.244-21.475-5.244-32.763 0-23.225 9.048-43.553 27.223-61.022zm-265.708 0l.007-.007C46.046 9.714 67.15 1 91.588 1c38.564 0 68.074 13.309 88.68 39.857 20.642 26.596 31.025 63.471 31.025 110.746 0 43.815-17.704 88.072-53.251 132.785-35.712 44.478-78.552 78.249-128.525 101.327L7.229 348.266c39.516-20.15 70.55-43.586 93.065-70.327 22.732-27 35.86-59.724 39.407-98.129l.101-1.092h-30.744c-21.815 0-39.508-2.566-53.12-7.655-13.644-5.1-24.62-12.187-32.968-21.241-8.022-8.717-13.588-18.325-16.718-28.826l-.004-.014-.005-.014C2.748 110.412 1 99.493 1 88.205c0-23.225 9.048-43.553 27.222-61.022z" stroke="#fff" stroke-width="2"/></svg>