<svg width="407" height="276" fill="none" xmlns="http://www.w3.org/2000/svg"><path d="M156.625 252.648l-.007.007C141.474 267.564 123.543 275 102.776 275c-32.796 0-57.876-11.366-75.39-34.032C9.837 218.255 1 186.75 1 146.335c0-37.436 15.058-75.258 45.31-113.483 30.365-37.988 66.782-66.838 109.257-86.565l18.831 31.784c-33.594 17.225-59.991 37.258-79.15 60.117-19.376 23.118-30.565 51.135-33.587 84.008l-.1 1.092h26.34c18.564 0 33.609 2.194 45.176 6.537 11.598 4.355 20.924 10.404 28.013 18.128 6.817 7.441 11.545 15.64 14.203 24.599l.005.015.004.014c2.972 9.013 4.458 18.338 4.458 27.977 0 19.824-7.686 37.174-23.135 52.09zm226.24 0l-.007.007C367.714 267.564 349.783 275 329.016 275c-32.796 0-57.876-11.366-75.389-34.032-17.55-22.713-26.387-54.218-26.387-94.633 0-37.436 15.058-75.259 45.311-113.484 30.364-37.987 66.781-66.838 109.257-86.564l18.831 31.784c-33.595 17.225-59.991 37.258-79.151 60.117-19.376 23.118-30.564 51.135-33.586 84.008l-.1 1.092h26.339c18.565 0 33.609 2.194 45.176 6.537 11.599 4.355 20.925 10.405 28.014 18.129 6.817 7.441 11.544 15.639 14.203 24.598l.004.015.005.014c2.971 9.013 4.457 18.338 4.457 27.977 0 19.824-7.686 37.174-23.135 52.09z" stroke="#fff" stroke-width="2"/></svg>