<svg width="100" height="82" fill="none" xmlns="http://www.w3.org/2000/svg"><path d="M37.959 75.047l-.007.006c-3.583 3.528-7.8 5.274-12.7 5.274-7.861 0-13.787-2.712-17.926-8.069C3.149 66.853 1 59.296 1 49.468c0-8.983 3.61-18.115 10.969-27.413C19.21 12.995 27.86 6.077 37.923 1.29l3.87 6.533c-7.984 4.184-14.319 9.041-18.969 14.589-4.869 5.809-7.67 12.842-8.425 21.056l-.1 1.092h7.298c4.511 0 8.108.534 10.835 1.558 2.758 1.035 4.943 2.461 6.592 4.258 1.604 1.75 2.704 3.665 3.322 5.748l.005.015.004.014a21.058 21.058 0 011.058 6.638c0 4.648-1.792 8.72-5.454 12.256zm55.587 0l-.007.006c-3.583 3.528-7.8 5.274-12.7 5.274-7.861 0-13.787-2.712-17.926-8.069-4.176-5.405-6.326-12.962-6.326-22.79 0-8.983 3.61-18.115 10.97-27.414C74.798 12.995 83.448 6.078 93.51 1.29l3.87 6.533c-7.984 4.184-14.32 9.041-18.97 14.589-4.868 5.809-7.67 12.842-8.425 21.056l-.1 1.092h7.299c4.51 0 8.108.534 10.834 1.558 2.758 1.035 4.944 2.461 6.593 4.258 1.603 1.75 2.704 3.665 3.322 5.748l.004.015.005.014A21.058 21.058 0 0199 62.79c0 4.648-1.792 8.72-5.454 12.256z" stroke="#fff" stroke-width="2"/></svg>