<svg width="194" height="105" viewBox="0 0 194 105" fill="none" xmlns="http://www.w3.org/2000/svg">
<g clip-path="url(#clip0_1673_4979)">
<path d="M150.342 25.5148C153.024 25.5784 155.884 25.5299 158.578 25.5307C162.603 25.5464 166.629 25.5383 170.654 25.5068L170.642 48.0602C170.642 53.9271 170.554 60.048 170.676 65.8837C169.009 65.8606 166.756 65.8003 165.124 65.918C165.092 63.824 165.115 61.6751 165.113 59.5769C163.447 60.3371 161.412 60.2584 159.687 59.7445C159.471 59.7305 158.905 59.5306 158.69 59.4573C152.889 57.4858 153.567 62.1418 153.637 65.8856C151.948 65.856 149.725 65.8032 148.054 65.9196C148.042 54.9478 146.815 38.1105 157.407 31.1122C154.579 31.105 151.749 31.1121 148.921 31.1336C149.432 29.345 149.845 27.3548 150.342 25.5148ZM154.811 54.056C156.192 53.822 156.662 53.8841 158.092 54.1122C160.031 54.4062 162.841 56.0625 164.413 54.1186C164.684 53.7837 165.014 52.8864 165.029 52.4628C165.236 46.4847 165.059 40.4765 165.113 34.492C165.123 33.4368 165.12 32.3702 165.084 31.3187L165 31.2098C157.829 35.5919 155.057 41.4803 154.09 49.6977C153.909 51.2421 153.877 52.9355 153.667 54.4562C153.908 54.3649 154.6 54.0869 154.811 54.056Z" fill="#F4AF13"/>
<path d="M-0.00683594 24.8268C0.940374 25.1036 1.8754 25.4205 2.79575 25.7765C8.74516 28.1271 13.1695 31.5887 15.7594 37.5477C16.1542 36.7515 16.5395 35.9767 16.9698 35.1982C19.9068 29.8833 25.7989 26.3724 31.57 24.8232C31.5132 26.8682 31.5364 29.0148 31.5561 31.0626C31.6679 42.6502 31.3912 54.2987 31.5842 65.8798C29.8608 65.8568 27.7015 65.8092 25.9989 65.9144L25.9845 33.3781C22.565 35.2216 20.6406 37.8223 19.5942 41.5497C18.4793 46.3111 18.6458 50.4546 18.6407 55.3042C18.6224 58.8328 18.6369 62.3614 18.6841 65.8898C16.9298 65.8606 14.689 65.7996 12.9657 65.9194C12.9122 60.7362 13.0461 55.5792 12.8754 50.3893C12.6416 43.2779 12.5089 37.3399 5.58516 33.4054C5.71396 42.6558 5.52346 51.9436 5.60216 61.1976C5.61546 62.7622 5.57926 64.3226 5.66126 65.8862C3.77316 65.8582 1.88479 65.8561 -0.00334597 65.8798L-0.00683594 24.8268Z" fill="#F4AF13"/>
<path d="M63.0281 25.4951C69.3554 25.8051 75.5005 24.5072 80.7573 29.5485C83.4338 32.1153 84.7268 36.3394 84.6756 39.9954C84.5765 47.07 81.2453 53.5035 76.3407 58.4277C72.4887 62.3938 68.0716 64.7957 63.0513 66.8974C62.886 61.8885 63.0231 56.0869 63.0234 51.0271L63.0281 25.4951ZM68.5754 57.9117C70.6716 56.27 72.4953 54.8551 74.1746 52.7371C77.343 48.5989 79.5003 43.6978 78.868 38.4053C78.1614 32.4914 73.747 31.0152 68.5673 30.9993L68.5784 48.1085C68.5783 51.3268 68.6309 54.7052 68.5754 57.9117Z" fill="#F4AF13"/>
<path d="M103.16 25.5136C107.127 25.5951 111.31 25.5311 115.29 25.5316L132.672 25.5088C132.67 27.2706 132.176 29.284 132.118 31.1181L108.891 31.1267C108.922 32.8236 108.895 34.6108 108.896 36.3145L119.784 36.3114C120.126 37.0544 120.806 40.3024 121.108 41.3838C119.208 41.3571 110.986 41.2983 109.959 42.0314C109.218 42.5612 109.071 43.2909 108.941 44.1333C108.749 49.1276 108.899 54.9899 108.904 60.0486C113.475 60.0789 118.297 60.1144 122.856 60.0265C122.853 62.0385 122.833 63.8646 122.881 65.89C118.929 65.8561 114.979 65.8455 111.027 65.8583C108.636 65.8575 105.493 65.7683 103.174 65.9181L103.16 25.5136Z" fill="#F4AF13"/>
<path d="M38.5111 25.5183C44.1916 25.6033 50.2489 25.569 55.935 25.5088C55.8647 27.3779 55.8618 29.2488 55.926 31.1183L44.1825 31.1185C44.201 32.8501 44.2009 34.5819 44.182 36.3135C48.1946 36.3239 52.4097 36.3763 56.4075 36.2831C56.5126 37.5047 56.4463 40.0706 56.4503 41.3878C54.3606 41.3552 52.2011 41.4124 50.1121 41.4905C48.5962 41.5471 46.4151 41.4008 45.0777 42.0935C43.8634 43.7947 44.1826 46.558 44.1853 48.6161L44.1943 54.522L44.1933 60.0526L56.8978 60.0371C56.8911 61.9881 56.863 63.9391 56.8133 65.8896C52.1165 65.7976 47.3929 65.8983 42.6936 65.8583C41.3129 65.8466 39.8853 65.8411 38.5078 65.9098L38.5111 25.5183Z" fill="#F4AF13"/>
<path d="M139.806 25.5206C141.771 25.5429 143.767 25.5226 145.736 25.5195L139.419 51.6289C138.281 56.3375 137.168 61.2098 135.947 65.8926C134.024 65.8558 132.099 65.8516 130.175 65.8801C129.885 64.1614 129.216 61.6993 128.779 59.9392L126.224 49.62C125.056 45.2248 124.099 40.7596 122.902 36.3575C124.558 36.2384 127.096 36.3066 128.816 36.3019C129.426 38.3932 130.006 41.3659 130.495 43.5346C131.414 47.5048 132.304 51.4816 133.164 55.4648C133.268 54.431 133.678 52.7916 133.915 51.7321L135.312 45.5062L139.806 25.5206Z" fill="#F4AF13"/>
<path d="M125.994 74.8125C126.941 75.2707 128.288 75.6448 129.342 76.1297C133.583 78.0827 135.727 80.028 138.351 83.739C138.272 81.152 138.283 77.8844 138.353 75.3001C139.761 75.2969 141.169 75.304 142.575 75.3213C142.476 83.649 142.606 91.998 142.563 100.329C142.556 101.823 142.591 103.321 142.535 104.814C141.139 104.809 139.744 104.814 138.349 104.832C138.245 101.419 138.517 97.337 138.147 94.01C137.64 87.935 135.104 84.095 130.022 80.926L130.018 104.813C128.733 104.763 127.3 104.813 126.005 104.833C125.936 103.564 125.958 102.191 125.971 100.912C126.064 92.228 125.833 83.49 125.994 74.8125Z" fill="#FEFEFE"/>
<path d="M177.603 25.5088C179.516 25.5393 181.431 25.5401 183.344 25.5109L183.353 60.0482L194.217 60.0378C193.873 61.5792 193.518 63.118 193.151 64.6539L192.858 65.8949C188.896 65.799 184.902 65.8954 180.937 65.8576C179.848 65.8471 178.699 65.8466 177.613 65.9191L177.603 25.5088Z" fill="#F4AF13"/>
<path d="M88.0188 75.3055C92.1546 75.2432 96.5095 75.2978 100.65 75.3139C100.622 76.6485 100.656 78.099 100.662 79.443C97.8605 79.484 94.9355 79.447 92.1258 79.448C92.1668 80.869 92.1279 82.446 92.123 83.879C94.3455 82.459 95.9965 83.697 98.2445 84.055C99.0295 84.181 100.521 83.91 101.365 83.766L101.465 87.06C98.6725 88.912 96.9965 87.483 94.1065 87.107C91.5014 86.768 92.1226 91.19 92.1253 92.831C92.1399 95.415 92.1408 97.999 92.1277 100.583L96.6455 100.592L111.847 100.58C111.5 101.897 111.172 103.48 110.862 104.825C109.754 104.789 108.617 104.8 107.508 104.806C101.013 104.838 94.5075 104.747 88.014 104.831C87.7035 97.984 88.1586 90.78 87.9792 83.894C87.9091 81.199 87.8863 77.9875 88.0188 75.3055Z" fill="#FEFEFE"/>
<path d="M39.6869 75.3064C41.0417 75.2953 42.3965 75.3006 43.7512 75.3222C43.8158 80.127 43.294 83.565 41.1111 87.811C45.0779 92.374 45.915 99.041 45.9107 104.826C44.5264 104.802 43.1417 104.804 41.7574 104.831L41.7343 102.492C41.6629 95.62 39.7009 90.021 33.5065 86.453L33.513 104.809C32.2538 104.755 30.6622 104.815 29.3795 104.828C29.1912 97.18 29.485 89.415 29.3567 81.756C29.322 79.681 29.2858 77.367 29.3963 75.3017L33.5107 75.3085L33.5038 81.901C35.3478 82.795 36.4981 83.542 38.1107 84.765C39.6305 81.572 39.5018 78.6407 39.6869 75.3064Z" fill="#FEFEFE"/>
<path d="M104.412 74.8691C109.893 76.9148 113.586 78.7465 116.781 83.936C116.746 81.058 116.748 78.1783 116.787 75.2995L120.981 75.3172C120.888 76.3007 120.923 77.9702 120.922 79.004L120.92 85.329L120.944 104.823C119.56 104.798 118.176 104.8 116.791 104.83C116.735 103.873 116.759 102.728 116.759 101.755C116.826 92.848 116.748 86.109 108.463 80.978L108.466 96.923L104.403 96.934C104.206 93.63 104.343 89.123 104.345 85.706C104.346 82.565 104.2 77.9003 104.412 74.8691Z" fill="#FEFEFE"/>
<path d="M78.2718 75.3077C79.6406 75.299 81.0094 75.3028 82.378 75.3196C82.262 80.07 81.9908 83.581 79.6867 87.79C83.4736 92.315 84.2499 97.817 84.4927 103.457L84.5111 104.824C83.1318 104.8 81.7523 104.802 80.3731 104.832C80.2713 96.599 79.4785 91.167 72.2003 86.502L72.2026 96.924L68.01 96.929C67.8449 92.635 68.0352 87.9 67.9694 83.56C67.9448 81.936 67.8732 76.6435 68.0542 75.3008L72.2321 75.3169C72.1049 77.464 72.2731 79.784 72.1458 81.954C73.983 82.825 75.096 83.564 76.7116 84.773C78.0978 81.575 78.1681 78.7151 78.2718 75.3077Z" fill="#FEFEFE"/>
<path d="M90.4781 25.4912C91.9818 25.6139 94.6357 25.5239 96.1937 25.504L96.1817 48.4911C96.1807 54.2485 96.1137 60.1443 96.2127 65.8835C94.4637 65.8614 92.194 65.7989 90.4816 65.9182C90.4179 60.956 90.474 55.8627 90.4737 50.8858L90.4781 25.4912Z" fill="#F4AF13"/>
<path d="M145.569 75.3124C147.071 75.2844 148.625 75.3084 150.131 75.3123C151.814 80.42 153.198 86.324 154.766 91.552L157.739 80.851C158.223 79.122 158.864 77.0386 159.248 75.3094C160.817 75.3021 162.403 75.2791 163.97 75.3379C162.873 78.0929 161.676 82.483 160.687 85.474C159.961 88.194 158.762 91.23 157.969 93.962C157.742 94.749 156.956 96.909 156.903 97.63C156.735 99.883 156.823 102.548 156.838 104.825C155.444 104.797 154.051 104.799 152.657 104.83C152.602 102.727 152.78 99.401 152.539 97.44C152.443 96.651 151.138 92.853 150.801 91.804L147.429 81.3C146.862 79.531 145.999 77.0616 145.569 75.3124Z" fill="#FEFEFE"/>
<path d="M58.7179 75.3008L62.8663 75.3086L62.8611 100.582L75.5228 100.58C75.2004 101.821 74.9046 103.069 74.6356 104.322C74.5995 104.507 74.5597 104.572 74.4824 104.743C73.8306 104.873 70.5969 104.817 69.6779 104.815C66.0228 104.797 62.3676 104.802 58.7126 104.831C58.6108 102.985 58.6599 100.816 58.66 98.945L58.6631 89.195L58.6581 80.54C58.6576 78.8974 58.6079 76.9076 58.7179 75.3008Z" fill="#FEFEFE"/>
<path d="M134.494 0.140217C138.099 -0.154683 140.439 1.82402 140.997 5.34952C141.666 9.58602 141.446 15.7 136.275 16.7272C128.81 18.0625 128.14 7.08382 130.704 2.57302C131.6 0.994418 132.854 0.535517 134.494 0.140217ZM136.014 14.0436C137.967 13.1324 138.229 11.4256 138.334 9.38912C138.415 7.78572 138.353 5.92182 137.7 4.44572C136.927 2.83862 136.067 2.82252 134.527 2.90592C131.613 4.06322 132.12 9.79162 132.843 12.2448C133.238 13.5825 134.643 14.2634 136.014 14.0436Z" fill="#FEFEFE"/>
<path d="M50.7683 0.378067C51.6488 0.384367 52.5292 0.371367 53.4091 0.338867C53.376 1.06827 53.3805 1.85117 53.3871 2.58347C53.4294 7.23707 53.2889 11.9398 53.4237 16.5889L50.6415 16.59C50.5059 13.8869 50.6574 10.9971 50.6047 8.28217C50.5921 7.63137 50.6741 5.36577 50.5192 4.86887C49.6235 5.88297 48.4447 7.50767 47.5343 8.62287C47.5107 10.2622 47.5215 11.9331 47.5166 13.5752C46.825 13.6423 45.5495 13.6115 44.8125 13.6125C44.7662 12.0571 44.7968 10.3281 44.7938 8.76017C43.9631 7.57747 42.6223 5.91417 41.6973 4.79687C41.8109 8.63827 41.6504 12.6887 41.7439 16.5894L38.9532 16.59C38.9131 15.8105 38.8954 14.9272 38.9156 14.1466C39.0331 9.61027 38.7278 4.88867 38.957 0.371468C39.6015 0.369468 41.2972 0.239767 41.6887 0.680567C43.1702 2.34867 44.8555 4.42247 46.1578 6.21177C46.9387 4.99927 49.7749 1.51467 50.7683 0.378067Z" fill="#FEFEFE"/>
<path d="M120.064 0.363133C120.962 0.381133 121.779 0.367134 122.677 0.340934C122.656 1.00673 122.653 1.71343 122.657 2.37973C122.692 7.10503 122.566 11.8687 122.69 16.5899L119.879 16.5907C119.736 12.7785 120.004 8.64643 119.828 4.88723L116.887 8.62983C116.892 10.2685 116.92 11.9619 116.872 13.5958C116.107 13.6508 114.88 13.6143 114.083 13.6134C114.03 12.0493 114.063 10.2694 114.058 8.68973C113.494 7.79813 111.744 5.68343 111.028 4.77693V16.5901L108.305 16.5929C108.249 14.6497 108.056 1.41493 108.393 0.381234C110.139 0.349934 110.621 0.0594331 111.784 1.50753C113.015 3.03773 114.23 4.68673 115.513 6.16273C116.459 4.71483 118.9 1.82283 120.064 0.363133Z" fill="#FEFEFE"/>
<path d="M49.4394 75.3008L53.6412 75.315C53.5329 77.7061 53.6092 80.724 53.6087 83.162L53.6046 97.229C53.6057 99.204 53.7438 102.991 53.5953 104.821C52.2085 104.8 50.8216 104.803 49.4349 104.83C49.343 103.308 49.3918 101.365 49.3922 99.813L49.3919 91.174L49.3925 81.253C49.3932 79.32 49.3475 77.2105 49.4394 75.3008Z" fill="#FEFEFE"/>
<path d="M97.0468 0.0898438C97.8228 0.570144 98.6048 1.04034 99.3938 1.50024C97.7338 4.09994 96.7718 6.70534 96.7728 9.82304C96.7738 13.7449 99.1058 13.8601 102.276 13.8173C102.161 10.5659 102.289 7.25594 102.239 3.99894C102.219 2.80184 102.226 1.56114 102.282 0.367844C103.233 0.376444 104.183 0.374144 105.134 0.360544V3.63254L105.136 16.5881C102.485 16.5966 98.3838 16.913 96.1488 15.4831C93.3108 13.668 93.5708 8.95694 94.2648 6.07004C94.8008 3.84094 95.7678 1.98674 97.0468 0.0898438Z" fill="#FEFEFE"/>
<path d="M59.1386 0.0693359C59.9122 0.550836 60.6778 1.03774 61.4749 1.47944C59.8931 4.08814 57.4323 9.85544 59.8362 12.8646C60.6912 13.935 63.0839 13.8364 64.3978 13.8189C64.3121 9.48074 64.3469 4.68154 64.3966 0.339336C65.3623 0.402436 66.2594 0.383737 67.2235 0.338337C67.1821 1.37974 67.2037 2.58824 67.1965 3.64304C67.1951 7.88084 67.1221 12.3723 67.2373 16.5895C64.6918 16.5888 60.5413 16.9078 58.3306 15.542C55.196 13.6055 55.7182 8.15364 56.6369 5.07834C57.1683 3.29964 58.1263 1.61944 59.1386 0.0693359Z" fill="#FEFEFE"/>
<path d="M73.8284 0.15082C74.1463 0.11312 74.4725 0.105719 74.7923 0.107719C76.7768 0.106219 78.6777 0.90652 80.0635 2.32712C79.199 3.58322 79.0929 4.12062 79.0172 5.65522L76.2766 5.65112C76.2833 4.48472 76.2507 4.13852 76.7258 3.09092C75.5642 2.64472 73.5729 2.15852 72.8918 3.32402C71.6884 5.49832 74.4448 6.53722 76.1993 7.06762C80.0504 8.23162 81.6399 11.2822 79.5407 14.9198C78.8937 16.0406 77.2868 16.5532 76.0025 16.7472C74.9975 16.9503 73.1696 16.6951 72.2321 16.2078C70.4953 15.3054 69.9945 14.2003 69.3877 12.5023C70.1583 11.9701 70.9381 11.4511 71.7267 10.9457C72.248 13.0647 73.5611 14.3559 75.8461 14.1266C77.1263 13.9708 77.5969 12.7129 77.3898 11.5859C77.2048 10.6592 76.2591 10.1568 75.4598 9.84012C73.3508 9.00442 70.3993 8.32482 69.884 5.72702C69.6263 4.42702 69.7133 3.10152 70.4825 1.98702C71.3456 0.736619 72.4181 0.44832 73.8284 0.15082Z" fill="#FEFEFE"/>
<path d="M82.9021 0.372454C85.779 0.397654 89.5878 0.479555 92.4051 0.331055C92.4184 1.23415 92.4193 2.13735 92.4077 3.04045C90.3836 3.13975 87.6927 3.06356 85.6237 3.05536C85.6961 4.51216 85.6621 6.27425 85.6372 7.73065C86.9095 7.11415 88.193 6.52135 89.4871 5.95235L89.4911 8.91395C88.6432 9.29845 86.3801 10.2761 85.6852 10.7518L85.6606 10.9722L85.6407 13.8484C87.9165 13.8626 90.1925 13.8576 92.4682 13.8338L92.4959 16.5893L82.8977 16.5921C82.788 12.562 82.9197 8.48555 82.8659 4.45145C82.848 3.10435 82.8556 1.71745 82.9021 0.372454Z" fill="#FEFEFE"/>
<path d="M143.81 0.374886C146.477 0.451786 150.595 0.451884 153.241 0.333984C153.249 1.23528 153.248 2.13669 153.238 3.03789C151.157 3.12169 148.694 3.06188 146.585 3.05758C146.602 4.74268 146.602 6.42808 146.585 8.11318C147.921 7.44428 149.266 6.79398 150.621 6.16238L150.63 7.92418C150.661 9.49188 150.385 9.22218 149.03 9.93078C148.222 10.3534 147.377 10.7503 146.564 11.1668C146.67 12.6596 146.595 14.9989 146.622 16.5884L143.744 16.5931C143.642 13.1008 143.758 9.44009 143.708 5.93369C143.696 5.10559 143.66 0.902086 143.81 0.374886Z" fill="#FEFEFE"/>
</g>
<defs>
<clipPath id="clip0_1673_4979">
<rect width="194" height="105" fill="white"/>
</clipPath>
</defs>
</svg>
