<svg width="283" height="120" viewBox="0 0 283 120" fill="none" xmlns="http://www.w3.org/2000/svg">
<g clip-path="url(#clip0_381_4645)">
<path d="M159.649 0H117.574V120H159.649V0Z" fill="#E10076"/>
<path d="M92.5245 68.3361L73.3341 120L20.5186 0H64.6518L92.5245 68.3361Z" fill="#F57D30"/>
<path d="M0.868164 120H45.0432L22.9587 85.7842L0.868164 120Z" fill="#FDB933"/>
<g style="mix-blend-mode:multiply">
<path d="M33.2103 101.663L22.9587 85.7842L0.868164 120L33.2103 101.663Z" fill="#999999"/>
</g>
<g style="mix-blend-mode:multiply">
<path d="M28.9681 19.2024L64.6518 0H20.5186L28.9681 19.2024Z" fill="#4D4D4D"/>
</g>
<g style="mix-blend-mode:multiply">
<path d="M64.6515 0L28.9678 19.2024L92.5242 68.3362L64.6515 0Z" fill="#999999"/>
</g>
<g style="mix-blend-mode:multiply">
<path d="M117.574 120V0L159.649 30.1283L117.574 120Z" fill="#999999"/>
</g>
<g style="mix-blend-mode:multiply">
<path d="M117.574 0L159.649 30.1283V0H117.574Z" fill="#4D4D4D"/>
</g>
<path d="M177.342 0.722168H182.307L186.352 7.28607L190.422 0.722168H195.393V17.6869H190.714V7.94245L186.376 14.5839H186.245L181.931 8.02003V17.6869H177.33L177.342 0.722168Z" fill="white"/>
<path d="M197.081 11.1947V11.141C197.081 7.31599 199.82 4.28467 203.699 4.28467C208.228 4.28467 210.31 7.60839 210.31 11.4453C210.31 11.7377 210.31 12.0778 210.31 12.3941H201.539C201.671 13.0349 202.031 13.6061 202.552 14.0021C203.073 14.3981 203.72 14.5921 204.373 14.5482C204.917 14.5417 205.455 14.4234 205.951 14.2007C206.448 13.978 206.894 13.6555 207.261 13.2533L209.803 15.3598C209.135 16.2254 208.27 16.919 207.28 17.383C206.29 17.8469 205.203 18.0677 204.11 18.0271C199.969 18.0271 197.081 15.2643 197.081 11.1947ZM206.002 10.0549C205.829 8.59894 204.982 7.66806 203.723 7.66806C202.463 7.66806 201.688 8.61087 201.443 10.0549H206.002Z" fill="white"/>
<path d="M211.463 11.1944V11.1407C211.463 6.88016 214.124 4.28444 217.227 4.28444C217.998 4.2697 218.761 4.43268 219.459 4.76072C220.156 5.08876 220.769 5.57305 221.249 6.17603V0H225.856V17.6867H221.249V15.9383C220.796 16.5743 220.195 17.0914 219.499 17.4456C218.803 17.7999 218.032 17.9809 217.251 17.9732C214.148 17.9732 211.463 15.3834 211.463 11.1944ZM221.327 11.1407V11.093C221.351 10.7253 221.3 10.3565 221.176 10.0094C221.052 9.66236 220.858 9.34443 220.607 9.07533C220.355 8.80622 220.051 8.59169 219.713 8.44502C219.374 8.29835 219.01 8.22267 218.641 8.22267C218.273 8.22267 217.908 8.29835 217.57 8.44502C217.232 8.59169 216.928 8.80622 216.676 9.07533C216.424 9.34443 216.231 9.66236 216.107 10.0094C215.983 10.3565 215.932 10.7253 215.956 11.093V11.1407C215.956 12.8891 217.15 14.1243 218.647 14.1243C220.145 14.1243 221.327 12.8891 221.327 11.1407Z" fill="white"/>
<path d="M228.164 0H232.938V3.38936H228.164V0ZM228.26 4.57683H232.86V17.7046H228.26V4.57683Z" fill="white"/>
<path d="M234.579 11.1943V11.1406C234.579 7.31567 237.3 4.30225 241.179 4.30225C245.708 4.30225 247.79 7.62597 247.79 11.4629C247.79 11.7553 247.79 12.0954 247.79 12.4116H238.995C239.127 13.0525 239.487 13.6237 240.009 14.0197C240.53 14.4156 241.176 14.6096 241.829 14.5658C242.376 14.5579 242.915 14.4372 243.413 14.2113C243.911 13.9854 244.357 13.6592 244.723 13.253L247.265 15.3594C246.599 16.2226 245.737 16.9147 244.75 17.3785C243.763 17.8423 242.68 18.0645 241.591 18.0268C237.473 18.0268 234.579 15.264 234.579 11.1943ZM243.5 10.0546C243.327 8.59862 242.48 7.66774 241.221 7.66774C239.961 7.66774 239.186 8.61055 238.941 10.0546H243.5Z" fill="white"/>
<path d="M247.707 4.57666H252.552L255.071 12.2326L257.589 4.57666H262.362L257.129 17.782H252.952L247.707 4.57666Z" fill="white"/>
<path d="M262.404 13.9272V13.8794C262.404 11.1703 264.463 9.76207 267.542 9.76207C268.61 9.76448 269.672 9.93566 270.687 10.2693V10.0545C270.687 8.69394 269.839 7.91821 268.073 7.91821C266.833 7.91609 265.605 8.16368 264.463 8.64621L263.52 5.40006C265.199 4.69752 267.005 4.3501 268.825 4.37967C271.176 4.37967 272.775 4.94059 273.814 5.98484C274.852 7.0291 275.222 8.30608 275.222 10.1619V17.6865H270.663V16.3319C270.179 16.872 269.583 17.2989 268.915 17.5825C268.248 17.8661 267.527 17.9994 266.802 17.9729C264.314 17.9729 262.404 16.5468 262.404 13.9272ZM270.758 12.9366V12.3399C270.188 12.1175 269.581 12.0041 268.968 12.0057C267.638 12.0057 266.862 12.6561 266.862 13.6288V13.6765C266.863 13.8807 266.907 14.0824 266.992 14.2682C267.076 14.454 267.199 14.6198 267.353 14.7546C267.506 14.8893 267.686 14.9901 267.881 15.0501C268.077 15.1101 268.282 15.128 268.485 15.1027C268.779 15.1237 269.074 15.0828 269.351 14.9826C269.628 14.8824 269.881 14.7251 270.094 14.5209C270.307 14.3168 270.474 14.0703 270.585 13.7974C270.697 13.5245 270.75 13.2312 270.74 12.9366H270.758Z" fill="white"/>
<path d="M277.543 0H282.144V17.6867H277.543V0Z" fill="white"/>
<path d="M177.342 26.041H182.307L186.352 32.6049L190.398 26.041H195.369V42.9997H190.691V33.2613L186.352 39.8968H186.245L181.931 33.3329V43.0236H177.33L177.342 26.041Z" fill="white"/>
<path d="M197.583 25.313H202.357V28.7023H197.583V25.313ZM197.684 29.8898H202.285V43.0176H197.684V29.8898Z" fill="white"/>
<path d="M204.576 25.313H209.183V42.9997H204.576V25.313Z" fill="white"/>
<path d="M211.068 36.5251V36.4774C211.068 32.6465 213.807 29.6211 217.686 29.6211C222.215 29.6211 224.304 32.9388 224.304 36.7817C224.304 37.0741 224.304 37.4142 224.304 37.7305H215.484C215.615 38.3719 215.975 38.9439 216.497 39.3401C217.018 39.7363 217.665 39.9298 218.318 39.8846C218.869 39.8768 219.411 39.7544 219.912 39.5253C220.412 39.2962 220.859 38.9654 221.224 38.554L223.767 40.6604C223.098 41.526 222.233 42.2197 221.243 42.6836C220.253 43.1475 219.167 43.3684 218.074 43.3277C213.98 43.3158 211.068 40.5768 211.068 36.5251ZM219.989 35.3854C219.816 33.9294 218.969 32.9985 217.71 32.9985C216.451 32.9985 215.675 33.9413 215.43 35.3854H219.989Z" fill="white"/>
<path d="M177.342 51.3535H182.306L186.352 57.9174L190.398 51.3535H195.369V68.3122H190.69V58.6036L186.352 65.2451H186.245L181.943 58.6036V68.2943H177.342V51.3535Z" fill="white"/>
<path d="M197.637 63.7833V55.2085H202.243V62.3035C202.243 63.7356 202.995 64.5113 204.111 64.5113C205.227 64.5113 206.021 63.7356 206.021 62.3035V55.2085H210.627V68.3363H206.021V66.5461C205.582 67.1831 204.995 67.705 204.312 68.0675C203.629 68.43 202.868 68.6225 202.094 68.6287C199.308 68.6048 197.637 66.7669 197.637 63.7833Z" fill="white"/>
<path d="M212.119 66.6652L213.838 63.8786C215.166 64.7978 216.729 65.3195 218.343 65.3823C219.143 65.3823 219.507 65.1436 219.507 64.6782V64.6304C219.507 64.1232 218.784 63.9024 217.4 63.5146C214.81 62.8403 212.746 61.9631 212.746 59.3375V59.2898C212.746 56.5031 214.977 54.9517 218.009 54.9517C219.906 54.9529 221.765 55.4818 223.379 56.4793L221.804 59.3853C220.621 58.6922 219.293 58.2836 217.925 58.1918C217.227 58.1918 216.863 58.4604 216.863 58.8244V58.8721C216.863 59.3793 217.615 59.624 218.993 60.0357C221.589 60.7577 223.648 61.6588 223.648 64.2127V64.2605C223.648 67.1426 221.488 68.6463 218.277 68.6463C216.068 68.6483 213.913 67.9553 212.119 66.6652Z" fill="white"/>
<path d="M224.751 61.82V61.7723C224.751 57.9414 227.484 54.916 231.363 54.916C235.892 54.916 237.98 58.2338 237.98 62.0766C237.98 62.3631 237.98 62.6733 237.98 63.0194H229.208C229.339 63.662 229.698 64.2353 230.219 64.6327C230.741 65.0301 231.389 65.2245 232.043 65.1796C232.594 65.1706 233.136 65.0471 233.637 64.817C234.137 64.5869 234.584 64.2552 234.949 63.8429L237.491 65.9553C236.822 66.8199 235.957 67.5123 234.967 67.9752C233.977 68.4381 232.89 68.658 231.798 68.6167C227.657 68.6286 224.751 65.8897 224.751 61.82ZM233.666 60.6803C233.493 59.2303 232.646 58.2934 231.386 58.2934C230.127 58.2934 229.352 59.2422 229.107 60.6803H233.666Z" fill="white"/>
<path d="M239.705 63.7833V55.2085H244.312V62.3035C244.312 63.7356 245.058 64.5113 246.174 64.5113C247.289 64.5113 248.089 63.7356 248.089 62.3035V55.2085H252.696V68.3363H248.089V66.5461C247.65 67.1831 247.064 67.705 246.38 68.0675C245.697 68.43 244.936 68.6225 244.163 68.6287C241.376 68.6048 239.705 66.7669 239.705 63.7833Z" fill="white"/>
<path d="M254.683 55.2085H259.283V56.9986C259.719 56.3642 260.301 55.8438 260.981 55.4814C261.66 55.119 262.416 54.9251 263.186 54.9161C263.954 54.8727 264.719 55.0503 265.389 55.4278C266.06 55.8053 266.608 56.367 266.969 57.0463C267.487 56.3789 268.151 55.8396 268.91 55.4701C269.67 55.1007 270.504 54.9111 271.349 54.9161C274.136 54.9161 275.836 56.6585 275.836 59.6898V68.2885H271.23V61.1935C271.23 59.7614 270.525 59.0095 269.439 59.0095C268.353 59.0095 267.548 59.7614 267.548 61.1935V68.3124H262.947V61.1935C262.947 59.7614 262.243 59.0095 261.157 59.0095C260.071 59.0095 259.289 59.7614 259.289 61.1935V68.3124H254.689L254.683 55.2085Z" fill="white"/>
</g>
<defs>
<clipPath id="clip0_381_4645">
<rect width="281.263" height="120" fill="white" transform="translate(0.868164)"/>
</clipPath>
</defs>
</svg>
